<?xml version="1.0" encoding="utf-8"?>
<!-- Generator: Adobe Illustrator 16.0.0, SVG Export Plug-In . SVG Version: 6.00 Build 0)  -->
<!DOCTYPE svg PUBLIC "-//W3C//DTD SVG 1.1//EN" "http://www.w3.org/Graphics/SVG/1.1/DTD/svg11.dtd">
<svg version="1.1" id="Layer_1" xmlns="http://www.w3.org/2000/svg" xmlns:xlink="http://www.w3.org/1999/xlink" x="0px" y="0px"
	 width="90px" height="37px" viewBox="16.2 5.573 90 37" enable-background="new 16.2 5.573 90 37" xml:space="preserve">
<g>
	<g>
		<g>
			<defs>
				<path id="SVGID_1_" d="M37.646,36.194c2.299-0.028,4.48-0.364,6.411-1.014c0.486-0.164,0.948-0.344,1.389-0.541
					c-0.538,1.312-1.326,2.406-2.354,3.22c-2.029,1.493-4.423,2.519-7.023,2.909C36.719,39.645,37.245,38.058,37.646,36.194
					 M26.831,39.38c-0.047-0.039-0.1-0.076-0.158-0.104c-0.905-0.44-1.27-2.456-0.798-5.538c1.737,0.781,3.628,1.4,5.617,1.824
					c1.506,0.322,3.009,0.521,4.476,0.599c-0.719,3.128-1.641,4.771-2.253,4.771c-0.04,0-0.077,0.007-0.114,0.012
					C31.178,40.927,28.882,40.369,26.831,39.38 M18.438,29.416c-0.139-0.528-0.226-1.068-0.262-1.615
					c0.543,0.772,1.205,1.529,1.995,2.259c1.191,1.1,2.603,2.084,4.18,2.929c-0.323,1.8-0.414,3.43-0.209,4.746
					C21.427,35.68,19.395,32.773,18.438,29.416 M38.673,25.045c0-0.636-0.011-1.274-0.029-1.91c2.025-0.135,3.901-0.661,5.435-1.544
					c1.422,2.812,2.184,5.778,2.178,8.579c-0.001,0.812-0.071,1.583-0.2,2.311c-0.73,0.448-1.573,0.837-2.519,1.155
					c-1.682,0.565-3.575,0.874-5.583,0.927C38.439,31.669,38.673,28.31,38.673,25.045 M31.833,33.972
					c-2.017-0.433-3.921-1.072-5.646-1.883c0.567-2.549,1.62-5.637,3.292-9.065c0.243-0.496,0.491-0.984,0.744-1.463
					c1.169,0.524,2.441,0.94,3.776,1.227c1.013,0.217,2.026,0.334,3.02,0.369c0.017,0.609,0.026,1.24,0.026,1.889
					c0,3.833-0.306,7.015-0.749,9.5C34.839,34.482,33.341,34.293,31.833,33.972 M21.277,28.865
					c-1.383-1.278-2.334-2.632-2.818-3.975c0.383-1.507,1.126-3.017,2.219-4.464c1.038-1.374,2.327-2.61,3.808-3.673
					c0.426,0.771,1.025,1.524,1.786,2.237c0.723,0.678,1.566,1.292,2.501,1.83c-0.257,0.488-0.509,0.985-0.754,1.49
					c-1.445,2.959-2.625,6.134-3.315,9.016C23.417,30.601,22.261,29.775,21.277,28.865 M37.567,13.738
					c1.851,1.377,3.546,3.154,4.965,5.233c0.27,0.395,0.522,0.795,0.764,1.199c-1.3,0.752-2.944,1.201-4.718,1.328
					C38.427,18.688,38.094,15.986,37.567,13.738 M34.339,21.195c-1.179-0.251-2.299-0.612-3.33-1.065
					c1.518-2.657,3.181-4.967,4.819-6.685c0.512,2.015,0.941,4.724,1.124,8.082C36.089,21.49,35.211,21.381,34.339,21.195
					 M27.384,17.803c-0.674-0.631-1.185-1.288-1.53-1.948c1.526-0.917,3.214-1.666,5.012-2.206c1.07-0.322,2.152-0.56,3.232-0.725
					c-1.558,1.747-3.115,3.965-4.541,6.471C28.742,18.924,28.01,18.39,27.384,17.803 M23.882,12.616
					c-0.022,0.083-0.045,0.167-0.063,0.252c-0.165,0.768-0.145,1.554,0.048,2.334c-1.751,1.208-3.275,2.637-4.488,4.242
					c-0.37,0.489-0.7,0.987-0.999,1.489C19.28,17.601,21.244,14.701,23.882,12.616 M25.409,13.207
					c0.18-0.844,0.688-1.599,1.474-2.223c1.899-0.567,4.11-0.431,6.434,0.42c-0.978,0.169-1.956,0.396-2.92,0.687
					c-1.795,0.539-3.489,1.276-5.04,2.171C25.32,13.905,25.338,13.552,25.409,13.207 M38.615,11.063
					c0.56-0.362,1.074-0.61,1.504-0.712c0.815,0.327,1.625,0.745,2.392,1.273C41.281,11.317,39.97,11.129,38.615,11.063
					 M35.874,9.32c0.661,0.075,1.364,0.187,2.088,0.357c-0.453,0.243-0.924,0.548-1.401,0.913
					C36.348,10.109,36.119,9.685,35.874,9.32 M34.111,9.959c-0.736-0.282-1.465-0.5-2.183-0.657
					c0.575-0.064,1.158-0.101,1.751-0.102c0.277,0.003,0.618,0.336,0.974,0.98C34.472,10.105,34.29,10.029,34.111,9.959
					 M16.2,25.073c0,1.664,0.238,3.272,0.674,4.798c0.026,0.104,0.05,0.204,0.08,0.308c0.008,0.019,0.016,0.037,0.023,0.057
					c2.207,7.138,8.868,12.338,16.722,12.338c3.633,0,7.012-1.113,9.812-3.016c0.027-0.015,0.055-0.03,0.083-0.047
					c0.166-0.113,0.325-0.232,0.481-0.356c3.222-2.379,5.599-5.833,6.6-9.83c0.056-0.185,0.106-0.371,0.147-0.561
					c0.01-0.045,0.012-0.089,0.015-0.133c0.238-1.149,0.364-2.34,0.364-3.558c0-2.361-0.463-4.654-1.375-6.811
					c-0.175-0.415-0.652-0.608-1.066-0.433c-0.415,0.173-0.607,0.652-0.433,1.065c0.829,1.955,1.248,4.034,1.248,6.178
					c0,1.312-0.164,2.59-0.466,3.81c-0.239,0.771-0.662,1.485-1.246,2.132c0.015-0.276,0.023-0.556,0.024-0.841
					c0.006-3.123-0.857-6.421-2.459-9.521c1.175-1.009,1.922-2.254,2.181-3.648c0.082-0.442-0.211-0.866-0.653-0.948
					c-0.442-0.083-0.868,0.21-0.948,0.652c-0.17,0.922-0.649,1.767-1.398,2.486c-0.233-0.386-0.475-0.767-0.731-1.143
					c-1.43-2.094-3.126-3.907-4.984-5.352c2.453,0.161,4.719,0.755,6.544,1.775c0.287,0.163,0.667,0.158,0.935-0.066
					c0.347-0.287,0.391-0.802,0.104-1.147c-2.622-3.667-7.156-5.69-12.775-5.69C24.051,7.573,16.2,15.423,16.2,25.073"/>
			</defs>
			<clipPath id="SVGID_2_">
				<use xlink:href="#SVGID_1_"  overflow="visible"/>
			</clipPath>
			
				<radialGradient id="SVGID_3_" cx="-251.136" cy="-310.5759" r="0.477" gradientTransform="matrix(60.7425 0 0 60.7427 15304.2656 18879.332)" gradientUnits="userSpaceOnUse">
				<stop  offset="0" style="stop-color:#FFFFFF"/>
				<stop  offset="0.0598" style="stop-color:#E7F6FD"/>
				<stop  offset="0.1829" style="stop-color:#AFE2FA"/>
				<stop  offset="0.3589" style="stop-color:#37C6F4"/>
				<stop  offset="0.544" style="stop-color:#00AEEF"/>
				<stop  offset="1" style="stop-color:#002F54"/>
			</radialGradient>
			<rect x="16.2" y="7.573" clip-path="url(#SVGID_2_)" fill="url(#SVGID_3_)" width="35.001" height="35"/>
		</g>
	</g>
	<g>
		<g>
			<path fill="#002F54" d="M57.783,18.314v-0.319c0-0.75-0.036-1.499-0.098-2.261c0.566,0.136,1.13,0.197,1.72,0.197
				c-0.123,0.442-0.185,1.13-0.185,2.064v0.332h1.389v-2.15c0-0.369-0.038-0.737-0.1-1.105c0.515,0.123,1.068,0.209,1.682,0.233
				c-0.135,0.356-0.197,0.688-0.197,1.007v2.016h1.684v-1.966c0-0.368-0.037-0.737-0.098-1.105c0.453,0.086,1.02,0.135,1.682,0.148
				c-0.135,0.369-0.197,0.785-0.197,1.252v1.672h0.146c0.762,0,1.535-0.025,2.311-0.087c-0.037,0.258-0.049,0.516-0.049,0.762
				c0,0.257,0.012,0.515,0.049,0.773c-0.775-0.062-1.549-0.098-2.311-0.098h-0.146v2.443c0,0.467,0.012,0.934,0.051,1.389
				c-0.408-0.025-0.801-0.05-1.191-0.05h-2.018c-0.465,0-0.932,0.024-1.399,0.05c0.062-0.418,0.1-0.848,0.1-1.291v-2.541h-1.388
				v4.839h4.077c1.068,0,2.139-0.025,3.219-0.099c-0.035,0.283-0.047,0.553-0.047,0.822c0,0.246,0.012,0.505,0.047,0.763
				c-1.08-0.062-2.148-0.087-3.219-0.087h-2.64c-0.983,0-1.954,0.024-2.923,0.087c0.024-0.737,0.048-1.401,0.048-2.015V19.69
				c-0.564,0.012-1.129,0.037-1.682,0.086c0.024-0.259,0.048-0.517,0.048-0.773c0-0.247-0.024-0.505-0.048-0.762
				C56.665,18.288,57.219,18.314,57.783,18.314z M61.995,22.171h1.684v-2.493h-1.684V22.171L61.995,22.171z"/>
			<path fill="#002F54" d="M72.77,15.451h3.598c0.764,0,1.536-0.012,2.296-0.048c-0.037,0.442-0.047,0.872-0.047,1.301v2.974
				c0,0.466,0.012,0.92,0.047,1.387c-0.637-0.024-1.276-0.037-1.903-0.049c0.246,0.159,0.518,0.295,0.812,0.418
				c0.688,0.307,1.497,0.503,2.442,0.59c-0.441,0.539-0.76,1.043-0.957,1.535c-0.674-0.295-1.251-0.566-1.72-0.836
				c-0.012,0.099-0.012,0.185-0.012,0.258v2.888c0,0.196,0.012,0.405,0.049,0.613c-0.27-0.024-0.553-0.036-0.824-0.036
				c-0.256,0-0.516,0.012-0.76,0.036c0.023-0.208,0.049-0.417,0.049-0.613v-3.366c0-0.186-0.025-0.381-0.049-0.577
				c0.146,0.048,0.307,0.073,0.455,0.099c-0.123-0.099-0.234-0.185-0.32-0.283c-0.246-0.209-0.455-0.455-0.629-0.725h-1.238
				c-0.393,0.344-0.775,0.65-1.168,0.934c0.381,0.049,0.725,0.074,1.033,0.074c-0.137,0.172-0.223,0.344-0.246,0.54
				c-0.172,1.34-0.443,2.225-0.811,2.665c-0.322,0.442-0.896,0.898-1.734,1.353c-0.318-0.479-0.736-0.873-1.24-1.192
				c0.773-0.172,1.326-0.441,1.672-0.785c0.318-0.295,0.527-0.824,0.627-1.574c0-0.221-0.014-0.404-0.014-0.576
				c-0.75,0.503-1.512,0.921-2.285,1.252c-0.258-0.453-0.613-0.835-1.055-1.154c0.859-0.172,1.631-0.466,2.307-0.883
				c0.369-0.197,0.713-0.418,1.02-0.641c-0.576,0-1.143,0.014-1.707,0.038c0.023-0.467,0.051-0.921,0.051-1.388v-2.973
				c-0.039-0.43-0.051-0.859-0.051-1.301C71.221,15.439,71.997,15.451,72.77,15.451z M73.876,17.663v-0.958H71.86v0.958H73.876z
				 M73.876,18.854H71.86v0.922h2.016V18.854z M75.214,17.663h2.064v-0.958h-2.064V17.663z M77.278,18.854h-2.064v0.922h2.064
				V18.854z"/>
			<path fill="#002F54" d="M85.166,15.648c-0.32,0.369-0.566,0.774-0.752,1.191c0.592,0,1.205-0.012,1.857-0.048
				c-0.039,0.246-0.049,0.479-0.049,0.676c0,0.271,0.012,0.491,0.049,0.676c-0.469-0.025-1.105-0.05-1.918-0.05h-0.516
				c-0.172,0.319-0.344,0.639-0.529,0.945c0.102,0.013,0.209,0.013,0.322,0.013h1.584c0.281,0,0.564-0.013,0.861-0.049
				c-0.025,0.208-0.039,0.417-0.039,0.626c0,0.221,0.014,0.455,0.039,0.676c-0.297-0.024-0.58-0.049-0.861-0.049h-0.479v1.057h0.381
				c0.295,0,0.578-0.013,0.873-0.05c-0.039,0.21-0.049,0.418-0.049,0.615c0,0.233,0.012,0.454,0.049,0.676
				c-0.295-0.025-0.578-0.05-0.873-0.05h-0.381v1.781c0.344-0.159,0.738-0.368,1.154-0.626c0.037,0.504,0.146,0.945,0.332,1.338
				c-0.861,0.394-1.658,0.885-2.396,1.451c-0.293-0.505-0.553-0.873-0.773-1.107c0.295-0.466,0.441-0.944,0.441-1.436v-1.4h-0.625
				c-0.295,0-0.578,0.024-0.873,0.049c0.025-0.221,0.049-0.441,0.049-0.676c0-0.195-0.023-0.404-0.049-0.613
				c0.293,0.036,0.576,0.049,0.873,0.049h0.625v-1.057c-0.256,0.013-0.504,0.024-0.723,0.049c0.023-0.172,0.035-0.332,0.035-0.492
				c-0.121,0.186-0.244,0.357-0.367,0.529c-0.221-0.32-0.59-0.627-1.105-0.909c0.699-0.762,1.191-1.462,1.461-2.088
				c0.246-0.565,0.455-1.302,0.65-2.223C83.838,15.353,84.414,15.526,85.166,15.648z M91.785,17.319v2.211
				c0,0.614,0.023,1.217,0.098,1.817c-0.539-0.024-1.092-0.036-1.631-0.036h-0.715c0.1,0.54,0.234,0.982,0.395,1.338
				c0.393-0.295,0.799-0.65,1.191-1.057c0.27,0.418,0.625,0.773,1.092,1.057c-0.258,0.073-0.834,0.369-1.742,0.872
				c0.516,0.591,1.289,1.044,2.32,1.339c-0.553,0.344-1.031,0.799-1.438,1.388c-1.041-0.761-1.779-1.585-2.209-2.481
				c-0.32-0.638-0.541-1.449-0.65-2.457h-0.689v3.157c0.369-0.171,0.762-0.394,1.156-0.662c0.047,0.515,0.121,0.958,0.23,1.339
				c-0.723,0.344-1.473,0.772-2.246,1.303c-0.199-0.37-0.455-0.688-0.775-0.971c0.221-0.345,0.344-0.578,0.344-0.713v-7.443
				c0-0.602-0.035-1.204-0.098-1.818c0.539,0.037,1.082,0.05,1.633,0.05h2.201c0.539,0,1.092-0.013,1.631-0.05
				C91.808,16.115,91.785,16.717,91.785,17.319z M87.804,16.741v1.156h2.691v-1.156H87.804z M87.804,19.1v1.006h2.691V19.1H87.804z"
				/>
			<path fill="#002F54" d="M97.758,15.697c-0.246,0.197-0.418,0.393-0.516,0.589c-0.566,0.946-1.266,1.831-2.125,2.665
				c-0.295-0.343-0.713-0.65-1.242-0.909c0.664-0.479,1.191-0.982,1.586-1.523c0.332-0.454,0.564-0.921,0.711-1.399
				C96.601,15.341,97.129,15.538,97.758,15.697z M98.48,18.424c-0.246,0.16-0.527,0.467-0.822,0.909
				c-0.146,0.258-0.309,0.504-0.479,0.75v3.771c0,0.896,0.025,1.78,0.098,2.678c-0.27-0.036-0.539-0.049-0.811-0.049
				c-0.258,0-0.514,0.014-0.773,0.049c0.061-0.897,0.1-1.781,0.1-2.678v-2.199c-0.346,0.319-0.713,0.638-1.105,0.946
				c-0.186-0.639-0.406-1.167-0.664-1.585c0.75-0.454,1.352-0.933,1.793-1.425c0.43-0.516,0.775-1.118,1.031-1.831
				C97.349,18.104,97.892,18.327,98.48,18.424z M100.972,18.952h1.967c0.799,0,1.596-0.025,2.395-0.098
				c-0.023,0.281-0.037,0.553-0.037,0.823c0,0.258,0.014,0.515,0.037,0.761c-0.725-0.049-1.436-0.086-2.148-0.098v4.998
				c0,0.394-0.16,0.688-0.479,0.86c-0.295,0.185-0.896,0.283-1.781,0.283c-0.023-0.566-0.197-1.081-0.527-1.536
				c0.367,0.037,0.662,0.049,0.857,0.049c0.332,0,0.506-0.123,0.531-0.381V20.34h-0.814c-0.809,0-1.605,0.036-2.393,0.098
				c0.023-0.246,0.049-0.504,0.049-0.761c0-0.271-0.025-0.542-0.049-0.823C99.367,18.927,100.164,18.952,100.972,18.952z
				 M101.502,15.734h0.762c0.738,0,1.475-0.024,2.211-0.085c-0.037,0.258-0.049,0.516-0.049,0.761c0,0.246,0.014,0.479,0.049,0.726
				c-0.736-0.062-1.473-0.098-2.211-0.098h-0.762c-0.736,0-1.473,0.037-2.211,0.098c0.025-0.246,0.051-0.479,0.051-0.726
				c0-0.245-0.025-0.503-0.051-0.761C100.029,15.71,100.765,15.734,101.502,15.734z"/>
		</g>
		<g>
			<path fill="#00AEEF" d="M57.731,35.046v-5.945h1.172v5.945H57.731z"/>
			<path fill="#00AEEF" d="M59.946,35.046v-5.945h2.25c1.217,0,1.92,0.459,1.92,1.57c0,1.055-0.627,1.233-0.926,1.233v0.017
				c0.398,0,1.326,0.349,1.326,1.459c0,1.241-0.977,1.666-2.072,1.666H59.946z M62.061,31.581c0.635,0,0.85-0.314,0.85-0.771
				c0-0.477-0.314-0.758-1.012-0.758h-0.782v1.529H62.061z M62.186,34.095c0.588,0,1.031-0.186,1.031-0.841
				c0-0.61-0.453-0.849-1.055-0.849h-1.044v1.689H62.186z"/>
			<path fill="#00AEEF" d="M70.186,35.029c0,0-0.219,0.061-0.611,0.061c-1.801,0-1.309-2.27-2.564-2.27h-0.629v2.227H65.21v-5.945
				h2.09c1.459,0,2.24,0.537,2.24,1.87c0,0.876-0.568,1.34-1.027,1.512c0.611,0.5,0.646,1.655,1.426,1.655h0.248V35.029
				L70.186,35.029z M67.163,31.938c0.705,0,1.223-0.323,1.223-0.935c0-0.593-0.416-0.952-1.127-0.952h-0.877v1.887H67.163z"/>
			<path fill="#00AEEF" d="M70.704,35.046v-5.945h1.74c1.561,0,2.955,0.843,2.955,3.075c0,2.114-1.256,2.87-2.701,2.87H70.704z
				 M72.69,34.095c0.908,0,1.547-0.663,1.547-1.936c0-1.316-0.559-2.108-1.809-2.108h-0.553v4.044H72.69z"/>
			<path fill="#00AEEF" d="M78.883,33.689c-0.611,0-1.095-0.493-1.095-1.105s0.483-1.103,1.095-1.103
				c0.609,0,1.102,0.49,1.102,1.103S79.492,33.689,78.883,33.689z"/>
			<path fill="#00AEEF" d="M82.642,35.046v-5.945h1.172v5.945H82.642z"/>
			<path fill="#00AEEF" d="M84.857,35.046v-5.945h1.74c1.564,0,2.955,0.843,2.955,3.075c0,2.114-1.256,2.87-2.701,2.87H84.857z
				 M86.844,34.095c0.91,0,1.549-0.663,1.549-1.936c0-1.316-0.561-2.108-1.809-2.108h-0.553v4.044H86.844z"/>
			<path fill="#00AEEF" d="M93.427,33.56h-2.109l-0.502,1.486h-1.223l2.184-5.945h1.197l2.184,5.945h-1.215L93.427,33.56z
				 M91.635,32.668h1.494l-0.756-2.158L91.635,32.668z"/>
		</g>
	</g>
</g>
</svg>
