<?xml version="1.0" encoding="utf-8"?>
<!-- Generator: Adobe Illustrator 16.0.0, SVG Export Plug-In . SVG Version: 6.00 Build 0)  -->
<!DOCTYPE svg PUBLIC "-//W3C//DTD SVG 1.1//EN" "http://www.w3.org/Graphics/SVG/1.1/DTD/svg11.dtd">
<svg version="1.1" id="Layer_1" xmlns="http://www.w3.org/2000/svg" xmlns:xlink="http://www.w3.org/1999/xlink" x="0px" y="0px"
	 width="111px" height="37px" viewBox="19.365 5.62 111 37" enable-background="new 19.365 5.62 111 37" xml:space="preserve">
<g>
	<g>
		<path d="M60.401,23.008v-0.3c0-0.701-0.035-1.403-0.092-2.116c0.53,0.126,1.06,0.185,1.611,0.185
			c-0.115,0.414-0.172,1.059-0.172,1.932v0.311h1.3v-2.013c0-0.346-0.035-0.69-0.092-1.036c0.483,0.115,1.001,0.196,1.576,0.219
			c-0.127,0.334-0.184,0.645-0.184,0.943v1.887h1.575v-1.841c0-0.345-0.034-0.69-0.092-1.035c0.426,0.081,0.955,0.126,1.576,0.138
			c-0.126,0.345-0.184,0.736-0.184,1.174v1.564h0.138c0.714,0,1.438-0.023,2.163-0.081c-0.034,0.241-0.046,0.482-0.046,0.714
			c0,0.24,0.012,0.482,0.046,0.724c-0.724-0.058-1.449-0.092-2.163-0.092h-0.138v2.29c0,0.438,0.012,0.873,0.045,1.299
			c-0.379-0.021-0.748-0.045-1.116-0.045h-1.887c-0.437,0-0.874,0.021-1.311,0.045c0.057-0.391,0.092-0.793,0.092-1.207v-2.381h-1.3
			v4.531h3.818c1.001,0,2.002-0.021,3.015-0.092c-0.035,0.266-0.045,0.518-0.045,0.771c0,0.23,0.012,0.473,0.045,0.713
			c-1.013-0.057-2.014-0.08-3.015-0.08h-2.472c-0.921,0-1.831,0.023-2.738,0.08c0.023-0.689,0.045-1.311,0.045-1.887v-4.025
			c-0.529,0.012-1.058,0.035-1.576,0.08c0.023-0.241,0.046-0.482,0.046-0.724c0-0.231-0.023-0.472-0.046-0.714
			C59.354,22.984,59.872,23.008,60.401,23.008z M64.347,26.62h1.576v-2.336h-1.576V26.62z"/>
		<path d="M74.437,20.328h3.37c0.715,0,1.438-0.011,2.152-0.046c-0.035,0.414-0.047,0.816-0.047,1.219v2.783
			c0,0.438,0.012,0.863,0.047,1.301c-0.6-0.023-1.197-0.035-1.783-0.047c0.23,0.15,0.482,0.277,0.758,0.393
			c0.645,0.287,1.402,0.471,2.291,0.551c-0.416,0.506-0.715,0.979-0.898,1.438c-0.633-0.275-1.174-0.527-1.611-0.781
			c-0.012,0.092-0.012,0.172-0.012,0.24v2.703c0,0.184,0.012,0.381,0.047,0.576c-0.254-0.023-0.518-0.035-0.771-0.035
			c-0.24,0-0.482,0.012-0.713,0.035c0.023-0.197,0.047-0.393,0.047-0.576v-3.15c0-0.172-0.023-0.357-0.047-0.541
			c0.139,0.047,0.287,0.07,0.426,0.092c-0.115-0.092-0.219-0.172-0.299-0.264c-0.23-0.195-0.426-0.426-0.588-0.68h-1.16
			c-0.368,0.324-0.725,0.609-1.093,0.875c0.356,0.047,0.679,0.068,0.966,0.068c-0.127,0.164-0.208,0.324-0.23,0.506
			c-0.162,1.256-0.415,2.084-0.76,2.498c-0.297,0.414-0.839,0.84-1.621,1.266c-0.299-0.449-0.691-0.816-1.161-1.117
			c0.724-0.16,1.242-0.414,1.564-0.734c0.298-0.277,0.494-0.771,0.587-1.473c0-0.207-0.012-0.381-0.012-0.541
			c-0.701,0.473-1.415,0.863-2.139,1.174c-0.242-0.426-0.576-0.781-0.99-1.082c0.805-0.162,1.529-0.438,2.163-0.828
			c0.345-0.184,0.666-0.391,0.954-0.598c-0.541,0-1.07,0.012-1.599,0.034c0.023-0.438,0.045-0.862,0.045-1.3v-2.783
			c-0.034-0.402-0.045-0.805-0.045-1.219C72.988,20.315,73.712,20.328,74.437,20.328z M75.473,22.397v-0.896h-1.888v0.896H75.473z
			 M75.473,23.515h-1.888v0.861h1.888V23.515z M76.725,22.397h1.932v-0.896h-1.932V22.397z M78.656,23.515h-1.932v0.861h1.932
			V23.515z"/>
		<path d="M86.045,20.511c-0.299,0.346-0.529,0.726-0.703,1.117c0.553,0,1.129-0.012,1.738-0.046
			c-0.035,0.229-0.047,0.448-0.047,0.632c0,0.254,0.014,0.461,0.047,0.633c-0.438-0.022-1.035-0.046-1.795-0.046h-0.482
			c-0.162,0.3-0.324,0.599-0.496,0.886c0.094,0.012,0.197,0.012,0.301,0.012h1.484c0.262,0,0.527-0.012,0.805-0.045
			c-0.023,0.194-0.035,0.391-0.035,0.586c0,0.207,0.012,0.426,0.035,0.633c-0.277-0.023-0.541-0.047-0.805-0.047h-0.449v0.99h0.355
			c0.277,0,0.541-0.012,0.816-0.047c-0.035,0.195-0.045,0.391-0.045,0.574c0,0.221,0.012,0.428,0.045,0.635
			c-0.275-0.023-0.539-0.047-0.816-0.047h-0.355v1.668c0.322-0.15,0.691-0.346,1.08-0.588c0.035,0.473,0.141,0.887,0.311,1.256
			c-0.805,0.365-1.553,0.826-2.242,1.355c-0.275-0.471-0.518-0.816-0.725-1.035c0.277-0.438,0.414-0.885,0.414-1.344v-1.312h-0.586
			c-0.275,0-0.541,0.023-0.816,0.047c0.023-0.207,0.047-0.416,0.047-0.635c0-0.184-0.023-0.379-0.047-0.574
			c0.275,0.035,0.541,0.047,0.816,0.047h0.586v-0.99c-0.24,0.012-0.471,0.023-0.678,0.047c0.023-0.162,0.035-0.311,0.035-0.461
			c-0.115,0.172-0.23,0.334-0.346,0.495c-0.207-0.3-0.553-0.587-1.035-0.852c0.656-0.714,1.115-1.369,1.369-1.955
			c0.23-0.529,0.426-1.22,0.609-2.082C84.801,20.235,85.342,20.396,86.045,20.511z M92.244,22.076v2.07
			c0,0.575,0.021,1.139,0.092,1.702c-0.508-0.023-1.023-0.033-1.529-0.033h-0.668c0.092,0.506,0.219,0.918,0.369,1.252
			c0.367-0.275,0.746-0.609,1.115-0.99c0.254,0.393,0.586,0.725,1.023,0.99c-0.24,0.07-0.781,0.346-1.633,0.816
			c0.482,0.553,1.207,0.979,2.174,1.254c-0.518,0.322-0.967,0.748-1.346,1.301c-0.977-0.713-1.668-1.484-2.07-2.324
			c-0.299-0.598-0.506-1.357-0.611-2.301h-0.643v2.955c0.346-0.16,0.713-0.367,1.082-0.619c0.045,0.482,0.113,0.896,0.219,1.252
			c-0.68,0.324-1.381,0.725-2.107,1.221c-0.184-0.346-0.424-0.646-0.723-0.908c0.207-0.324,0.322-0.541,0.322-0.668v-6.971
			c0-0.564-0.035-1.127-0.092-1.703c0.506,0.035,1.012,0.047,1.529,0.047h2.059c0.506,0,1.023-0.013,1.531-0.047
			C92.266,20.949,92.244,21.513,92.244,22.076z M88.518,21.536v1.08h2.518v-1.08H88.518z M88.518,23.743v0.944h2.518v-0.944H88.518z
			"/>
		<path d="M97.836,20.558c-0.23,0.186-0.391,0.368-0.482,0.553c-0.531,0.886-1.186,1.714-1.99,2.496
			c-0.275-0.322-0.668-0.609-1.162-0.852c0.623-0.447,1.117-0.92,1.484-1.426c0.311-0.426,0.529-0.863,0.668-1.312
			C96.754,20.225,97.25,20.409,97.836,20.558z M98.516,23.111c-0.23,0.15-0.496,0.437-0.771,0.851
			c-0.139,0.242-0.289,0.473-0.449,0.703v3.531c0,0.838,0.023,1.668,0.092,2.508c-0.252-0.035-0.506-0.047-0.758-0.047
			c-0.24,0-0.484,0.012-0.725,0.047c0.057-0.84,0.092-1.67,0.092-2.508v-2.061c-0.322,0.299-0.666,0.6-1.035,0.887
			c-0.172-0.6-0.379-1.092-0.621-1.484c0.701-0.426,1.266-0.875,1.68-1.335c0.402-0.482,0.725-1.046,0.967-1.714
			C97.455,22.812,97.963,23.02,98.516,23.111z M100.85,23.606h1.84c0.748,0,1.494-0.023,2.244-0.092
			c-0.023,0.264-0.035,0.517-0.035,0.77c0,0.242,0.012,0.482,0.035,0.713c-0.68-0.045-1.348-0.08-2.014-0.092v4.682
			c0,0.367-0.15,0.645-0.447,0.805c-0.277,0.174-0.842,0.266-1.668,0.266c-0.023-0.531-0.186-1.012-0.496-1.439
			c0.346,0.035,0.621,0.047,0.805,0.047c0.311,0,0.473-0.115,0.496-0.357v-4.002h-0.76c-0.758,0-1.506,0.034-2.242,0.092
			c0.021-0.23,0.045-0.472,0.045-0.713c0-0.253-0.021-0.506-0.045-0.77C99.344,23.583,100.09,23.606,100.85,23.606z M101.344,20.593
			h0.715c0.689,0,1.379-0.023,2.07-0.08c-0.037,0.24-0.047,0.483-0.047,0.713c0,0.23,0.01,0.449,0.047,0.679
			c-0.691-0.058-1.381-0.093-2.07-0.093h-0.715c-0.689,0-1.379,0.034-2.07,0.093c0.023-0.229,0.047-0.448,0.047-0.679
			c0-0.229-0.023-0.473-0.047-0.713C99.965,20.569,100.655,20.593,101.344,20.593z"/>
		<path d="M109.949,20.511c-0.219,0.208-0.379,0.415-0.482,0.622h2.139c-0.137-0.185-0.262-0.345-0.4-0.495
			c0.4-0.161,0.758-0.379,1.08-0.666c0.162,0.299,0.391,0.598,0.713,0.896c-0.148,0.092-0.287,0.172-0.414,0.265h1.898
			c0.529,0,1.092-0.013,1.713-0.046c-0.033,0.218-0.045,0.414-0.045,0.587c0,0.253,0.012,0.46,0.045,0.632
			c-0.414-0.023-0.99-0.045-1.713-0.045h-1.934v0.401h1.348c0.48,0,1.012-0.011,1.574-0.046c-0.033,0.208-0.045,0.381-0.045,0.541
			c0,0.23,0.012,0.426,0.045,0.586c-0.379-0.022-0.908-0.045-1.574-0.045h-1.348v0.311h1.348c0.48,0,1.012-0.012,1.574-0.047
			c-0.033,0.208-0.045,0.381-0.045,0.541c0,0.23,0.012,0.426,0.045,0.586c-0.379-0.022-0.908-0.045-1.574-0.045h-1.348v0.275h1.795
			c0.516,0,1.068-0.012,1.668-0.046c-0.035,0.206-0.045,0.403-0.045,0.575c0,0.23,0.012,0.426,0.045,0.586
			c-0.402-0.021-0.955-0.045-1.668-0.045h-5.178c0,0.113,0,0.23,0.014,0.322c-0.242-0.023-0.484-0.047-0.713-0.047
			c-0.254,0-0.494,0.023-0.725,0.047c0.057-0.805,0.092-1.623,0.092-2.428v-0.563c-0.162,0.207-0.334,0.414-0.494,0.61
			c-0.277-0.334-0.646-0.621-1.127-0.863c0.666-0.576,1.184-1.174,1.574-1.816c0.346-0.553,0.588-1.104,0.725-1.68
			C108.905,20.19,109.375,20.374,109.949,20.511z M108.557,27.159h2.383v-0.182c0-0.162-0.023-0.324-0.047-0.496
			c0.482,0.127,0.988,0.184,1.518,0.184c-0.057,0.184-0.09,0.357-0.104,0.494h2.221c0.645,0,1.287-0.021,1.934-0.09
			c-0.037,0.23-0.047,0.447-0.047,0.678c0,0.207,0.012,0.414,0.047,0.623c-0.646-0.059-1.289-0.094-1.934-0.094h-1.207
			c0.414,0.254,0.791,0.438,1.139,0.553c0.529,0.205,1.23,0.311,2.092,0.311c-0.438,0.414-0.736,0.875-0.896,1.393
			c-0.941-0.254-1.76-0.611-2.439-1.07c-0.332-0.219-0.643-0.494-0.932-0.816v1.346c0,0.172,0.012,0.355,0.047,0.541
			c-0.252-0.037-0.494-0.047-0.725-0.047c-0.24,0-0.482,0.012-0.713,0.047c0.023-0.186,0.047-0.369,0.047-0.541v-1.277
			c-0.438,0.311-0.863,0.574-1.277,0.805c-0.623,0.346-1.416,0.68-2.371,1.014c-0.229-0.426-0.529-0.783-0.896-1.084
			c1.115-0.205,2.105-0.527,2.98-0.953c0.148-0.07,0.299-0.139,0.438-0.219h-1.256c-0.645,0-1.287,0.035-1.932,0.094
			c0.021-0.209,0.033-0.416,0.033-0.623c0-0.23-0.012-0.447-0.033-0.678C107.27,27.138,107.912,27.159,108.557,27.159z
			 M111.295,22.261h-2.209v0.401h2.209V22.261z M111.295,23.698h-2.209v0.311h2.209V23.698z M111.295,25.319v-0.275h-2.197
			c0,0.104,0,0.195,0.012,0.275H111.295z"/>
		<path d="M120.567,20.235h5.305c0.666,0,1.346-0.023,2.023-0.092c-0.068,0.633-0.092,1.265-0.092,1.886v6.694
			c0,0.668,0.023,1.311,0.092,1.979c-0.367-0.033-0.607-0.045-0.725-0.045c-0.127,0-0.379,0.012-0.758,0.045
			c0.023-0.252,0.033-0.482,0.045-0.713h-6.486c0.012,0.254,0.033,0.506,0.057,0.76c-0.391-0.035-0.645-0.047-0.76-0.047
			c-0.125,0-0.367,0.014-0.723,0.047c0.057-0.668,0.092-1.311,0.092-1.98v-6.74c0-0.621-0.035-1.254-0.092-1.886
			C119.209,20.212,119.889,20.235,120.567,20.235z M126.504,28.771c0-0.012,0-0.021,0-0.047v-7.269h-6.568v7.315H126.504z
			 M122.237,23.065h1.207v-0.449c0-0.367-0.023-0.746-0.045-1.115c0.459,0.092,0.953,0.127,1.484,0.127
			c-0.15,0.355-0.219,0.759-0.219,1.219v0.207c0.506,0,1.012-0.034,1.52-0.08c-0.035,0.23-0.047,0.46-0.047,0.68
			c0,0.207,0.012,0.425,0.047,0.633c-0.52-0.047-1.025-0.07-1.52-0.081v3.003c0,0.664-0.186,1.057-0.529,1.172
			c-0.367,0.184-0.852,0.266-1.449,0.266c-0.08-0.588-0.23-1.082-0.449-1.486c0.414,0.07,0.691,0.092,0.852,0.092
			c0.23,0,0.355-0.217,0.355-0.678v-1.449c-0.643,1.082-1.428,2.035-2.334,2.842c-0.254-0.322-0.586-0.654-0.99-0.988
			c1.035-0.576,1.945-1.508,2.705-2.785h-0.588c-0.645,0-1.287,0.035-1.934,0.092c0.025-0.207,0.047-0.426,0.047-0.632
			c0-0.22-0.021-0.448-0.047-0.679C120.949,23.042,121.592,23.065,122.237,23.065z"/>
	</g>
	<g>
		<g>
			<defs>
				<path id="SVGID_1_" d="M40.811,36.239c2.299-0.027,4.48-0.363,6.41-1.014c0.486-0.162,0.949-0.344,1.389-0.539
					c-0.537,1.311-1.327,2.404-2.354,3.219c-2.029,1.492-4.423,2.518-7.022,2.91C39.885,39.69,40.409,38.104,40.811,36.239
					 M29.997,39.427c-0.049-0.041-0.101-0.076-0.158-0.105c-0.904-0.439-1.27-2.455-0.799-5.537c1.736,0.781,3.63,1.4,5.618,1.824
					c1.507,0.322,3.008,0.521,4.477,0.598c-0.721,3.129-1.644,4.771-2.253,4.771c-0.04,0-0.077,0.006-0.114,0.014
					C34.343,40.974,32.048,40.417,29.997,39.427 M21.603,29.462c-0.139-0.527-0.227-1.066-0.261-1.615
					c0.543,0.773,1.206,1.529,1.994,2.26c1.191,1.1,2.605,2.084,4.18,2.928c-0.321,1.801-0.412,3.432-0.208,4.746
					C24.591,35.726,22.56,32.819,21.603,29.462 M41.837,25.093c0-0.637-0.01-1.275-0.027-1.912c2.023-0.134,3.899-0.659,5.434-1.543
					c1.421,2.812,2.184,5.779,2.178,8.58c-0.002,0.811-0.072,1.582-0.201,2.311c-0.73,0.447-1.573,0.836-2.519,1.154
					c-1.681,0.566-3.576,0.875-5.583,0.926C41.604,31.716,41.837,28.356,41.837,25.093 M34.997,34.019
					c-2.017-0.432-3.922-1.072-5.646-1.883c0.565-2.549,1.621-5.637,3.293-9.064c0.242-0.496,0.49-0.984,0.744-1.463
					c1.169,0.524,2.44,0.941,3.774,1.226c1.013,0.218,2.026,0.336,3.02,0.37c0.017,0.609,0.026,1.239,0.026,1.889
					c0,3.832-0.306,7.016-0.749,9.5C38.005,34.528,36.504,34.341,34.997,34.019 M24.441,28.911
					c-1.383-1.277-2.333-2.631-2.817-3.975c0.384-1.505,1.126-3.016,2.22-4.464c1.038-1.372,2.327-2.609,3.806-3.672
					c0.427,0.772,1.025,1.524,1.786,2.238c0.723,0.677,1.567,1.292,2.502,1.829c-0.258,0.489-0.511,0.986-0.755,1.49
					c-1.443,2.959-2.624,6.133-3.315,9.016C26.582,30.647,25.427,29.821,24.441,28.911 M40.731,13.785
					c1.851,1.377,3.547,3.154,4.966,5.234c0.269,0.395,0.522,0.796,0.764,1.2c-1.302,0.751-2.945,1.2-4.721,1.327
					C41.591,18.736,41.259,16.034,40.731,13.785 M37.504,21.241c-1.178-0.251-2.298-0.611-3.329-1.064
					c1.519-2.658,3.18-4.967,4.818-6.685c0.513,2.014,0.943,4.723,1.124,8.081C39.253,21.538,38.375,21.429,37.504,21.241
					 M30.548,17.85c-0.673-0.629-1.186-1.288-1.529-1.947c1.525-0.918,3.214-1.666,5.011-2.205c1.069-0.322,2.152-0.56,3.231-0.726
					c-1.558,1.747-3.115,3.966-4.542,6.471C31.906,18.971,31.174,18.438,30.548,17.85 M27.047,12.664
					c-0.021,0.082-0.045,0.167-0.064,0.251c-0.165,0.768-0.146,1.555,0.049,2.335c-1.752,1.208-3.276,2.637-4.487,4.243
					c-0.37,0.487-0.701,0.987-1,1.489C22.447,17.648,24.408,14.748,27.047,12.664 M28.575,13.255
					c0.18-0.845,0.687-1.599,1.474-2.224c1.899-0.568,4.109-0.43,6.433,0.419c-0.977,0.17-1.956,0.396-2.92,0.688
					c-1.796,0.539-3.49,1.275-5.042,2.171C28.486,13.953,28.501,13.599,28.575,13.255 M41.781,11.11
					c0.559-0.362,1.072-0.61,1.501-0.713c0.817,0.327,1.626,0.745,2.393,1.273C44.445,11.365,43.135,11.177,41.781,11.11
					 M39.038,9.367c0.661,0.074,1.365,0.188,2.088,0.356c-0.453,0.244-0.923,0.548-1.4,0.914
					C39.513,10.156,39.284,9.732,39.038,9.367 M37.273,10.006c-0.736-0.282-1.463-0.5-2.18-0.657c0.575-0.064,1.157-0.1,1.75-0.102
					c0.276,0.004,0.617,0.336,0.974,0.981C37.636,10.152,37.455,10.076,37.273,10.006 M19.365,25.12
					c0,1.662,0.239,3.271,0.675,4.797c0.026,0.104,0.05,0.205,0.08,0.309c0.006,0.018,0.015,0.035,0.022,0.055
					c2.208,7.139,8.87,12.34,16.723,12.34c3.633,0,7.011-1.113,9.811-3.016c0.028-0.016,0.057-0.029,0.082-0.047
					c0.167-0.113,0.328-0.232,0.484-0.357c3.22-2.379,5.598-5.832,6.598-9.828c0.056-0.186,0.106-0.371,0.146-0.561
					c0.009-0.045,0.013-0.09,0.016-0.133c0.236-1.15,0.363-2.34,0.363-3.559c0-2.361-0.463-4.653-1.375-6.811
					c-0.175-0.415-0.653-0.607-1.067-0.432c-0.414,0.173-0.607,0.652-0.433,1.065c0.828,1.955,1.248,4.034,1.248,6.178
					c0,1.312-0.164,2.588-0.467,3.811c-0.239,0.77-0.662,1.482-1.246,2.131c0.014-0.277,0.023-0.557,0.024-0.842
					c0.006-3.121-0.856-6.42-2.458-9.52c1.174-1.007,1.922-2.253,2.18-3.647c0.082-0.442-0.21-0.866-0.652-0.948
					c-0.443-0.083-0.868,0.21-0.949,0.653c-0.17,0.921-0.648,1.766-1.398,2.485c-0.232-0.385-0.475-0.766-0.73-1.144
					c-1.429-2.094-3.126-3.906-4.984-5.353c2.451,0.162,4.719,0.756,6.543,1.775c0.287,0.163,0.667,0.159,0.935-0.065
					c0.346-0.288,0.39-0.801,0.104-1.148c-2.623-3.667-7.159-5.69-12.775-5.69C27.217,7.62,19.365,15.47,19.365,25.12"/>
			</defs>
			<clipPath id="SVGID_2_">
				<use xlink:href="#SVGID_1_"  overflow="visible"/>
			</clipPath>
			
				<radialGradient id="SVGID_3_" cx="-222.8904" cy="-310.5283" r="0.4766" gradientTransform="matrix(60.7425 0 0 60.7427 13591.6963 18876.4883)" gradientUnits="userSpaceOnUse">
				<stop  offset="0" style="stop-color:#FFFFFF"/>
				<stop  offset="0.0816" style="stop-color:#EBEBEC"/>
				<stop  offset="0.2493" style="stop-color:#BFC1C3"/>
				<stop  offset="0.4867" style="stop-color:#7D7F82"/>
				<stop  offset="0.544" style="stop-color:#6D6E71"/>
				<stop  offset="1" style="stop-color:#000000"/>
			</radialGradient>
			<rect x="19.365" y="7.62" clip-path="url(#SVGID_2_)" fill="url(#SVGID_3_)" width="35" height="34.999"/>
		</g>
	</g>
</g>
</svg>
