<?xml version="1.0" encoding="utf-8"?>
<!-- Generator: Adobe Illustrator 16.0.0, SVG Export Plug-In . SVG Version: 6.00 Build 0)  -->
<!DOCTYPE svg PUBLIC "-//W3C//DTD SVG 1.1//EN" "http://www.w3.org/Graphics/SVG/1.1/DTD/svg11.dtd">
<svg version="1.1" id="Layer_1" xmlns="http://www.w3.org/2000/svg" xmlns:xlink="http://www.w3.org/1999/xlink" x="0px" y="0px"
	 width="247px" height="37px" viewBox="44.299 6.303 247 37" enable-background="new 44.299 6.303 247 37" xml:space="preserve">
<g>
	<g>
		<g>
			<path d="M90.08,20.685v1.9h-3.874v8.341h-2.325V20.685H90.08z"/>
			<path d="M91.312,20.823c0.714-0.122,1.717-0.214,3.13-0.214c1.428,0,2.446,0.275,3.129,0.822
				c0.653,0.516,1.094,1.365,1.094,2.371c0,1-0.334,1.852-0.941,2.43c-0.79,0.744-1.96,1.08-3.327,1.08
				c-0.304,0-0.578-0.018-0.79-0.047v3.66h-2.294L91.312,20.823L91.312,20.823z M93.606,25.471c0.197,0.047,0.44,0.061,0.774,0.061
				c1.23,0,1.99-0.622,1.99-1.67c0-0.943-0.654-1.504-1.807-1.504c-0.472,0-0.791,0.045-0.957,0.09V25.471z"/>
			<path d="M101.659,20.685l1.489,3.602c0.274,0.728,0.486,1.336,0.714,1.957h0.045c0.137-0.439,0.304-1.123,0.562-1.988
				l1.109-3.571h2.431l-1.914,4.967c-0.624,1.596-1.261,3.145-2.021,4.088c-0.668,0.834-1.52,1.354-2.72,1.354
				c-0.532,0-0.851-0.061-1.14-0.17l0.167-1.854c0.183,0.047,0.425,0.078,0.759,0.078c0.714,0,1.201-0.486,1.383-0.959
				c0.091-0.166,0.046-0.303-0.03-0.471l-3.449-7.034L101.659,20.685L101.659,20.685z"/>
			<path d="M117.219,20.685v10.239h-2.325v-8.34h-3.631v8.34h-2.325V20.685H117.219z"/>
			<path d="M127.505,20.685v10.239h-2.324v-8.34h-3.631v8.34h-2.324V20.685H127.505z"/>
			<path d="M131.899,28.297l-0.73,2.627h-2.4l3.13-10.239h3.038l3.175,10.239h-2.492l-0.79-2.627H131.899L131.899,28.297z
				 M134.498,26.565l-0.638-2.172c-0.183-0.608-0.365-1.367-0.518-1.975h-0.029c-0.153,0.607-0.304,1.383-0.472,1.975l-0.607,2.172
				H134.498z"/>
			<path d="M142.08,20.823c0.606-0.122,1.837-0.214,2.992-0.214c1.413,0,2.279,0.138,3.024,0.578c0.713,0.381,1.23,1.078,1.23,2.006
				c0,0.912-0.533,1.763-1.686,2.188v0.029c1.169,0.319,2.037,1.201,2.037,2.523c0,0.926-0.426,1.656-1.065,2.172
				c-0.745,0.594-1.99,0.928-4.026,0.928c-1.137,0-1.989-0.076-2.505-0.152L142.08,20.823L142.08,20.823z M144.374,24.74h0.759
				c1.216,0,1.869-0.5,1.869-1.261c0-0.774-0.594-1.185-1.642-1.185c-0.501,0-0.789,0.029-0.987,0.061L144.374,24.74L144.374,24.74z
				 M144.374,29.283c0.227,0.031,0.501,0.031,0.896,0.031c1.048,0,1.977-0.396,1.977-1.475c0-1.033-0.928-1.443-2.083-1.443h-0.789
				L144.374,29.283L144.374,29.283z"/>
			<path d="M158.717,30.637c-0.425,0.213-1.381,0.439-2.629,0.439c-3.541,0-5.364-2.201-5.364-5.121
				c0-3.493,2.491-5.437,5.591-5.437c1.201,0,2.113,0.243,2.523,0.455l-0.471,1.84c-0.474-0.199-1.125-0.381-1.946-0.381
				c-1.839,0-3.268,1.109-3.268,3.389c0,2.053,1.216,3.342,3.282,3.342c0.698,0,1.473-0.152,1.931-0.334L158.717,30.637z"/>
			<path d="M166.33,26.596h-3.767v2.432h4.208v1.896h-6.534V20.685h6.319v1.9h-3.994v2.126h3.767V26.596z"/>
			<path d="M177.01,27.006c-0.045-1.232-0.09-2.721-0.09-4.211h-0.045c-0.316,1.309-0.742,2.767-1.141,3.967l-1.244,3.996h-1.809
				l-1.094-3.965c-0.336-1.201-0.684-2.66-0.928-3.998h-0.029c-0.061,1.384-0.107,2.963-0.184,4.24l-0.182,3.889h-2.143
				l0.655-10.239h3.086l1,3.418c0.32,1.185,0.639,2.461,0.867,3.662h0.045c0.291-1.186,0.639-2.539,0.973-3.678l1.094-3.403h3.023
				l0.562,10.239h-2.264L177.01,27.006z"/>
			<path d="M183.334,20.685v3.039c0,1.642-0.029,3.267-0.121,4.634h0.061c0.531-1.199,1.217-2.552,1.824-3.646l2.203-4.026h2.369
				v10.239h-2.127v-3.023c0-1.58,0.031-2.978,0.168-4.314h-0.045c-0.473,1.216-1.125,2.568-1.732,3.646l-2.082,3.691h-2.643V20.685
				H183.334z"/>
			<path d="M191.692,20.823c0.713-0.122,1.717-0.214,3.131-0.214c1.426,0,2.443,0.275,3.129,0.822
				c0.652,0.516,1.092,1.365,1.092,2.371c0,1-0.332,1.852-0.939,2.43c-0.791,0.744-1.961,1.08-3.328,1.08
				c-0.305,0-0.576-0.018-0.791-0.047v3.66h-2.293V20.823L191.692,20.823z M193.985,25.471c0.199,0.047,0.441,0.061,0.777,0.061
				c1.229,0,1.99-0.622,1.99-1.67c0-0.943-0.654-1.504-1.809-1.504c-0.473,0-0.789,0.045-0.959,0.09V25.471L193.985,25.471z"/>
			<path d="M202.846,20.685v3.934h3.811v-3.934h2.311v10.239h-2.311v-4.283h-3.811v4.283h-2.326V20.685H202.846z"/>
			<path d="M220.366,25.698c0,3.358-2.039,5.396-5.031,5.396c-3.037,0-4.814-2.297-4.814-5.213c0-3.068,1.959-5.363,4.982-5.363
				C218.647,20.518,220.366,22.873,220.366,25.698z M212.965,25.834c0,2.006,0.941,3.42,2.492,3.42c1.564,0,2.461-1.49,2.461-3.48
				c0-1.838-0.881-3.418-2.477-3.418C213.877,22.356,212.965,23.845,212.965,25.834z"/>
			<path d="M228.084,20.685v1.9h-3.875v8.341h-2.324V20.685H228.084z"/>
			<path d="M238.188,25.698c0,3.358-2.035,5.396-5.029,5.396c-3.039,0-4.816-2.297-4.816-5.213c0-3.068,1.959-5.363,4.982-5.363
				C236.471,20.518,238.188,22.873,238.188,25.698z M230.79,25.834c0,2.006,0.941,3.42,2.49,3.42c1.564,0,2.463-1.49,2.463-3.48
				c0-1.838-0.883-3.418-2.479-3.418C231.7,22.356,230.79,23.845,230.79,25.834z"/>
			<path d="M249.586,20.685v1.883h-4.498v1.763c0.35-0.046,0.836-0.076,1.244-0.076c1.035,0,2.113,0.259,2.889,0.835
				c0.715,0.517,1.186,1.322,1.186,2.447c0,1.004-0.383,1.777-0.973,2.309c-0.986,0.881-2.6,1.186-4.162,1.186
				c-1.141,0-1.977-0.076-2.492-0.152V20.685H249.586z M245.073,29.239c0.26,0.045,0.576,0.061,0.896,0.061
				c0.564,0,1.125-0.182,1.504-0.531c0.303-0.273,0.502-0.684,0.502-1.186c0-0.516-0.211-0.896-0.547-1.154
				c-0.41-0.318-0.988-0.456-1.535-0.456c-0.256,0-0.531,0.016-0.818,0.061v3.206H245.073z"/>
			<path d="M254.19,28.297l-0.727,2.627h-2.4l3.127-10.239h3.039l3.176,10.239h-2.492l-0.789-2.627H254.19L254.19,28.297z
				 M256.79,26.565l-0.639-2.172c-0.182-0.608-0.365-1.367-0.518-1.975h-0.029c-0.152,0.607-0.303,1.383-0.471,1.975l-0.607,2.172
				H256.79z"/>
			<path d="M264.096,20.685v3.934h3.816v-3.934h2.307v10.239h-2.307v-4.283h-3.816v4.283h-2.322V20.685H264.096z"/>
			<path d="M274.538,20.685v4.254h0.199l2.822-4.254h2.814l-3.57,4.542c1.32,0.335,1.914,1.248,2.338,2.479
				c0.365,1.092,0.701,2.201,1.186,3.219h-2.492c-0.35-0.697-0.545-1.488-0.789-2.248c-0.35-1.154-0.82-2.035-2.066-2.035h-0.441
				v4.283h-2.293V20.685H274.538z"/>
			<path d="M284.002,28.297l-0.729,2.627h-2.4l3.129-10.239h3.039l3.176,10.239h-2.49l-0.791-2.627H284.002L284.002,28.297z
				 M286.602,26.565l-0.639-2.172c-0.182-0.608-0.363-1.367-0.514-1.975h-0.031c-0.152,0.607-0.305,1.383-0.473,1.975l-0.607,2.172
				H286.602z"/>
		</g>
	</g>
	<g>
		<g>
			<defs>
				<path id="SVGID_1_" d="M65.745,36.922c2.299-0.027,4.48-0.363,6.41-1.014c0.486-0.162,0.95-0.342,1.389-0.539
					c-0.536,1.311-1.327,2.406-2.353,3.219c-2.029,1.494-4.424,2.52-7.022,2.91C64.82,40.373,65.344,38.787,65.745,36.922
					 M54.932,40.112c-0.049-0.041-0.102-0.076-0.159-0.105c-0.904-0.441-1.269-2.455-0.798-5.539c1.737,0.781,3.63,1.4,5.618,1.826
					c1.507,0.32,3.008,0.52,4.476,0.598c-0.721,3.129-1.643,4.771-2.253,4.771c-0.041,0-0.078,0.006-0.114,0.012
					C59.277,41.658,56.982,41.1,54.932,40.112 M46.538,30.147c-0.14-0.529-0.227-1.068-0.262-1.617
					c0.544,0.775,1.207,1.531,1.995,2.26c1.19,1.1,2.605,2.084,4.18,2.93c-0.32,1.799-0.412,3.43-0.208,4.744
					C49.525,36.408,47.495,33.504,46.538,30.147 M66.771,25.776c0-0.637-0.01-1.274-0.027-1.911c2.023-0.134,3.899-0.66,5.435-1.543
					c1.422,2.812,2.184,5.778,2.178,8.579c-0.001,0.811-0.071,1.582-0.2,2.311c-0.73,0.447-1.572,0.836-2.519,1.154
					c-1.682,0.566-3.576,0.875-5.582,0.928C66.539,32.399,66.771,29.041,66.771,25.776 M59.932,34.701
					c-2.017-0.432-3.922-1.072-5.646-1.883c0.566-2.549,1.621-5.637,3.294-9.064c0.24-0.496,0.489-0.984,0.743-1.463
					c1.169,0.523,2.44,0.94,3.774,1.226c1.013,0.218,2.026,0.336,3.02,0.369c0.017,0.61,0.026,1.24,0.026,1.89
					c0,3.832-0.306,7.014-0.748,9.5C62.939,35.213,61.439,35.024,59.932,34.701 M49.375,29.594
					c-1.382-1.277-2.333-2.631-2.817-3.975c0.384-1.506,1.125-3.016,2.22-4.464c1.038-1.373,2.327-2.61,3.806-3.672
					c0.427,0.772,1.025,1.523,1.785,2.238c0.724,0.677,1.567,1.292,2.503,1.83c-0.259,0.489-0.511,0.986-0.756,1.489
					c-1.443,2.959-2.623,6.134-3.315,9.015C51.517,31.33,50.361,30.506,49.375,29.594 M65.666,14.469
					c1.85,1.376,3.548,3.154,4.966,5.233c0.269,0.394,0.522,0.795,0.764,1.2c-1.302,0.75-2.945,1.2-4.72,1.326
					C66.526,19.42,66.192,16.717,65.666,14.469 M62.438,21.924c-1.178-0.25-2.297-0.611-3.328-1.064
					c1.519-2.657,3.18-4.967,4.818-6.685c0.512,2.015,0.942,4.724,1.124,8.081C64.188,22.221,63.31,22.112,62.438,21.924
					 M55.482,18.533c-0.674-0.63-1.185-1.288-1.529-1.947c1.525-0.918,3.214-1.666,5.011-2.205c1.069-0.323,2.152-0.56,3.232-0.726
					c-1.559,1.747-3.115,3.965-4.542,6.471C56.841,19.654,56.108,19.12,55.482,18.533 M51.981,13.347
					c-0.021,0.082-0.046,0.167-0.063,0.251c-0.165,0.768-0.146,1.555,0.048,2.335c-1.752,1.208-3.275,2.637-4.487,4.242
					c-0.37,0.488-0.702,0.987-1,1.489C47.381,18.331,49.342,15.431,51.981,13.347 M53.509,13.939
					c0.181-0.845,0.688-1.599,1.474-2.225c1.899-0.567,4.11-0.43,6.433,0.42c-0.977,0.169-1.955,0.396-2.92,0.687
					c-1.795,0.539-3.49,1.275-5.041,2.171C53.42,14.635,53.436,14.283,53.509,13.939 M66.715,11.794
					c0.559-0.362,1.072-0.61,1.502-0.713c0.816,0.327,1.625,0.745,2.393,1.273C69.379,12.048,68.07,11.86,66.715,11.794
					 M63.972,10.05c0.662,0.074,1.366,0.188,2.088,0.356c-0.453,0.244-0.924,0.549-1.401,0.913
					C64.448,10.84,64.218,10.415,63.972,10.05 M62.208,10.69c-0.736-0.282-1.463-0.5-2.18-0.657
					c0.574-0.063,1.157-0.101,1.749-0.102c0.277,0.005,0.618,0.336,0.974,0.981C62.571,10.836,62.39,10.759,62.208,10.69
					 M44.299,25.803c0,1.664,0.24,3.271,0.676,4.797c0.026,0.104,0.05,0.205,0.08,0.309c0.006,0.018,0.015,0.035,0.021,0.055
					c2.208,7.139,8.87,12.338,16.723,12.338c3.633,0,7.01-1.113,9.81-3.016c0.027-0.014,0.056-0.029,0.082-0.047
					c0.166-0.111,0.327-0.232,0.483-0.355c3.22-2.379,5.597-5.832,6.598-9.83c0.056-0.184,0.105-0.371,0.147-0.559
					c0.009-0.047,0.012-0.09,0.015-0.135c0.238-1.148,0.363-2.34,0.363-3.557c0-2.361-0.463-4.653-1.375-6.811
					c-0.174-0.415-0.653-0.608-1.066-0.432c-0.415,0.172-0.608,0.652-0.433,1.064c0.828,1.956,1.248,4.034,1.248,6.177
					c0,1.313-0.164,2.589-0.467,3.812c-0.239,0.77-0.662,1.482-1.246,2.129c0.015-0.275,0.023-0.555,0.025-0.84
					c0.006-3.123-0.857-6.42-2.459-9.521c1.175-1.007,1.923-2.253,2.181-3.647c0.082-0.442-0.21-0.866-0.652-0.947
					c-0.442-0.084-0.868,0.209-0.948,0.652c-0.17,0.921-0.648,1.766-1.397,2.485c-0.233-0.385-0.475-0.767-0.731-1.143
					c-1.428-2.094-3.126-3.906-4.984-5.352c2.452,0.162,4.72,0.756,6.544,1.775c0.286,0.163,0.667,0.159,0.934-0.065
					c0.346-0.288,0.391-0.801,0.104-1.148c-2.623-3.669-7.158-5.691-12.773-5.691C52.151,8.304,44.299,16.155,44.299,25.803"/>
			</defs>
			<clipPath id="SVGID_2_">
				<use xlink:href="#SVGID_1_"  overflow="visible"/>
			</clipPath>
			
				<radialGradient id="SVGID_3_" cx="-39.6069" cy="-311.2336" r="0.4797" gradientTransform="matrix(60.7425 0 0 60.7427 2483.5654 18920.0039)" gradientUnits="userSpaceOnUse">
				<stop  offset="0" style="stop-color:#FFFFFF"/>
				<stop  offset="0.0816" style="stop-color:#EBEBEC"/>
				<stop  offset="0.2493" style="stop-color:#BFC1C3"/>
				<stop  offset="0.4867" style="stop-color:#7D7F82"/>
				<stop  offset="0.544" style="stop-color:#6D6E71"/>
				<stop  offset="1" style="stop-color:#000000"/>
			</radialGradient>
			<rect x="44.299" y="8.304" clip-path="url(#SVGID_2_)" fill="url(#SVGID_3_)" width="35" height="34.999"/>
		</g>
	</g>
</g>
</svg>
