<?xml version="1.0" encoding="utf-8"?>
<!-- Generator: Adobe Illustrator 16.0.0, SVG Export Plug-In . SVG Version: 6.00 Build 0)  -->
<!DOCTYPE svg PUBLIC "-//W3C//DTD SVG 1.1//EN" "http://www.w3.org/Graphics/SVG/1.1/DTD/svg11.dtd">
<svg version="1.1" id="Layer_1" xmlns="http://www.w3.org/2000/svg" xmlns:xlink="http://www.w3.org/1999/xlink" x="0px" y="0px"
	 width="117px" height="36px" viewBox="0 0 117 36" enable-background="new 0 0 117 36" xml:space="preserve">
<g>
	<g>
		<g>
			<g>
				<g>
					<defs>
						<path id="SVGID_1_" d="M103.445,28.622c2.3-0.028,4.479-0.364,6.41-1.016c0.484-0.162,0.947-0.344,1.39-0.541
							c-0.537,1.312-1.326,2.406-2.354,3.222c-2.025,1.493-4.422,2.521-7.021,2.909C102.52,32.073,103.046,30.485,103.445,28.622
							 M92.63,31.81c-0.047-0.039-0.101-0.076-0.156-0.104c-0.905-0.438-1.271-2.456-0.798-5.538
							c1.737,0.782,3.628,1.398,5.616,1.824c1.506,0.322,3.009,0.521,4.478,0.599c-0.72,3.129-1.644,4.771-2.255,4.771
							c-0.038,0-0.077,0.007-0.112,0.012C96.979,33.354,94.682,32.799,92.63,31.81 M84.236,21.847
							c-0.14-0.529-0.227-1.068-0.263-1.615c0.544,0.771,1.205,1.528,1.995,2.259c1.189,1.1,2.604,2.084,4.18,2.929
							c-0.322,1.801-0.412,3.432-0.209,4.746C87.227,28.108,85.193,25.202,84.236,21.847 M104.47,17.475
							c0-0.637-0.008-1.274-0.026-1.91c2.024-0.135,3.899-0.661,5.436-1.543c1.422,2.812,2.186,5.777,2.18,8.579
							c-0.003,0.812-0.072,1.584-0.201,2.312c-0.729,0.446-1.569,0.837-2.52,1.155c-1.68,0.562-3.574,0.873-5.582,0.926
							C104.236,24.099,104.47,20.739,104.47,17.475 M97.632,26.401c-2.019-0.434-3.922-1.072-5.646-1.885
							c0.565-2.547,1.619-5.635,3.293-9.062c0.242-0.496,0.49-0.983,0.742-1.463c1.17,0.524,2.44,0.938,3.774,1.228
							c1.015,0.217,2.024,0.334,3.021,0.368c0.02,0.609,0.026,1.24,0.026,1.89c0,3.833-0.31,7.015-0.749,9.499
							C100.639,26.911,99.14,26.724,97.632,26.401 M87.074,21.293c-1.381-1.276-2.332-2.631-2.813-3.974
							c0.382-1.507,1.125-3.017,2.218-4.464c1.037-1.375,2.326-2.61,3.809-3.672c0.426,0.771,1.023,1.523,1.785,2.237
							c0.725,0.678,1.564,1.292,2.502,1.83c-0.258,0.488-0.51,0.985-0.756,1.49c-1.443,2.959-2.623,6.134-3.314,9.015
							C89.218,23.028,88.061,22.203,87.074,21.293 M103.363,6.167c1.853,1.377,3.55,3.154,4.968,5.233
							c0.269,0.395,0.522,0.795,0.765,1.2c-1.302,0.752-2.943,1.201-4.72,1.328C104.225,11.118,103.895,8.416,103.363,6.167
							 M100.14,13.624c-1.182-0.251-2.299-0.612-3.329-1.065c1.52-2.656,3.182-4.966,4.817-6.685
							c0.513,2.015,0.94,4.723,1.121,8.081C101.889,13.92,101.011,13.811,100.14,13.624 M93.184,10.233
							c-0.674-0.631-1.187-1.288-1.529-1.948c1.525-0.917,3.215-1.666,5.012-2.205c1.068-0.322,2.152-0.56,3.23-0.726
							c-1.558,1.747-3.113,3.965-4.541,6.471C94.542,11.353,93.811,10.82,93.184,10.233 M89.684,5.046
							c-0.021,0.083-0.047,0.167-0.062,0.252c-0.166,0.768-0.146,1.555,0.047,2.334c-1.75,1.208-3.275,2.637-4.487,4.242
							c-0.368,0.489-0.698,0.987-0.999,1.489C85.081,10.03,87.042,7.131,89.684,5.046 M91.208,5.637
							c0.182-0.845,0.688-1.6,1.476-2.224c1.897-0.567,4.108-0.431,6.434,0.42c-0.979,0.17-1.955,0.396-2.92,0.687
							c-1.797,0.539-3.488,1.276-5.039,2.171C91.12,6.335,91.137,5.982,91.208,5.637 M104.415,3.493
							c0.559-0.362,1.069-0.61,1.5-0.712c0.817,0.327,1.627,0.745,2.396,1.273C107.081,3.747,105.77,3.559,104.415,3.493
							 M101.673,1.75c0.66,0.074,1.365,0.187,2.089,0.356c-0.454,0.243-0.925,0.549-1.4,0.913
							C102.148,2.539,101.919,2.115,101.673,1.75 M99.908,2.389c-0.735-0.282-1.465-0.5-2.184-0.657
							c0.576-0.064,1.159-0.101,1.752-0.102c0.275,0.004,0.615,0.336,0.973,0.981C100.271,2.535,100.091,2.459,99.908,2.389
							 M82.001,17.502c0,1.664,0.235,3.271,0.674,4.799c0.024,0.103,0.05,0.203,0.08,0.308c0.007,0.02,0.017,0.037,0.022,0.057
							c2.205,7.139,8.867,12.338,16.722,12.338c3.633,0,7.011-1.113,9.812-3.016c0.028-0.016,0.057-0.03,0.082-0.047
							c0.168-0.113,0.326-0.232,0.481-0.356c3.221-2.379,5.601-5.833,6.601-9.83c0.059-0.185,0.104-0.37,0.146-0.56
							c0.012-0.047,0.015-0.09,0.016-0.135c0.236-1.147,0.363-2.341,0.363-3.558c0-2.361-0.463-4.654-1.375-6.811
							c-0.174-0.415-0.652-0.608-1.066-0.433c-0.414,0.173-0.604,0.652-0.434,1.065c0.828,1.955,1.248,4.034,1.248,6.178
							c0,1.312-0.162,2.589-0.467,3.811c-0.238,0.771-0.662,1.483-1.246,2.131c0.015-0.275,0.023-0.556,0.023-0.84
							c0.006-3.123-0.855-6.42-2.459-9.521c1.174-1.009,1.924-2.254,2.182-3.648c0.08-0.442-0.211-0.866-0.654-0.948
							c-0.441-0.083-0.865,0.21-0.947,0.652c-0.169,0.922-0.648,1.767-1.396,2.486c-0.23-0.386-0.475-0.767-0.729-1.143
							c-1.43-2.094-3.125-3.906-4.983-5.352c2.453,0.161,4.721,0.755,6.545,1.775c0.285,0.163,0.668,0.158,0.934-0.065
							c0.35-0.288,0.393-0.802,0.104-1.147C109.656,2.022,105.121,0,99.504,0C89.852,0.003,82.001,7.853,82.001,17.502"/>
					</defs>
					<clipPath id="SVGID_2_">
						<use xlink:href="#SVGID_1_"  overflow="visible"/>
					</clipPath>
					
						<radialGradient id="SVGID_3_" cx="-326.5718" cy="-306.2339" r="0.477" gradientTransform="matrix(60.7425 0 0 60.7427 19952.2188 18607.9688)" gradientUnits="userSpaceOnUse">
						<stop  offset="0" style="stop-color:#FFFFFF"/>
						<stop  offset="0.0598" style="stop-color:#E8F6FE"/>
						<stop  offset="0.1829" style="stop-color:#B1E3FA"/>
						<stop  offset="0.3589" style="stop-color:#3EC7F3"/>
						<stop  offset="0.544" style="stop-color:#2BACE2"/>
						<stop  offset="1" style="stop-color:#113154"/>
					</radialGradient>
					<rect x="82.001" y="0.003" clip-path="url(#SVGID_2_)" fill="url(#SVGID_3_)" width="34.998" height="34.999"/>
				</g>
			</g>
		</g>
	</g>
	<g>
		<path fill="#113154" d="M30.743,16.102c-0.623,0-1.133,0.357-1.52,1.062c-0.309,0.566-0.465,1.188-0.465,1.848
			c0,0.771,0.272,1.335,0.81,1.681c0.353,0.227,0.82,0.36,1.427,0.41c-0.316,0.412-0.571,0.723-0.762,0.93
			c-0.491,0.537-0.982,0.949-1.46,1.223c-0.607,0.346-1.259,0.521-1.937,0.521c-0.269,0-0.582-0.043-0.929-0.123l-1.271-0.297
			l-0.387,0.795l0.298,0.102c0.388,0.131,0.775,0.266,1.17,0.405c0.513,0.168,0.913,0.282,1.223,0.351
			c0.436,0.092,0.866,0.139,1.279,0.139c1.153,0,2.177-0.586,3.043-1.744c0.764-1.021,1.15-2.066,1.15-3.111v-1.027
			c0-0.888-0.094-1.564-0.287-2.075C31.786,16.291,31.187,16.102,30.743,16.102z M30.416,18.839
			c-0.178-0.104-0.257-0.234-0.257-0.431c0-0.089,0.028-0.154,0.091-0.212c0.072-0.063,0.15-0.096,0.25-0.096
			c0.153,0,0.271,0.061,0.38,0.188c0.086,0.104,0.207,0.312,0.328,0.729C30.769,18.99,30.537,18.91,30.416,18.839z"/>
		<path fill="#113154" d="M19.109,21.485c-0.139-0.068-0.355-0.121-0.686-0.162c-0.486-0.055-0.804-0.086-0.952-0.102
			c-0.15-0.012-0.351-0.018-0.607-0.018c-0.112,0-0.204-0.004-0.278-0.01c0.048-0.008,0.104-0.017,0.168-0.021
			c0.452-0.047,1.142-0.07,2.051-0.07h5.658l-0.003-2.078l-0.994-6.595l0.251,0.084l0.097-0.244
			c0.074-0.184,0.135-0.455,0.189-0.828c0.048-0.349,0.073-0.686,0.073-1v-0.19l-0.339-0.133c-0.249-0.098-0.497-0.195-0.732-0.29
			c-0.372-0.167-0.419-0.37-0.419-0.529v-0.14l-0.533-0.388l-0.137,0.323c-0.147,0.352-0.262,0.725-0.34,1.109
			c-0.075,0.38-0.112,0.789-0.112,1.216v0.174l0.49,0.237l1.004,7.155h-4.155c-0.527,0-1.037,0.072-1.52,0.219
			c-0.647,0.199-1.173,0.511-1.568,0.931c-0.483,0.522-0.729,1.199-0.729,2.013c0,0.297,0.13,0.53,0.376,0.682
			c0.208,0.127,0.52,0.189,0.952,0.189c0.105,0,0.325,0.01,0.662,0.028c0.337,0.019,0.585,0.04,0.776,0.062
			c0.228,0,0.302,0.035,0.306,0.026c0,0.002-0.058,0.207-0.981,0.394c-0.63,0.129-1.373,0.193-2.209,0.193
			c-1.225,0-2.196-0.177-2.886-0.521c-0.67-0.334-0.997-0.803-0.997-1.434c0-0.371,0.163-0.873,0.475-1.478l0.823-1.412
			l-0.847-0.426l-0.135,0.211c-0.599,0.938-0.959,1.54-1.102,1.832c-0.401,0.813-0.604,1.599-0.604,2.332
			c0,0.966,0.456,1.717,1.354,2.233c0.668,0.385,1.529,0.607,2.569,0.674l-1.023,1.035l1.521,0.931l0.737-0.694l1.099,0.696
			l1.247-1.151l-1.283-0.884c1.075-0.127,1.894-0.392,2.48-0.798c0.813-0.562,1.225-1.463,1.225-2.672
			C19.523,21.877,19.377,21.623,19.109,21.485z M14.85,26.283l-0.759-0.527c0.466,0.006,0.906-0.014,1.309-0.046L14.85,26.283z"/>
		<path fill="#113154" d="M44.954,12.609c-0.146-1.188-0.267-2.124-0.363-2.807l-0.122-0.869l-0.837,1.646
			c-0.153,0.309-0.291,0.596-0.411,0.862l-0.034,0.071l0.01,0.079c0.102,0.767,0.195,1.514,0.278,2.25
			c0.137,1.214,0.255,2.377,0.354,3.491c0.097,1.104,0.146,1.976,0.146,2.586c0,0.076-0.009,0.224-0.021,0.438
			c-0.017,0.226-0.031,0.422-0.05,0.594l-0.017,0.181l0.558,0.312l0.139-0.237c0.311-0.537,0.508-0.925,0.603-1.179
			c0.187-0.481,0.278-0.984,0.278-1.492c0-0.62-0.055-1.532-0.163-2.71C45.221,14.885,45.103,13.803,44.954,12.609z"/>
		<path fill="#113154" d="M41.433,12.428l0.254,0.085l0.098-0.246c0.071-0.186,0.133-0.456,0.187-0.826
			c0.048-0.35,0.073-0.686,0.073-1v-0.189l-0.324-0.127c-0.254-0.1-0.506-0.199-0.748-0.296c-0.373-0.167-0.42-0.369-0.42-0.528
			V9.16l-0.529-0.39l-0.137,0.324c-0.149,0.353-0.264,0.726-0.34,1.108c-0.076,0.378-0.114,0.788-0.114,1.217v0.175l0.491,0.237
			l1.004,7.154h-2.309c-0.021-1.354-0.203-2.479-0.539-3.345c-0.455-1.174-1.24-2.044-2.336-2.583l-0.367-0.181l-0.184,2.371
			l0.21,0.065c0.798,0.248,1.351,0.731,1.689,1.478c0.256,0.555,0.397,1.292,0.42,2.193h-3.194c-0.197,0-0.349-0.031-0.445-0.094
			c-0.113-0.07-0.191-0.189-0.238-0.365l-0.055-0.207h-0.625l-0.06,0.197c-0.071,0.231-0.119,0.454-0.144,0.654
			c-0.026,0.195-0.041,0.415-0.041,0.654c0,0.25,0.093,0.611,0.523,0.926c0.32,0.23,0.686,0.352,1.084,0.352h8.11l-0.003-2.078
			L41.433,12.428z"/>
		<path fill="#113154" d="M73.689,12.429l0.25,0.084l0.098-0.244c0.074-0.188,0.137-0.459,0.188-0.828
			c0.051-0.358,0.073-0.685,0.073-1l-0.062-0.213l-0.176-0.069c-0.283-0.111-0.563-0.222-0.834-0.33
			c-0.373-0.167-0.421-0.369-0.421-0.528V9.16l-0.528-0.39l-0.139,0.324C71.99,9.45,71.875,9.823,71.8,10.202
			c-0.076,0.378-0.114,0.788-0.114,1.217v0.175l0.491,0.237l1.004,7.154h-2.306v-0.352c0-1.106-0.084-1.887-0.26-2.384
			c-0.117-0.338-0.396-0.78-0.853-1.355l-0.274-0.349l-0.976,2.034l0.13,0.138c0.528,0.573,0.725,0.881,0.795,1.041
			c0.127,0.285,0.202,0.697,0.223,1.227h-3.277v-0.352c0-1.105-0.084-1.887-0.258-2.385c-0.121-0.34-0.398-0.781-0.854-1.355
			l-0.274-0.347l-0.976,2.034l0.129,0.138c0.528,0.572,0.726,0.881,0.795,1.039c0.129,0.289,0.205,0.699,0.224,1.228h-3.284
			l-0.988-6.558l0.256,0.086l0.096-0.25c0.078-0.208,0.152-0.492,0.224-0.842c0.073-0.357,0.108-0.688,0.108-0.98v-0.193
			l-1.145-0.423c-0.424-0.171-0.474-0.381-0.474-0.525v-0.14l-0.533-0.388l-0.137,0.323c-0.149,0.358-0.267,0.732-0.341,1.108
			c-0.075,0.378-0.112,0.787-0.112,1.217v0.175l0.492,0.236l1.055,7.153h-5.399c-0.955,0-1.686-0.094-2.166-0.277
			c-0.584-0.223-0.854-0.577-0.854-1.114c0-0.207,0.027-0.427,0.086-0.652c0.058-0.23,0.187-0.578,0.386-1.033l0.1-0.227
			l-0.773-0.455l-0.133,0.266c-0.256,0.51-0.422,0.86-0.502,1.049c-0.293,0.699-0.443,1.341-0.443,1.904
			c0,0.984,0.374,1.693,1.109,2.109c0.654,0.367,1.699,0.547,3.189,0.547h19.699l-0.004-2.078L73.689,12.429z"/>
		<path fill="#113154" d="M54.556,17.512c0.458,0.105,0.888,0.159,1.275,0.159c0.854,0,1.532-0.202,2.018-0.602
			c0.503-0.413,0.759-0.997,0.759-1.731c0-0.475-0.082-0.81-0.248-1.024c-0.182-0.232-0.467-0.347-0.91-0.347l-0.492,0.063
			c-0.07,0.011-0.151,0.015-0.244,0.015c-0.086,0-0.157-0.014-0.198-0.011c0-0.069,0-0.279,0.401-0.516
			c0.205-0.12,0.504-0.234,0.887-0.341l0.176-0.047l0.26-1.802l-0.428,0.145c-0.629,0.211-1.229,0.694-1.781,1.435
			c-0.565,0.758-0.842,1.403-0.842,1.972c0,0.347,0.146,0.527,0.271,0.617c0.151,0.113,0.358,0.147,0.565,0.171l0.623-0.044
			c0.08-0.004,0.197-0.008,0.346-0.008c0.07,0,0.125,0.021,0.179,0.065c0.048,0.041,0.058,0.076,0.058,0.113
			c0,0.145-0.205,0.312-0.566,0.457c-0.459,0.188-1.021,0.281-1.67,0.281c-0.111,0-0.396-0.021-0.855-0.062
			c-0.213-0.019-0.396-0.027-0.545-0.027h-0.133l-0.494,0.609l0.391,0.12C53.898,17.344,54.292,17.453,54.556,17.512z"/>
		<polygon fill="#113154" points="65.764,12.397 63.794,11.389 62.878,13.184 64.822,14.192 		"/>
		<polygon fill="#113154" points="67.154,23.676 69.097,24.685 70.061,22.892 68.068,21.872 		"/>
		<path fill="#113154" d="M77.559,15.824c-0.082-0.946-0.199-2.029-0.347-3.216c-0.146-1.188-0.269-2.124-0.365-2.807L76.725,8.93
			l-0.396,0.784c-0.139,0.27-0.285,0.559-0.438,0.864c-0.153,0.309-0.291,0.597-0.413,0.863l-0.031,0.071l0.011,0.079
			c0.103,0.767,0.192,1.515,0.278,2.25c0.136,1.214,0.254,2.377,0.354,3.491c0.098,1.104,0.146,1.976,0.146,2.586
			c0,0.075-0.008,0.224-0.021,0.44c-0.016,0.225-0.03,0.42-0.049,0.591l-0.02,0.182l0.562,0.312l0.137-0.237
			c0.311-0.539,0.508-0.927,0.602-1.179c0.187-0.48,0.279-0.983,0.279-1.492C77.723,17.928,77.667,17.016,77.559,15.824z"/>
	</g>
</g>
</svg>
