<?xml version="1.0" encoding="utf-8"?>
<!-- Generator: Adobe Illustrator 16.0.0, SVG Export Plug-In . SVG Version: 6.00 Build 0)  -->
<!DOCTYPE svg PUBLIC "-//W3C//DTD SVG 1.1//EN" "http://www.w3.org/Graphics/SVG/1.1/DTD/svg11.dtd">
<svg version="1.1" id="Layer_1" xmlns="http://www.w3.org/2000/svg" xmlns:xlink="http://www.w3.org/1999/xlink" x="0px" y="0px"
	 width="210px" height="37px" viewBox="37.573 6.258 210 37" enable-background="new 37.573 6.258 210 37" xml:space="preserve">
<g>
	<g>
		<path d="M85.939,27.404c0,1.678-1.141,3.648-3.957,3.648c-2.862,0-4.656-1.811-4.656-5.182c0-3.357,1.75-5.209,4.626-5.209
			c3.444,0,3.94,3.065,3.94,3.588l-2.175,0.338c0,0-0.013-1.854-1.749-1.854c-1.302,0-2.204,1.006-2.204,3.137
			c0,2.146,1.005,3.109,2.275,3.109c1.298,0,1.708-0.818,1.708-1.576v-0.104h-2.159v-1.723h4.35V27.404z"/>
		<path d="M96.187,30.922c0,0-0.38,0.117-1.182,0.117c-3.257,0-2.265-3.738-4.365-3.738h-0.774v3.664h-2.348V20.75h3.721
			c2.626,0,3.998,0.934,3.998,3.283c0,1.504-1.004,2.291-1.678,2.582c0.921,0.922,0.921,2.512,2.191,2.512h0.438V30.922z
			 M90.974,25.537c1.141,0,1.959-0.496,1.959-1.43c0-0.936-0.673-1.489-1.798-1.489h-1.27v2.919H90.974z"/>
		<path d="M102.83,20.75h2.349v5.982c0,3.256-1.824,4.32-4.011,4.32c-2.178,0-4.06-1.064-4.046-4.32l0.015-5.982h2.349v6.158
			c0,1.123,0.396,2.043,1.682,2.043c1.282,0,1.663-0.918,1.663-2.043L102.83,20.75L102.83,20.75z"/>
		<path d="M107.065,30.965V20.75h3.666c2.539,0,4.13,1.152,4.13,3.574c0,2.396-1.74,3.475-3.812,3.475h-1.633v3.166H107.065z
			 M110.627,25.945c1.209,0,1.869-0.557,1.869-1.621c0-0.993-0.615-1.707-1.956-1.707h-1.124v3.328H110.627L110.627,25.945z"/>
		<path d="M115.707,25.871c0-3.475,2.059-5.209,4.64-5.209c2.601,0,4.659,1.737,4.659,5.209c0,3.475-2.075,5.182-4.659,5.182
			C117.78,31.052,115.707,29.345,115.707,25.871z M122.567,25.871c0-2.334-1.005-3.137-2.22-3.137c-1.195,0-2.204,0.803-2.204,3.137
			c0,2.32,0.993,3.168,2.204,3.168C121.575,29.039,122.567,28.191,122.567,25.871z"/>
		<path d="M130.32,30.965V20.75h4.101c2.088,0,3.314,0.787,3.314,2.728c0,1.78-1.095,2.059-1.62,2.059v0.027
			c0.687,0,2.304,0.629,2.304,2.512c0,2.145-1.633,2.889-3.515,2.889H130.32z M133.982,24.892c0.98,0,1.328-0.422,1.328-1.137
			c0-0.73-0.48-1.138-1.547-1.138h-1.092v2.274H133.982z M134.259,29.097c0.935,0,1.505-0.322,1.505-1.285
			c0-0.918-0.658-1.285-1.562-1.285h-1.53v2.57H134.259L134.259,29.097z"/>
		<path d="M145.384,28.541h-3.402l-0.786,2.424h-2.468l3.753-10.214h2.422l3.736,10.214h-2.452L145.384,28.541z M142.569,26.791
			h2.246l-1.121-3.327L142.569,26.791z"/>
		<path d="M155.43,30.965l-3.402-5.822v5.822h-2.349V20.75h2.393l3.402,6.07v-6.07h2.349v10.214H155.43z"/>
		<path d="M168.027,29.082c0,0-1.108,1.971-3.779,1.971c-2.918,0-4.89-1.811-4.89-5.182c0-3.357,1.736-5.209,4.613-5.209
			c3.733,0,4.056,3.079,4.056,3.708l-2.174,0.352c0,0-0.016-1.986-1.854-1.986c-1.298,0-2.22,1.006-2.22,3.137
			c0,2.146,1.241,3.109,2.585,3.109c1.4,0,2.306-1.314,2.306-1.314L168.027,29.082z"/>
		<path d="M168.977,25.871c0-3.475,2.059-5.209,4.644-5.209c2.597,0,4.653,1.737,4.653,5.209c0,3.475-2.073,5.182-4.653,5.182
			C171.049,31.052,168.977,29.345,168.977,25.871z M175.836,25.871c0-2.334-1.004-3.137-2.216-3.137
			c-1.199,0-2.203,0.803-2.203,3.137c0,2.32,0.992,3.168,2.203,3.168C174.845,29.039,175.836,28.191,175.836,25.871z"/>
		<path d="M185.256,25.508v5.457h-2.352V20.75h2.381l2.873,6.025l3.023-6.025h2.232v10.214h-2.348l0.057-5.736l-2.232,4.496h-1.578
			L185.256,25.508z"/>
		<path d="M201.035,20.75h2.35v5.982c0,3.256-1.822,4.32-4.014,4.32c-2.172,0-4.057-1.064-4.041-4.32l0.014-5.982h2.35v6.158
			c0,1.123,0.396,2.043,1.678,2.043c1.285,0,1.664-0.918,1.664-2.043V20.75L201.035,20.75z"/>
		<path d="M211.022,30.965l-3.4-5.822v5.822h-2.35V20.75h2.393l3.402,6.07v-6.07h2.348v10.214H211.022z"/>
		<path d="M215.403,30.965V20.75h3.139c2.672,0,5.121,1.43,5.121,5.298c0,3.689-2.262,4.916-4.711,4.916H215.403z M218.938,29.097
			c1.414,0,2.422-1.08,2.422-3.08c0-2.027-0.76-3.398-2.85-3.398h-0.76v6.479H218.938L218.938,29.097z"/>
		<path d="M225.199,30.965V20.75h2.35v10.214H225.199z"/>
		<path d="M235.239,28.541h-3.398l-0.789,2.424h-2.465l3.75-10.214h2.422l3.738,10.214h-2.451L235.239,28.541z M232.424,26.791
			h2.248l-1.123-3.327L232.424,26.791z"/>
		<path d="M239.533,30.965V20.75h2.35v8.347h4.309v1.867H239.533z"/>
	</g>
	<g>
		<g>
			<defs>
				<path id="SVGID_1_" d="M59.018,36.877c2.299-0.027,4.48-0.363,6.41-1.014c0.486-0.164,0.949-0.344,1.388-0.541
					c-0.536,1.312-1.326,2.406-2.353,3.219c-2.029,1.496-4.423,2.52-7.022,2.912C58.092,40.328,58.616,38.742,59.018,36.877
					 M48.203,40.064c-0.048-0.039-0.1-0.076-0.158-0.104c-0.905-0.441-1.27-2.457-0.798-5.539c1.736,0.781,3.629,1.398,5.617,1.824
					c1.507,0.322,3.009,0.521,4.476,0.598c-0.72,3.129-1.644,4.771-2.253,4.771c-0.04,0-0.078,0.006-0.114,0.012
					C52.55,41.611,50.255,41.052,48.203,40.064 M39.81,30.099c-0.139-0.527-0.226-1.066-0.261-1.615
					c0.543,0.773,1.206,1.529,1.995,2.26c1.19,1.1,2.604,2.084,4.18,2.928c-0.321,1.801-0.412,3.432-0.208,4.746
					C42.799,36.363,40.768,33.457,39.81,30.099 M60.044,25.728c0-0.635-0.01-1.273-0.028-1.91c2.024-0.134,3.9-0.66,5.435-1.543
					c1.421,2.812,2.185,5.779,2.178,8.58c-0.001,0.811-0.071,1.582-0.201,2.311c-0.73,0.447-1.572,0.836-2.519,1.154
					c-1.681,0.566-3.575,0.875-5.583,0.926C59.811,32.353,60.044,28.994,60.044,25.728 M53.204,34.656
					c-2.016-0.434-3.921-1.072-5.646-1.883c0.565-2.549,1.621-5.637,3.293-9.064c0.242-0.497,0.491-0.984,0.743-1.464
					c1.169,0.524,2.441,0.94,3.775,1.226c1.013,0.218,2.027,0.336,3.019,0.369c0.017,0.611,0.027,1.24,0.027,1.889
					c0,3.834-0.307,7.016-0.75,9.5C56.211,35.166,54.712,34.976,53.204,34.656 M42.649,29.549c-1.383-1.277-2.333-2.631-2.817-3.975
					c0.384-1.506,1.125-3.017,2.219-4.464c1.038-1.373,2.327-2.609,3.807-3.672c0.426,0.771,1.025,1.524,1.785,2.238
					c0.723,0.678,1.567,1.292,2.502,1.83c-0.258,0.488-0.511,0.985-0.755,1.491c-1.444,2.958-2.624,6.133-3.315,9.014
					C44.789,31.285,43.634,30.459,42.649,29.549 M58.938,14.422c1.851,1.378,3.547,3.155,4.966,5.234
					c0.269,0.395,0.522,0.795,0.763,1.199c-1.301,0.751-2.945,1.201-4.72,1.327C59.798,19.373,59.466,16.671,58.938,14.422
					 M55.711,21.879c-1.178-0.251-2.298-0.613-3.329-1.065c1.519-2.657,3.18-4.967,4.818-6.685c0.512,2.015,0.941,4.723,1.123,8.082
					C57.461,22.175,56.582,22.066,55.711,21.879 M48.755,18.487c-0.674-0.63-1.186-1.288-1.53-1.947
					c1.525-0.918,3.213-1.666,5.011-2.206c1.069-0.321,2.152-0.56,3.231-0.725c-1.559,1.746-3.115,3.964-4.542,6.471
					C50.114,19.608,49.381,19.074,48.755,18.487 M45.254,13.301c-0.021,0.082-0.045,0.166-0.063,0.252
					c-0.165,0.768-0.146,1.554,0.048,2.334c-1.751,1.208-3.275,2.636-4.487,4.241c-0.37,0.489-0.701,0.988-1,1.49
					C40.653,18.285,42.616,15.385,45.254,13.301 M46.781,13.892c0.18-0.845,0.688-1.599,1.474-2.224
					c1.898-0.568,4.11-0.431,6.434,0.419c-0.978,0.17-1.956,0.396-2.92,0.687c-1.796,0.539-3.49,1.275-5.042,2.171
					C46.692,14.59,46.708,14.236,46.781,13.892 M59.988,11.747c0.559-0.361,1.073-0.61,1.503-0.712
					c0.816,0.328,1.625,0.745,2.393,1.273C62.652,12.002,61.343,11.814,59.988,11.747 M57.246,10.005
					c0.66,0.073,1.365,0.187,2.088,0.355c-0.454,0.243-0.924,0.549-1.401,0.914C57.72,10.794,57.491,10.37,57.246,10.005
					 M55.481,10.644c-0.736-0.282-1.463-0.5-2.181-0.657c0.575-0.064,1.158-0.101,1.75-0.101c0.277,0.003,0.617,0.336,0.974,0.98
					C55.844,10.789,55.662,10.714,55.481,10.644 M37.573,25.758c0,1.662,0.239,3.271,0.675,4.797
					c0.027,0.104,0.051,0.205,0.081,0.307c0.006,0.02,0.015,0.037,0.022,0.057c2.208,7.139,8.869,12.34,16.721,12.34
					c3.633,0,7.011-1.113,9.811-3.016c0.028-0.016,0.057-0.031,0.082-0.047c0.167-0.113,0.328-0.232,0.484-0.357
					c3.221-2.379,5.598-5.834,6.598-9.83c0.056-0.184,0.106-0.371,0.146-0.561c0.009-0.045,0.013-0.088,0.015-0.133
					c0.237-1.148,0.363-2.34,0.363-3.557c0-2.361-0.462-4.654-1.375-6.811c-0.175-0.414-0.652-0.607-1.067-0.432
					c-0.414,0.174-0.608,0.652-0.433,1.066c0.828,1.955,1.247,4.035,1.247,6.177c0,1.312-0.164,2.59-0.466,3.811
					c-0.24,0.77-0.663,1.482-1.247,2.129c0.014-0.275,0.024-0.555,0.025-0.84c0.006-3.123-0.857-6.42-2.459-9.52
					c1.174-1.008,1.922-2.254,2.18-3.648c0.082-0.441-0.21-0.866-0.653-0.947c-0.441-0.083-0.867,0.21-0.947,0.653
					c-0.17,0.922-0.648,1.766-1.398,2.485c-0.232-0.385-0.474-0.766-0.731-1.142c-1.429-2.095-3.126-3.907-4.984-5.352
					c2.451,0.162,4.718,0.755,6.543,1.775c0.286,0.163,0.667,0.158,0.934-0.065c0.347-0.288,0.391-0.802,0.104-1.147
					c-2.623-3.669-7.158-5.691-12.774-5.691C45.424,8.258,37.573,16.108,37.573,25.758"/>
			</defs>
			<clipPath id="SVGID_2_">
				<use xlink:href="#SVGID_1_"  overflow="visible"/>
			</clipPath>
			
				<radialGradient id="SVGID_3_" cx="-89.1179" cy="-311.1858" r="0.4795" gradientTransform="matrix(60.7425 0 0 60.7427 5484.2402 18917.0938)" gradientUnits="userSpaceOnUse">
				<stop  offset="0" style="stop-color:#FFFFFF"/>
				<stop  offset="0.0816" style="stop-color:#EBEBEC"/>
				<stop  offset="0.2493" style="stop-color:#BFC1C3"/>
				<stop  offset="0.4867" style="stop-color:#7D7F82"/>
				<stop  offset="0.544" style="stop-color:#6D6E71"/>
				<stop  offset="1" style="stop-color:#000000"/>
			</radialGradient>
			<rect x="37.573" y="8.258" clip-path="url(#SVGID_2_)" fill="url(#SVGID_3_)" width="35" height="34.998"/>
		</g>
	</g>
</g>
</svg>
