<?xml version="1.0" encoding="utf-8"?>
<!-- Generator: Adobe Illustrator 16.0.0, SVG Export Plug-In . SVG Version: 6.00 Build 0)  -->
<!DOCTYPE svg PUBLIC "-//W3C//DTD SVG 1.1//EN" "http://www.w3.org/Graphics/SVG/1.1/DTD/svg11.dtd">
<svg version="1.1" id="Layer_1" xmlns="http://www.w3.org/2000/svg" xmlns:xlink="http://www.w3.org/1999/xlink" x="0px" y="0px"
	 width="184px" height="37px" viewBox="32.483 6.086 184 37" enable-background="new 32.483 6.086 184 37" xml:space="preserve">
<g>
	<g>
		<path fill="#002F54" d="M73.257,16.073c0.646-0.129,1.955-0.225,3.183-0.225c1.503,0,2.424,0.144,3.216,0.613
			c0.76,0.404,1.308,1.146,1.308,2.132c0,0.969-0.564,1.875-1.792,2.326v0.034c1.245,0.338,2.165,1.276,2.165,2.681
			c0,0.986-0.453,1.762-1.131,2.31c-0.792,0.631-2.116,0.986-4.282,0.986c-1.213,0-2.117-0.081-2.666-0.162V16.073H73.257z
			 M75.698,20.242h0.807c1.292,0,1.987-0.533,1.987-1.342c0-0.824-0.631-1.259-1.745-1.259c-0.533,0-0.84,0.032-1.049,0.065V20.242z
			 M75.698,25.072c0.241,0.031,0.533,0.031,0.953,0.031c1.115,0,2.1-0.419,2.1-1.566c0-1.098-0.985-1.536-2.213-1.536h-0.839V25.072
			z"/>
		<path fill="#002F54" d="M90.951,26.51c-0.453,0.227-1.472,0.468-2.796,0.468c-3.765,0-5.704-2.342-5.704-5.444
			c0-3.716,2.649-5.784,5.946-5.784c1.276,0,2.246,0.258,2.683,0.485l-0.5,1.954c-0.503-0.209-1.196-0.403-2.07-0.403
			c-1.955,0-3.474,1.179-3.474,3.603c0,2.181,1.292,3.554,3.49,3.554c0.744,0,1.567-0.163,2.053-0.356L90.951,26.51z"/>
		<path fill="#002F54" d="M99.046,22.211H95.04v2.586h4.475v2.021h-6.946V15.927h6.721v2.02h-4.25v2.262h4.007L99.046,22.211
			L99.046,22.211z"/>
		<path fill="#002F54" d="M110.406,22.648c-0.048-1.308-0.099-2.892-0.099-4.475h-0.047c-0.34,1.389-0.791,2.94-1.211,4.217
			l-1.326,4.25h-1.921l-1.163-4.218c-0.355-1.276-0.727-2.828-0.986-4.249h-0.031c-0.065,1.47-0.113,3.15-0.194,4.507l-0.193,4.137
			h-2.279l0.693-10.891h3.281l1.066,3.635c0.339,1.262,0.677,2.619,0.92,3.895h0.047c0.307-1.261,0.679-2.698,1.034-3.911
			l1.164-3.618h3.215l0.597,10.891h-2.407L110.406,22.648z"/>
		<path fill="#002F54" d="M117.127,15.927v3.231c0,1.745-0.029,3.475-0.128,4.928h0.065c0.567-1.276,1.292-2.713,1.938-3.877
			l2.343-4.281h2.521v10.89h-2.263v-3.216c0-1.681,0.033-3.166,0.178-4.588h-0.049c-0.5,1.292-1.195,2.729-1.841,3.877l-2.213,3.926
			h-2.812V15.927H117.127z"/>
		<path fill="#002F54" d="M126.017,16.073c0.76-0.129,1.826-0.225,3.328-0.225c1.52,0,2.602,0.29,3.33,0.872
			c0.693,0.55,1.162,1.454,1.162,2.521c0,1.067-0.355,1.972-1.002,2.585c-0.84,0.792-2.084,1.147-3.539,1.147
			c-0.322,0-0.613-0.015-0.84-0.048v3.894h-2.439V16.073L126.017,16.073z M128.456,21.018c0.211,0.048,0.469,0.064,0.824,0.064
			c1.309,0,2.117-0.662,2.117-1.778c0-1-0.695-1.599-1.924-1.599c-0.502,0-0.84,0.048-1.018,0.096V21.018L128.456,21.018z"/>
		<path fill="#002F54" d="M137.878,15.927v4.185h4.053v-4.185h2.457v10.891h-2.457V22.26h-4.053v4.558h-2.473V15.927H137.878z"/>
		<path fill="#002F54" d="M148.995,15.927v3.798c0.307-0.049,0.807-0.097,1.211-0.097c2.246,0,4.312,1.114,4.312,3.571
			c0,1.017-0.338,1.776-0.871,2.342c-1.049,1.065-2.877,1.389-4.477,1.389c-1.178,0-2.082-0.081-2.633-0.162V15.927H148.995z
			 M148.979,25.023c0.209,0.048,0.5,0.065,0.84,0.065c1.082,0,2.115-0.632,2.115-1.827c0-1.244-1.146-1.745-2.084-1.745
			c-0.338,0-0.631,0.031-0.871,0.065V25.023z M157.979,15.927v10.891h-2.455V15.927H157.979z"/>
		<path fill="#002F54" d="M162.569,15.927v3.231c0,1.745-0.033,3.475-0.129,4.928h0.064c0.564-1.276,1.291-2.713,1.939-3.877
			l2.342-4.281h2.52v10.89h-2.262v-3.216c0-1.681,0.031-3.166,0.176-4.588h-0.047c-0.5,1.292-1.195,2.729-1.842,3.877l-2.213,3.926
			h-2.812V15.927H162.569z M164.087,13.44c0.016,0.63,0.195,0.985,0.711,0.985c0.502,0,0.695-0.355,0.76-0.985h1.646
			c-0.096,1.389-1,1.986-2.439,1.986c-1.422,0-2.229-0.629-2.357-1.986H164.087z"/>
		<path fill="#002F54" d="M181.958,15.927v2.002h-4.781v1.875c0.371-0.048,0.887-0.08,1.324-0.08c1.098,0,2.244,0.273,3.07,0.889
			c0.758,0.548,1.26,1.405,1.26,2.601c0,1.065-0.404,1.889-1.035,2.457c-1.051,0.937-2.762,1.259-4.424,1.259
			c-1.215,0-2.102-0.08-2.65-0.161V15.927H181.958z M177.161,25.023c0.273,0.048,0.613,0.065,0.953,0.065
			c0.598,0,1.193-0.194,1.598-0.567c0.324-0.29,0.533-0.726,0.533-1.26c0-0.55-0.225-0.953-0.58-1.228
			c-0.436-0.339-1.051-0.486-1.631-0.486c-0.275,0-0.566,0.017-0.873,0.065V25.023L177.161,25.023z"/>
		<path fill="#002F54" d="M186.856,24.021l-0.775,2.796h-2.553l3.328-10.891h3.23l3.377,10.891h-2.648l-0.842-2.796H186.856z
			 M189.62,22.181l-0.68-2.312c-0.193-0.646-0.389-1.453-0.549-2.1h-0.031c-0.162,0.646-0.324,1.47-0.504,2.1l-0.646,2.312H189.62z"
			/>
		<path fill="#002F54" d="M197.392,15.927v4.185h4.057v-4.185h2.457v10.891h-2.457V22.26h-4.057v4.558h-2.471V15.927H197.392z"/>
		<path fill="#002F54" d="M208.493,15.927v4.523h0.211l3.004-4.523h2.988l-3.797,4.832c1.406,0.354,2.035,1.324,2.488,2.633
			c0.389,1.164,0.744,2.343,1.26,3.426h-2.648c-0.373-0.745-0.582-1.585-0.842-2.392c-0.371-1.229-0.871-2.166-2.197-2.166h-0.469
			v4.558h-2.438V15.927H208.493z"/>
	</g>
	<g>
		<path fill="#00AEEF" d="M78.371,34.009c-0.026-0.708-0.052-1.564-0.052-2.422h-0.027c-0.183,0.752-0.428,1.592-0.655,2.282
			l-0.717,2.299h-1.041l-0.63-2.282c-0.191-0.69-0.392-1.529-0.533-2.299h-0.017c-0.035,0.796-0.062,1.705-0.105,2.439l-0.105,2.237
			h-1.232l0.376-5.892h1.774l0.577,1.967c0.184,0.682,0.368,1.416,0.498,2.106h0.027c0.167-0.682,0.367-1.459,0.559-2.114
			l0.63-1.958h1.739l0.324,5.892h-1.302L78.371,34.009z"/>
		<path fill="#00AEEF" d="M84.7,30.373v1.085h-2.587v1.014c0.201-0.026,0.48-0.045,0.717-0.045c0.595,0,1.214,0.148,1.66,0.48
			c0.412,0.298,0.682,0.761,0.682,1.407c0,0.578-0.219,1.023-0.56,1.329c-0.569,0.507-1.494,0.682-2.395,0.682
			c-0.655,0-1.136-0.045-1.433-0.088v-5.864H84.7L84.7,30.373z M82.104,35.292c0.148,0.026,0.332,0.036,0.516,0.036
			c0.324,0,0.646-0.105,0.864-0.306c0.175-0.157,0.289-0.394,0.289-0.683c0-0.296-0.122-0.515-0.315-0.664
			c-0.235-0.183-0.568-0.261-0.882-0.261c-0.148,0-0.306,0.008-0.472,0.034V35.292z"/>
		<path fill="#00AEEF" d="M86.056,30.452c0.411-0.07,0.988-0.122,1.801-0.122c0.821,0,1.407,0.157,1.801,0.472
			c0.375,0.297,0.63,0.786,0.63,1.364c0,0.575-0.193,1.064-0.542,1.398c-0.455,0.427-1.127,0.62-1.915,0.62
			c-0.174,0-0.331-0.009-0.455-0.025v2.106h-1.319v-5.813H86.056z M87.375,33.125c0.114,0.026,0.254,0.035,0.446,0.035
			c0.708,0,1.146-0.359,1.146-0.962c0-0.542-0.376-0.865-1.04-0.865c-0.271,0-0.455,0.027-0.551,0.053L87.375,33.125L87.375,33.125z
			"/>
		<path fill="#00AEEF" d="M91.135,30.452c0.411-0.07,0.987-0.122,1.801-0.122c0.822,0,1.407,0.157,1.801,0.472
			c0.376,0.297,0.629,0.786,0.629,1.364c0,0.575-0.193,1.064-0.542,1.398c-0.455,0.427-1.127,0.62-1.915,0.62
			c-0.174,0-0.332-0.009-0.454-0.025v2.106h-1.32v-5.813H91.135z M92.455,33.125c0.113,0.026,0.253,0.035,0.446,0.035
			c0.708,0,1.146-0.359,1.146-0.962c0-0.542-0.376-0.865-1.041-0.865c-0.271,0-0.454,0.027-0.55,0.053L92.455,33.125L92.455,33.125z
			"/>
		<path fill="#00AEEF" d="M107.683,34.009c-0.027-0.708-0.053-1.564-0.053-2.422h-0.026c-0.184,0.752-0.429,1.592-0.656,2.282
			l-0.717,2.299h-1.04l-0.63-2.282c-0.193-0.69-0.393-1.529-0.534-2.299h-0.017c-0.035,0.796-0.061,1.705-0.104,2.439l-0.106,2.237
			h-1.232l0.376-5.892h1.774l0.577,1.967c0.184,0.682,0.367,1.416,0.499,2.106h0.026c0.167-0.682,0.367-1.459,0.56-2.114
			l0.629-1.958h1.74l0.324,5.892h-1.302L107.683,34.009z"/>
		<path fill="#00AEEF" d="M111.469,34.752l-0.42,1.512h-1.38l1.801-5.892h1.747l1.828,5.892h-1.434l-0.454-1.512H111.469z
			 M112.964,33.755l-0.368-1.25c-0.105-0.349-0.209-0.786-0.297-1.136h-0.017c-0.087,0.35-0.174,0.796-0.271,1.136l-0.35,1.25
			H112.964z"/>
		<path fill="#00AEEF" d="M115.831,30.452c0.411-0.07,0.987-0.122,1.801-0.122c0.821,0,1.407,0.157,1.801,0.472
			c0.376,0.297,0.63,0.786,0.63,1.364c0,0.575-0.193,1.064-0.542,1.398c-0.455,0.427-1.128,0.62-1.915,0.62
			c-0.174,0-0.332-0.009-0.454-0.025v2.106h-1.32v-5.813H115.831z M117.151,33.125c0.113,0.026,0.253,0.035,0.446,0.035
			c0.708,0,1.146-0.359,1.146-0.962c0-0.542-0.376-0.865-1.04-0.865c-0.271,0-0.455,0.027-0.551,0.053L117.151,33.125
			L117.151,33.125z"/>
		<path fill="#00AEEF" d="M98.875,35.102c-0.612,0-1.097-0.493-1.097-1.105c0-0.613,0.485-1.105,1.097-1.105
			s1.106,0.492,1.106,1.105C99.982,34.609,99.487,35.102,98.875,35.102z"/>
	</g>
	<g>
		<g>
			<defs>
				<path id="SVGID_1_" d="M53.928,36.725c2.299-0.028,4.48-0.364,6.411-1.013c0.486-0.164,0.949-0.345,1.388-0.541
					c-0.536,1.312-1.326,2.405-2.353,3.219c-2.029,1.494-4.423,2.519-7.021,2.91C53.003,40.176,53.527,38.591,53.928,36.725
					 M43.115,39.913c-0.048-0.038-0.101-0.076-0.158-0.104c-0.905-0.439-1.27-2.455-0.799-5.537c1.736,0.781,3.63,1.399,5.618,1.824
					c1.507,0.322,3.007,0.521,4.476,0.598c-0.72,3.129-1.643,4.771-2.253,4.771c-0.04,0-0.077,0.006-0.114,0.012
					C47.461,41.459,45.166,40.902,43.115,39.913 M34.722,29.95c-0.139-0.529-0.227-1.068-0.262-1.615
					c0.543,0.772,1.206,1.528,1.994,2.258c1.191,1.101,2.605,2.085,4.181,2.929c-0.321,1.801-0.412,3.431-0.208,4.746
					C37.71,36.212,35.679,33.305,34.722,29.95 M54.955,25.578c0-0.635-0.011-1.274-0.027-1.91c2.023-0.135,3.9-0.661,5.435-1.543
					c1.422,2.812,2.185,5.779,2.178,8.579c-0.001,0.812-0.071,1.583-0.199,2.312c-0.732,0.447-1.573,0.835-2.521,1.154
					c-1.681,0.565-3.575,0.875-5.582,0.926C54.722,32.202,54.955,28.842,54.955,25.578 M48.116,34.504
					c-2.017-0.432-3.922-1.072-5.646-1.883c0.566-2.548,1.621-5.637,3.294-9.064c0.242-0.497,0.49-0.984,0.743-1.463
					c1.169,0.524,2.441,0.941,3.774,1.226c1.013,0.218,2.026,0.336,3.02,0.37c0.017,0.61,0.026,1.24,0.026,1.889
					c0,3.833-0.306,7.015-0.748,9.499C51.123,35.016,49.624,34.826,48.116,34.504 M37.559,29.397
					c-1.383-1.277-2.332-2.632-2.817-3.975c0.384-1.506,1.126-3.017,2.22-4.464c1.038-1.373,2.326-2.609,3.806-3.672
					c0.427,0.772,1.025,1.524,1.786,2.238c0.723,0.678,1.567,1.292,2.503,1.83c-0.259,0.488-0.511,0.985-0.756,1.489
					c-1.443,2.96-2.623,6.135-3.315,9.016C39.701,31.134,38.545,30.307,37.559,29.397 M53.849,14.271
					c1.851,1.377,3.548,3.155,4.967,5.233c0.268,0.395,0.522,0.795,0.763,1.199c-1.302,0.751-2.945,1.201-4.72,1.327
					C54.709,19.222,54.375,16.52,53.849,14.271 M50.622,21.728c-1.178-0.251-2.298-0.613-3.329-1.065
					c1.519-2.657,3.18-4.967,4.818-6.684c0.512,2.014,0.942,4.723,1.123,8.081C52.371,22.024,51.494,21.915,50.622,21.728
					 M43.667,18.336c-0.673-0.63-1.186-1.288-1.529-1.947c1.525-0.917,3.214-1.666,5.011-2.206c1.068-0.321,2.152-0.56,3.231-0.725
					c-1.558,1.746-3.115,3.964-4.541,6.47C45.024,19.457,44.292,18.924,43.667,18.336 M40.166,13.149
					c-0.022,0.083-0.046,0.167-0.064,0.252c-0.165,0.768-0.146,1.554,0.049,2.334c-1.752,1.208-3.275,2.637-4.487,4.242
					c-0.37,0.489-0.701,0.987-1.001,1.49C35.564,18.134,37.527,15.234,40.166,13.149 M41.693,13.741
					c0.18-0.845,0.687-1.599,1.473-2.224c1.899-0.567,4.109-0.431,6.433,0.42c-0.977,0.17-1.956,0.396-2.92,0.687
					c-1.795,0.539-3.489,1.275-5.042,2.171C41.604,14.438,41.62,14.086,41.693,13.741 M54.898,11.597
					c0.559-0.361,1.072-0.61,1.502-0.712c0.817,0.328,1.625,0.745,2.393,1.273C57.563,11.85,56.253,11.663,54.898,11.597
					 M52.156,9.854c0.661,0.074,1.366,0.187,2.088,0.356c-0.453,0.243-0.924,0.548-1.401,0.913
					C52.631,10.643,52.401,10.218,52.156,9.854 M50.393,10.493c-0.736-0.282-1.463-0.5-2.181-0.657
					c0.575-0.064,1.157-0.101,1.75-0.102c0.276,0.004,0.617,0.336,0.973,0.981C50.754,10.639,50.574,10.562,50.393,10.493
					 M32.483,25.606c0,1.664,0.239,3.272,0.675,4.797c0.026,0.104,0.05,0.205,0.081,0.308c0.006,0.021,0.015,0.037,0.022,0.058
					c2.208,7.138,8.869,12.338,16.723,12.338c3.633,0,7.01-1.114,9.81-3.016c0.027-0.016,0.056-0.03,0.082-0.048
					c0.166-0.113,0.328-0.231,0.483-0.356c3.22-2.379,5.597-5.833,6.599-9.829c0.055-0.185,0.105-0.371,0.146-0.561
					c0.009-0.045,0.012-0.089,0.015-0.134c0.238-1.148,0.364-2.339,0.364-3.557c0-2.361-0.462-4.653-1.375-6.811
					c-0.174-0.414-0.652-0.607-1.065-0.432c-0.415,0.174-0.608,0.653-0.433,1.066c0.827,1.956,1.246,4.034,1.246,6.177
					c0,1.312-0.163,2.589-0.465,3.81c-0.241,0.771-0.663,1.484-1.247,2.131c0.015-0.276,0.024-0.556,0.024-0.841
					c0.008-3.122-0.857-6.419-2.459-9.52c1.175-1.008,1.923-2.254,2.181-3.648c0.082-0.442-0.21-0.866-0.652-0.947
					c-0.442-0.083-0.868,0.21-0.948,0.653c-0.17,0.921-0.648,1.766-1.397,2.485c-0.234-0.385-0.475-0.766-0.731-1.142
					c-1.428-2.095-3.126-3.907-4.984-5.352c2.452,0.161,4.72,0.755,6.543,1.775c0.288,0.163,0.667,0.158,0.935-0.065
					c0.346-0.287,0.392-0.802,0.104-1.147c-2.623-3.669-7.158-5.691-12.773-5.691C40.334,8.107,32.483,15.958,32.483,25.606"/>
			</defs>
			<clipPath id="SVGID_2_">
				<use xlink:href="#SVGID_1_"  overflow="visible"/>
			</clipPath>
			
				<radialGradient id="SVGID_3_" cx="-123.7041" cy="-310.3467" r="0.48" gradientTransform="matrix(60.7425 0 0 60.7427 7580.0229 18865.9414)" gradientUnits="userSpaceOnUse">
				<stop  offset="0" style="stop-color:#FFFFFF"/>
				<stop  offset="0.0598" style="stop-color:#E7F6FD"/>
				<stop  offset="0.1829" style="stop-color:#AFE2FA"/>
				<stop  offset="0.3589" style="stop-color:#37C6F4"/>
				<stop  offset="0.544" style="stop-color:#00AEEF"/>
				<stop  offset="1" style="stop-color:#002F54"/>
			</radialGradient>
			<rect x="32.483" y="8.107" clip-path="url(#SVGID_2_)" fill="url(#SVGID_3_)" width="34.999" height="34.999"/>
		</g>
	</g>
</g>
</svg>
