<?xml version="1.0" encoding="utf-8"?>
<!-- Generator: Adobe Illustrator 16.0.0, SVG Export Plug-In . SVG Version: 6.00 Build 0)  -->
<!DOCTYPE svg PUBLIC "-//W3C//DTD SVG 1.1//EN" "http://www.w3.org/Graphics/SVG/1.1/DTD/svg11.dtd">
<svg version="1.1" id="Layer_1" xmlns="http://www.w3.org/2000/svg" xmlns:xlink="http://www.w3.org/1999/xlink" x="0px" y="0px"
	 width="171.155px" height="37px" viewBox="31.5 5.5 171.155 37" enable-background="new 31.5 5.5 171.155 37" xml:space="preserve"
	>
<g>
	<g>
		<g>
			<defs>
				<path id="SVGID_1_" d="M52.946,36.12c2.299-0.028,4.48-0.364,6.41-1.014c0.486-0.164,0.949-0.345,1.389-0.541
					c-0.537,1.312-1.327,2.406-2.353,3.219c-2.029,1.496-4.424,2.52-7.023,2.911C52.021,39.571,52.545,37.984,52.946,36.12
					 M42.132,39.308c-0.049-0.04-0.101-0.077-0.159-0.105c-0.904-0.44-1.269-2.456-0.798-5.537c1.736,0.781,3.629,1.399,5.617,1.824
					c1.507,0.321,3.009,0.521,4.477,0.598c-0.72,3.129-1.643,4.771-2.253,4.771c-0.04,0-0.077,0.007-0.114,0.013
					C46.479,40.854,44.182,40.297,42.132,39.308 M33.737,29.344c-0.139-0.529-0.226-1.069-0.261-1.616
					c0.543,0.772,1.207,1.529,1.995,2.259c1.191,1.101,2.604,2.085,4.18,2.929c-0.322,1.801-0.413,3.43-0.208,4.745
					C36.727,35.606,34.695,32.699,33.737,29.344 M53.972,24.972c0-0.636-0.011-1.274-0.028-1.91c2.024-0.135,3.9-0.661,5.435-1.543
					c1.422,2.812,2.185,5.778,2.178,8.579c-0.001,0.812-0.071,1.583-0.2,2.311c-0.731,0.448-1.573,0.838-2.519,1.155
					c-1.682,0.565-3.576,0.874-5.583,0.927C53.739,31.596,53.972,28.236,53.972,24.972 M47.132,33.898
					c-2.017-0.433-3.921-1.072-5.646-1.883c0.565-2.548,1.62-5.637,3.292-9.065c0.242-0.497,0.49-0.984,0.744-1.463
					c1.169,0.525,2.441,0.941,3.774,1.227c1.014,0.217,2.027,0.335,3.02,0.369c0.017,0.61,0.026,1.24,0.026,1.889
					c0,3.833-0.306,7.016-0.749,9.5C50.14,34.409,48.64,34.221,47.132,33.898 M36.577,28.791c-1.383-1.278-2.333-2.631-2.817-3.975
					c0.384-1.506,1.125-3.017,2.219-4.464c1.038-1.374,2.326-2.609,3.807-3.672c0.426,0.771,1.025,1.524,1.786,2.238
					c0.724,0.678,1.566,1.292,2.502,1.83c-0.258,0.488-0.51,0.984-0.755,1.49c-1.444,2.958-2.624,6.133-3.315,9.015
					C38.717,30.528,37.562,29.701,36.577,28.791 M52.866,13.664c1.851,1.377,3.547,3.155,4.967,5.234
					c0.269,0.395,0.522,0.795,0.763,1.2c-1.302,0.751-2.945,1.201-4.72,1.327C53.727,18.615,53.394,15.913,52.866,13.664
					 M49.639,21.122c-1.179-0.251-2.298-0.612-3.329-1.065c1.519-2.657,3.18-4.967,4.819-6.685c0.512,2.015,0.941,4.723,1.124,8.081
					C51.389,21.417,50.512,21.308,49.639,21.122 M42.684,17.729c-0.674-0.63-1.186-1.288-1.53-1.948
					c1.525-0.917,3.214-1.666,5.011-2.206c1.069-0.322,2.152-0.56,3.231-0.725c-1.558,1.746-3.115,3.965-4.541,6.471
					C44.042,18.851,43.31,18.317,42.684,17.729 M39.182,12.543c-0.022,0.083-0.046,0.167-0.063,0.252
					c-0.165,0.768-0.146,1.554,0.048,2.335c-1.751,1.208-3.275,2.637-4.487,4.242c-0.37,0.488-0.701,0.988-1,1.49
					C34.581,17.528,36.543,14.628,39.182,12.543 M40.709,13.134c0.181-0.845,0.688-1.6,1.474-2.224
					c1.899-0.568,4.111-0.431,6.434,0.419c-0.978,0.17-1.956,0.396-2.92,0.687c-1.796,0.539-3.489,1.275-5.041,2.171
					C40.62,13.832,40.636,13.479,40.709,13.134 M53.915,10.99c0.56-0.361,1.073-0.61,1.503-0.712
					c0.815,0.327,1.625,0.745,2.393,1.273C56.581,11.244,55.271,11.056,53.915,10.99 M51.173,9.247
					c0.662,0.074,1.365,0.187,2.088,0.356c-0.453,0.243-0.924,0.548-1.401,0.913C51.649,10.037,51.419,9.612,51.173,9.247
					 M49.41,9.886c-0.736-0.282-1.464-0.5-2.182-0.657c0.575-0.064,1.158-0.101,1.75-0.102c0.277,0.004,0.617,0.336,0.974,0.981
					C49.772,10.032,49.59,9.956,49.41,9.886 M31.5,25c0,1.663,0.239,3.271,0.675,4.798c0.026,0.103,0.05,0.203,0.081,0.307
					c0.007,0.02,0.016,0.036,0.022,0.058C34.486,37.3,41.147,42.5,49.001,42.5c3.633,0,7.011-1.113,9.811-3.016
					c0.027-0.016,0.055-0.03,0.082-0.047c0.166-0.113,0.326-0.231,0.482-0.355c3.221-2.381,5.598-5.835,6.599-9.831
					c0.056-0.185,0.106-0.372,0.147-0.561c0.008-0.045,0.012-0.089,0.014-0.133C66.375,27.408,66.5,26.219,66.5,25
					c0-2.361-0.462-4.653-1.375-6.811c-0.175-0.415-0.652-0.608-1.066-0.433c-0.415,0.173-0.608,0.653-0.433,1.065
					c0.828,1.956,1.247,4.035,1.247,6.178c0,1.313-0.164,2.59-0.466,3.811c-0.24,0.771-0.663,1.483-1.247,2.131
					c0.015-0.277,0.023-0.556,0.024-0.841c0.006-3.123-0.857-6.42-2.46-9.521c1.176-1.008,1.923-2.254,2.182-3.647
					c0.082-0.442-0.211-0.866-0.653-0.948c-0.442-0.083-0.868,0.21-0.948,0.653c-0.17,0.922-0.649,1.766-1.397,2.485
					c-0.233-0.385-0.476-0.767-0.732-1.143c-1.428-2.094-3.125-3.907-4.983-5.352c2.452,0.161,4.719,0.756,6.544,1.775
					c0.287,0.163,0.666,0.158,0.934-0.065c0.347-0.288,0.392-0.802,0.104-1.148C59.153,9.522,54.618,7.5,49.001,7.5
					C39.352,7.5,31.5,15.351,31.5,25"/>
			</defs>
			<clipPath id="SVGID_2_">
				<use xlink:href="#SVGID_1_"  overflow="visible"/>
			</clipPath>
			
				<radialGradient id="SVGID_3_" cx="-137.0513" cy="-310.6602" r="0.5094" gradientTransform="matrix(56.8165 0 0 56.8167 7851.6953 17664.7344)" gradientUnits="userSpaceOnUse">
				<stop  offset="0" style="stop-color:#FFFFFF"/>
				<stop  offset="0.0598" style="stop-color:#E7F6FD"/>
				<stop  offset="0.1829" style="stop-color:#AFE2FA"/>
				<stop  offset="0.3589" style="stop-color:#37C6F4"/>
				<stop  offset="0.544" style="stop-color:#00AEEF"/>
				<stop  offset="1" style="stop-color:#002F54"/>
			</radialGradient>
			<rect x="31.5" y="7.5" clip-path="url(#SVGID_2_)" fill="url(#SVGID_3_)" width="35" height="35"/>
		</g>
	</g>
	<g>
		<path fill="#00AEEF" d="M72.264,35.676v-5.953h2.253c1.216,0,1.921,0.46,1.921,1.573c0,1.056-0.63,1.232-0.927,1.232v0.017
			c0.399,0,1.326,0.35,1.326,1.464c0,1.241-0.978,1.665-2.076,1.665h-2.499V35.676z M74.38,32.206c0.638,0,0.85-0.314,0.85-0.773
			c0-0.476-0.315-0.758-1.012-0.758h-0.782v1.531H74.38z M74.509,34.723c0.586,0,1.028-0.187,1.028-0.841
			c0-0.612-0.45-0.851-1.054-0.851h-1.046v1.691H74.509z"/>
		<path fill="#00AEEF" d="M77.533,35.676v-5.953h1.174v5.953H77.533z"/>
		<path fill="#00AEEF" d="M84.734,35.658c0,0-0.221,0.06-0.612,0.06c-1.802,0-1.31-2.27-2.568-2.27h-0.63v2.228H79.75v-5.951h2.091
			c1.463,0,2.245,0.536,2.245,1.869c0,0.875-0.57,1.343-1.029,1.514c0.611,0.503,0.646,1.658,1.429,1.658h0.247L84.734,35.658
			L84.734,35.658z M81.707,32.563c0.706,0,1.224-0.324,1.224-0.937c0-0.595-0.417-0.952-1.131-0.952h-0.875v1.889H81.707z"/>
		<path fill="#00AEEF" d="M85.249,35.676v-5.953h3.758v0.952h-2.585v1.642h2.032v0.936h-2.032v2.424H85.249z"/>
		<path fill="#00AEEF" d="M92.116,34.314c-0.612,0-1.097-0.492-1.097-1.104c0-0.614,0.485-1.105,1.097-1.105
			s1.106,0.491,1.106,1.105C93.222,33.822,92.728,34.314,92.116,34.314z"/>
		<path fill="#00AEEF" d="M98.942,34.188h-2.109l-0.501,1.488h-1.224l2.185-5.951h1.2l2.185,5.951H99.46L98.942,34.188z
			 M97.148,33.295h1.497l-0.756-2.16L97.148,33.295z"/>
		<path fill="#00AEEF" d="M101.168,35.676v-5.953h1.173v5.953H101.168z"/>
		<path fill="#00AEEF" d="M103.385,35.676v-5.953h3.759v0.952h-2.585v1.642h2.032v0.936h-2.032v2.424H103.385z"/>
	</g>
	<g>
		<path fill="#002F54" d="M72.264,15.322h4.07c0.633,0,1.855,0,2.684,0.513c0.996,0.632,1.22,1.688,1.22,2.321
			c0,0.408-0.075,1.116-0.633,1.628c-0.076,0.091-0.603,0.573-1.236,0.74v0.03c1.659,0.301,2.306,1.508,2.306,2.653
			c0,1.282-0.753,2.139-1.598,2.563c-0.845,0.438-2.323,0.438-2.744,0.438h-4.07V15.322z M74.495,19.753h1.628
			c0.663,0,1.87,0,1.87-1.401c0-1.357-1.146-1.357-1.916-1.357h-1.583v2.758H74.495z M74.495,24.459h1.583
			c1.071,0,2.277,0,2.277-1.463c0-1.553-1.402-1.553-2.518-1.553h-1.341L74.495,24.459L74.495,24.459z"/>
		<path fill="#002F54" d="M87.93,15.307l3.785,10.9h-2.353l-0.783-2.352h-4.312l-0.815,2.352H81.22l3.936-10.9H87.93z
			 M87.991,22.091l-1.509-4.644l-1.612,4.644H87.991z"/>
		<path fill="#002F54" d="M92.97,15.307h3.376l4.086,8.579v-8.579h2.171v10.9h-3.212l-4.221-9.045v9.045h-2.203v-10.9H92.97z"/>
		<path fill="#002F54" d="M110.644,18.865c-0.045-0.377-0.18-1.915-1.764-1.915c-1.734,0-2.459,1.809-2.459,4.056
			c0,0.648,0,3.739,2.277,3.739c0.98,0,1.915-0.618,1.961-2.066h2.457c-0.045,0.648-0.107,1.66-0.981,2.564
			c-0.965,0.994-2.187,1.221-3.181,1.221c-3.753,0-4.975-2.774-4.975-5.472c0-3.454,1.929-5.744,4.991-5.744
			c2.383,0,4.055,1.448,4.055,3.618L110.644,18.865L110.644,18.865z"/>
		<path fill="#002F54" d="M119.241,15.081c1.162,0,2.759,0.271,3.828,1.477c1.162,1.327,1.387,3.03,1.387,4.101
			c0,1.584-0.48,3.272-1.371,4.267c-1.205,1.357-2.971,1.552-3.874,1.552c-1.432,0-2.864-0.452-3.861-1.491
			c-1.189-1.267-1.34-3.077-1.34-4.072C114.01,18.021,115.319,15.081,119.241,15.081z M117.265,23.886
			c0.333,0.452,0.89,0.874,1.976,0.874c0.951,0,1.597-0.332,2.035-1.01c0.361-0.542,0.738-1.386,0.738-3.121
			c0-0.528-0.045-1.282-0.271-1.944c-0.449-1.341-1.371-1.93-2.486-1.93c-0.875,0-1.567,0.361-2.008,0.919
			c-0.617,0.753-0.796,1.93-0.796,3.166C116.452,21.88,116.618,23.042,117.265,23.886z"/>
		<path fill="#002F54" d="M129.904,15.307h3.814l2.307,7.93l2.486-7.93h3.711v10.9h-2.324v-9.348l-2.971,9.347H135l-2.91-9.347
			v9.347h-2.186V15.307L129.904,15.307z"/>
		<path fill="#002F54" d="M146.508,15.337v6.633c0,1.191,0.09,2.684,2.367,2.684c0.377,0,1.508-0.016,2.111-0.95
			c0.225-0.332,0.348-0.755,0.348-1.855v-6.513h2.275v6.799c0,3.241-2.578,4.282-4.779,4.282c-1.086,0-3.076-0.241-4.102-1.885
			c-0.529-0.829-0.559-1.673-0.559-2.684v-6.513H146.508z"/>
		<path fill="#002F54" d="M155.754,15.307h3.377l4.086,8.579v-8.579h2.172v10.9h-3.213l-4.221-9.045v9.045h-2.203v-10.9H155.754z"/>
		<path fill="#002F54" d="M167.232,15.337l3.604,0.016c0.604,0,2.439,0.015,3.752,0.98c1.373,1.01,1.855,2.728,1.855,4.282
			c0,3.346-1.797,5.095-3.859,5.472c-0.406,0.076-0.859,0.12-1.961,0.12h-3.391V15.337z M169.6,24.413
			c0.256,0.015,0.646,0.03,0.918,0.03c0.994,0,1.857-0.076,2.531-0.754c0.924-0.919,0.982-2.547,0.982-3.075
			c0-1.538-0.527-2.955-1.99-3.362c-0.482-0.136-1.102-0.212-2.441-0.151V24.413L169.6,24.413z"/>
		<path fill="#002F54" d="M177.895,15.277h2.336v10.93h-2.336V15.277z"/>
		<path fill="#002F54" d="M187.816,15.307l3.781,10.9h-2.35l-0.785-2.352h-4.311l-0.812,2.352h-2.232l3.936-10.9H187.816z
			 M187.877,22.091l-1.508-4.644l-1.613,4.644H187.877z"/>
		<path fill="#002F54" d="M192.811,15.322h2.381v9.032h4.674v1.854h-7.055V15.322z"/>
	</g>
</g>
</svg>
