<?xml version="1.0" encoding="utf-8"?>
<!-- Generator: Adobe Illustrator 16.0.0, SVG Export Plug-In . SVG Version: 6.00 Build 0)  -->
<!DOCTYPE svg PUBLIC "-//W3C//DTD SVG 1.1//EN" "http://www.w3.org/Graphics/SVG/1.1/DTD/svg11.dtd">
<svg version="1.1" id="Layer_1" xmlns="http://www.w3.org/2000/svg" xmlns:xlink="http://www.w3.org/1999/xlink" x="0px" y="0px"
	 width="276px" height="35px" viewBox="49.2 6.62 276 35" enable-background="new 49.2 6.62 276 35" xml:space="preserve">
<g>
	<g>
		<path d="M97.563,25.663c0,1.678-1.138,3.648-3.955,3.648c-2.86,0-4.655-1.809-4.655-5.18c0-3.355,1.751-5.21,4.625-5.21
			c3.444,0,3.939,3.063,3.939,3.59l-2.174,0.335c0,0-0.015-1.854-1.752-1.854c-1.298,0-2.203,1.007-2.203,3.138
			c0,2.146,1.006,3.108,2.276,3.108c1.298,0,1.708-0.816,1.708-1.576V25.56h-2.159v-1.721h4.348V25.663z"/>
		<path d="M107.81,29.181c0,0-0.38,0.115-1.183,0.115c-3.254,0-2.262-3.736-4.363-3.736h-0.773v3.664h-2.349V19.009h3.721
			c2.626,0,3.998,0.934,3.998,3.283c0,1.502-1.006,2.291-1.678,2.582c0.919,0.92,0.919,2.51,2.188,2.51h0.438L107.81,29.181
			L107.81,29.181z M102.601,23.796c1.139,0,1.955-0.497,1.955-1.432c0-0.934-0.67-1.488-1.794-1.488h-1.27v2.918h1.109V23.796z"/>
		<path d="M108.337,24.131c0-3.473,2.058-5.209,4.64-5.209c2.598,0,4.655,1.737,4.655,5.209c0,3.474-2.072,5.181-4.655,5.181
			C110.41,29.312,108.337,27.604,108.337,24.131z M115.195,24.131c0-2.335-1.006-3.138-2.218-3.138
			c-1.196,0-2.203,0.803-2.203,3.138c0,2.319,0.993,3.165,2.203,3.165C114.204,27.296,115.195,26.45,115.195,24.131z"/>
		<path d="M124.77,19.009h2.35v5.982c0,3.254-1.824,4.32-4.013,4.32c-2.173,0-4.056-1.064-4.042-4.32l0.015-5.982h2.349v6.158
			c0,1.123,0.394,2.043,1.679,2.043c1.284,0,1.663-0.918,1.663-2.043L124.77,19.009L124.77,19.009z"/>
		<path d="M129.004,29.224V19.009h3.663c2.539,0,4.129,1.153,4.129,3.575c0,2.394-1.736,3.474-3.808,3.474h-1.635v3.166H129.004z
			 M132.564,24.204c1.211,0,1.868-0.555,1.868-1.619c0-0.992-0.613-1.708-1.956-1.708h-1.124v3.327H132.564z"/>
		<path d="M138.097,29.224V19.009h6.61v1.867h-4.261v2.364h3.254v1.839h-3.254v2.275h4.261v1.869H138.097L138.097,29.224z"/>
		<path d="M149.379,29.224V19.009h3.137c2.67,0,5.122,1.431,5.122,5.297c0,3.691-2.262,4.918-4.713,4.918H149.379z M152.911,27.356
			c1.415,0,2.422-1.08,2.422-3.08c0-2.027-0.758-3.4-2.846-3.4h-0.758v6.479h1.183V27.356z"/>
		<path d="M159.172,29.224V19.009h6.609v1.867h-4.261v2.364h3.254v1.839h-3.254v2.275h4.261v1.869H159.172L159.172,29.224z"/>
		<path d="M170.455,29.224V19.009h2.35v8.346h4.305v1.869H170.455L170.455,29.224z"/>
		<path d="M183.939,26.802h-3.4l-0.788,2.422h-2.466l3.751-10.215h2.421l3.735,10.215h-2.451L183.939,26.802z M181.123,25.05h2.247
			l-1.124-3.326L181.123,25.05z"/>
		<path d="M190.962,29.224V19.009h4.1c2.086,0,3.312,0.788,3.312,2.729c0,1.78-1.094,2.057-1.619,2.057v0.03
			c0.686,0,2.305,0.628,2.305,2.509c0,2.145-1.635,2.891-3.516,2.891H190.962z M194.624,23.153c0.977,0,1.328-0.423,1.328-1.138
			c0-0.729-0.482-1.139-1.547-1.139h-1.094v2.276H194.624z M194.901,27.356c0.934,0,1.502-0.324,1.502-1.285
			c0-0.918-0.656-1.283-1.561-1.283h-1.531v2.568H194.901z"/>
		<path d="M206.022,26.802h-3.4l-0.787,2.422h-2.467l3.75-10.215h2.422l3.736,10.215h-2.451L206.022,26.802z M203.206,25.05h2.248
			l-1.125-3.326L203.206,25.05z"/>
		<path d="M216.063,29.224l-3.4-5.822v5.822h-2.348V19.009h2.393l3.4,6.07v-6.07h2.348v10.215H216.063z"/>
		<path d="M227.974,32.636c-3.139,0-4.393-1.939-4.523-3.516c-2-0.451-3.459-2.102-3.459-5.049c0-3.472,2.057-5.209,4.639-5.209
			c2.6,0,4.656,1.737,4.656,5.209c0,3.094-1.648,4.787-3.809,5.123c0.189,0.947,1.051,1.574,2.496,1.574V32.636L227.974,32.636z
			 M226.849,24.072c0-2.334-1.006-3.136-2.219-3.136c-1.195,0-2.201,0.802-2.201,3.136c0,2.321,0.99,3.167,2.201,3.167
			C225.858,27.239,226.849,26.394,226.849,24.072z"/>
		<path d="M236.423,19.009h2.351v5.982c0,3.254-1.824,4.32-4.013,4.32c-2.174,0-4.057-1.064-4.041-4.32l0.014-5.982h2.35v6.158
			c0,1.123,0.393,2.043,1.678,2.043s1.664-0.918,1.664-2.043v-6.158H236.423z"/>
		<path d="M240.658,29.224V19.009h6.609v1.867h-4.262v2.364h3.254v1.839h-3.254v2.275h4.262v1.869H240.658L240.658,29.224z"/>
		<path d="M254.289,23.767v5.457h-2.35V19.009h2.379l2.875,6.025l3.021-6.025h2.232v10.215h-2.35l0.057-5.734l-2.23,4.494h-1.576
			L254.289,23.767z"/>
		<path d="M263.996,24.131c0-3.473,2.057-5.209,4.641-5.209c2.598,0,4.654,1.737,4.654,5.209c0,3.474-2.072,5.181-4.654,5.181
			C266.068,29.312,263.996,27.604,263.996,24.131z M270.854,24.131c0-2.335-1.006-3.138-2.217-3.138
			c-1.197,0-2.203,0.803-2.203,3.138c0,2.319,0.992,3.165,2.203,3.165C269.861,27.296,270.854,26.45,270.854,24.131z"/>
		<path d="M280.559,29.224l-3.398-5.822v5.822h-2.35V19.009h2.393l3.4,6.07v-6.07h2.35v10.215H280.559z"/>
		<path d="M284.939,29.224V19.009h3.139c2.67,0,5.121,1.431,5.121,5.297c0,3.691-2.262,4.918-4.713,4.918H284.939z M288.471,27.356
			c1.416,0,2.422-1.08,2.422-3.08c0-2.027-0.758-3.4-2.846-3.4h-0.758v6.479h1.182V27.356z"/>
		<path d="M294.732,29.224V19.009h2.352v10.215H294.732z"/>
		<path d="M304.773,26.802h-3.4l-0.789,2.422h-2.465l3.75-10.215h2.422l3.736,10.215h-2.451L304.773,26.802z M301.957,25.05h2.246
			l-1.123-3.326L301.957,25.05z"/>
		<path d="M309.064,29.224V19.009h2.35v8.346h4.305v1.869H309.064L309.064,29.224z"/>
		<path d="M316.859,29.224V19.009h6.609v1.867h-4.262v2.364h3.256v1.839h-3.256v2.275h4.262v1.869H316.859L316.859,29.224z"/>
	</g>
	<g>
		<g>
			<defs>
				<path id="SVGID_1_" d="M70.646,35.239c2.299-0.027,4.48-0.363,6.41-1.014c0.485-0.162,0.949-0.344,1.388-0.539
					c-0.536,1.311-1.326,2.404-2.354,3.219c-2.029,1.492-4.423,2.518-7.022,2.91C69.72,38.69,70.244,37.104,70.646,35.239
					 M59.831,38.427c-0.049-0.041-0.1-0.076-0.158-0.105c-0.905-0.439-1.27-2.455-0.799-5.537c1.737,0.781,3.63,1.4,5.618,1.824
					c1.507,0.322,3.008,0.521,4.476,0.598c-0.72,3.129-1.643,4.771-2.253,4.771c-0.04,0-0.077,0.006-0.114,0.014
					C64.178,39.974,61.882,39.417,59.831,38.427 M51.438,28.462c-0.139-0.527-0.227-1.066-0.262-1.615
					c0.543,0.773,1.206,1.529,1.994,2.26c1.191,1.1,2.605,2.084,4.181,2.928c-0.322,1.801-0.413,3.432-0.208,4.746
					C54.426,34.726,52.395,31.819,51.438,28.462 M71.671,24.093c0-0.637-0.009-1.275-0.027-1.912c2.024-0.134,3.9-0.659,5.435-1.542
					c1.421,2.812,2.183,5.779,2.177,8.58c-0.002,0.811-0.072,1.582-0.2,2.311c-0.731,0.447-1.572,0.836-2.519,1.154
					c-1.681,0.566-3.576,0.875-5.582,0.926C71.439,30.716,71.671,27.356,71.671,24.093 M64.832,33.019
					c-2.017-0.432-3.922-1.072-5.647-1.883c0.566-2.549,1.621-5.637,3.294-9.064c0.242-0.496,0.49-0.984,0.744-1.462
					c1.169,0.524,2.441,0.941,3.774,1.225c1.013,0.218,2.026,0.336,3.02,0.37c0.017,0.609,0.026,1.239,0.026,1.889
					c0,3.832-0.306,7.016-0.748,9.5C67.839,33.528,66.339,33.341,64.832,33.019 M54.275,27.911
					c-1.382-1.277-2.332-2.631-2.817-3.975c0.384-1.505,1.126-3.016,2.22-4.464c1.038-1.372,2.327-2.609,3.806-3.672
					c0.427,0.772,1.024,1.524,1.785,2.238c0.724,0.677,1.568,1.292,2.503,1.829c-0.258,0.489-0.511,0.986-0.756,1.49
					c-1.443,2.959-2.623,6.133-3.315,9.016C56.417,29.647,55.261,28.821,54.275,27.911 M70.565,12.785
					c1.852,1.377,3.548,3.154,4.967,5.234c0.269,0.394,0.522,0.795,0.764,1.2c-1.302,0.75-2.945,1.201-4.72,1.327
					C71.425,17.736,71.093,15.034,70.565,12.785 M67.338,20.241c-1.178-0.251-2.298-0.612-3.329-1.065
					c1.519-2.657,3.18-4.967,4.818-6.684c0.512,2.014,0.942,4.723,1.123,8.081C69.087,20.538,68.21,20.429,67.338,20.241
					 M60.382,16.85c-0.673-0.629-1.185-1.288-1.529-1.947c1.525-0.918,3.214-1.666,5.011-2.205c1.069-0.322,2.152-0.56,3.231-0.726
					c-1.558,1.747-3.115,3.966-4.542,6.471C61.741,17.971,61.009,17.438,60.382,16.85 M56.882,11.664
					c-0.022,0.082-0.046,0.167-0.064,0.251c-0.165,0.768-0.146,1.555,0.049,2.335c-1.752,1.208-3.275,2.637-4.488,4.242
					c-0.37,0.488-0.7,0.988-1,1.49C52.281,16.648,54.242,13.748,56.882,11.664 M58.41,12.255c0.18-0.845,0.687-1.599,1.474-2.224
					c1.899-0.568,4.109-0.43,6.433,0.419c-0.977,0.17-1.955,0.396-2.919,0.688c-1.796,0.539-3.49,1.275-5.042,2.171
					C58.32,12.953,58.335,12.599,58.41,12.255 M71.615,10.11c0.559-0.362,1.072-0.61,1.502-0.713
					c0.816,0.327,1.626,0.745,2.393,1.273C74.28,10.365,72.97,10.177,71.615,10.11 M68.873,8.367
					c0.661,0.074,1.365,0.188,2.089,0.356c-0.454,0.244-0.924,0.548-1.401,0.914C69.347,9.156,69.118,8.732,68.873,8.367
					 M67.109,9.006c-0.736-0.282-1.463-0.5-2.181-0.657c0.575-0.064,1.157-0.1,1.75-0.102c0.276,0.004,0.617,0.336,0.973,0.981
					C67.471,9.152,67.291,9.076,67.109,9.006 M49.2,24.12c0,1.662,0.238,3.271,0.675,4.797c0.025,0.104,0.05,0.205,0.08,0.309
					c0.006,0.018,0.015,0.035,0.022,0.055c2.208,7.139,8.87,12.34,16.723,12.34c3.633,0,7.01-1.113,9.811-3.016
					c0.027-0.016,0.056-0.029,0.082-0.047c0.167-0.113,0.327-0.232,0.483-0.357c3.22-2.379,5.598-5.832,6.599-9.828
					c0.056-0.186,0.105-0.371,0.146-0.561c0.01-0.045,0.013-0.09,0.016-0.133c0.237-1.15,0.364-2.34,0.364-3.559
					c0-2.361-0.463-4.653-1.375-6.811c-0.174-0.415-0.653-0.607-1.066-0.432c-0.415,0.173-0.607,0.652-0.433,1.065
					c0.828,1.956,1.248,4.034,1.248,6.178c0,1.312-0.163,2.588-0.466,3.811c-0.239,0.77-0.662,1.482-1.246,2.131
					c0.014-0.277,0.023-0.557,0.024-0.842c0.006-3.121-0.857-6.42-2.459-9.519c1.174-1.007,1.923-2.253,2.18-3.648
					c0.082-0.442-0.21-0.866-0.653-0.948c-0.441-0.083-0.867,0.21-0.948,0.653c-0.17,0.921-0.648,1.766-1.397,2.485
					c-0.233-0.385-0.475-0.766-0.731-1.144c-1.428-2.094-3.126-3.906-4.984-5.353c2.451,0.162,4.719,0.756,6.544,1.775
					c0.286,0.163,0.667,0.159,0.934-0.065c0.347-0.288,0.391-0.801,0.104-1.148C76.852,8.643,72.316,6.62,66.7,6.62
					C57.051,6.62,49.2,14.47,49.2,24.12"/>
			</defs>
			<clipPath id="SVGID_2_">
				<use xlink:href="#SVGID_1_"  overflow="visible"/>
			</clipPath>
			
				<radialGradient id="SVGID_3_" cx="-2.7407" cy="-310.5449" r="0.477" gradientTransform="matrix(60.7425 0 0 60.7427 249.1338 18876.4883)" gradientUnits="userSpaceOnUse">
				<stop  offset="0" style="stop-color:#FFFFFF"/>
				<stop  offset="0.0816" style="stop-color:#EBEBEC"/>
				<stop  offset="0.2493" style="stop-color:#BFC1C3"/>
				<stop  offset="0.4867" style="stop-color:#7D7F82"/>
				<stop  offset="0.544" style="stop-color:#6D6E71"/>
				<stop  offset="1" style="stop-color:#000000"/>
			</radialGradient>
			<rect x="49.2" y="6.62" clip-path="url(#SVGID_2_)" fill="url(#SVGID_3_)" width="35" height="34.999"/>
		</g>
	</g>
</g>
</svg>
