<?xml version="1.0" encoding="utf-8"?>
<!-- Generator: Adobe Illustrator 16.0.0, SVG Export Plug-In . SVG Version: 6.00 Build 0)  -->
<!DOCTYPE svg PUBLIC "-//W3C//DTD SVG 1.1//EN" "http://www.w3.org/Graphics/SVG/1.1/DTD/svg11.dtd">
<svg version="1.1" id="Layer_1" xmlns="http://www.w3.org/2000/svg" xmlns:xlink="http://www.w3.org/1999/xlink" x="0px" y="0px"
	 width="168.725px" height="37px" viewBox="36.475 5.62 168.725 37" enable-background="new 36.475 5.62 168.725 37"
	 xml:space="preserve">
<g>
	<g>
		<path d="M55.226,26.649c-0.1-0.347-0.221-0.676-0.365-0.985c-0.142-0.311-0.304-0.584-0.483-0.821
			c-0.177-0.237-0.373-0.426-0.587-0.563c-0.211-0.138-0.433-0.207-0.666-0.207c-0.281,0-0.564,0.103-0.85,0.306
			c-0.285,0.204-0.541,0.479-0.77,0.825c-0.229,0.35-0.415,0.749-0.559,1.202c-0.143,0.455-0.216,0.936-0.216,1.443
			c0,0.506,0.087,0.912,0.262,1.219c0.174,0.308,0.419,0.546,0.733,0.716c0.314,0.168,0.683,0.284,1.113,0.346
			c0.429,0.063,0.893,0.104,1.395,0.123c-0.176,0.426-0.41,0.81-0.703,1.154c-0.295,0.346-0.628,0.639-0.997,0.884
			c-0.37,0.244-0.765,0.431-1.186,0.562c-0.417,0.133-0.844,0.197-1.275,0.197c-0.165,0-0.355-0.019-0.574-0.061
			c-0.219-0.039-0.449-0.094-0.69-0.158c-0.241-0.066-0.483-0.145-0.728-0.237c-0.244-0.089-0.47-0.185-0.676-0.284
			c-0.095-0.046-0.164-0.064-0.207-0.064c-0.056,0-0.084,0.026-0.084,0.083c0,0.032,0.008,0.057,0.02,0.078
			c0.013,0.021,0.029,0.049,0.056,0.08c0.212,0.282,0.471,0.579,0.775,0.892c0.303,0.312,0.631,0.604,0.98,0.874
			c0.352,0.269,0.715,0.491,1.093,0.667c0.373,0.175,0.741,0.263,1.096,0.263c0.419,0,0.821-0.088,1.203-0.267
			c0.381-0.18,0.738-0.423,1.066-0.732c0.328-0.312,0.624-0.675,0.886-1.092c0.263-0.415,0.487-0.862,0.672-1.337
			c0.183-0.476,0.327-0.969,0.427-1.484c0.1-0.515,0.15-1.023,0.15-1.53c0-0.332-0.027-0.678-0.079-1.034
			C55.404,27.35,55.327,26.999,55.226,26.649z M53.255,27.895c-0.313-0.058-0.575-0.132-0.788-0.225
			c-0.214-0.096-0.373-0.202-0.483-0.325c-0.11-0.121-0.165-0.248-0.165-0.379c0-0.095,0.025-0.196,0.078-0.302
			c0.053-0.107,0.123-0.204,0.207-0.296c0.085-0.09,0.181-0.164,0.287-0.225c0.107-0.061,0.212-0.091,0.32-0.091
			c0.169,0,0.338,0.053,0.508,0.158c0.169,0.103,0.326,0.24,0.474,0.415c0.147,0.175,0.279,0.381,0.395,0.615
			c0.114,0.235,0.2,0.48,0.259,0.737C53.931,27.979,53.568,27.951,53.255,27.895z"/>
		<path d="M43.393,34.374l-0.675,1.156c-0.301-0.202-0.601-0.395-0.906-0.582c-0.305-0.188-0.612-0.362-0.924-0.525
			c-0.072,0.092-0.14,0.199-0.212,0.317c-0.071,0.12-0.145,0.243-0.216,0.371c-0.072,0.13-0.143,0.26-0.214,0.391
			c-0.074,0.132-0.14,0.256-0.202,0.376l1.925,1.163c0.118-0.182,0.237-0.373,0.356-0.577c0.118-0.203,0.237-0.409,0.357-0.613
			c0.112,0.075,0.238,0.159,0.379,0.247c0.142,0.092,0.29,0.185,0.441,0.278c0.153,0.094,0.309,0.189,0.466,0.286
			c0.156,0.097,0.306,0.188,0.45,0.267c0.156-0.226,0.304-0.456,0.443-0.694c0.137-0.238,0.278-0.482,0.422-0.731
			c-0.238-0.163-0.52-0.342-0.841-0.536C44.119,34.772,43.769,34.574,43.393,34.374z"/>
		<path d="M47.202,28.247c-0.052-0.116-0.148-0.217-0.287-0.306c-0.136-0.093-0.35-0.193-0.636-0.296
			c-0.29-0.103-0.64-0.219-1.052-0.343c0.237-0.569,0.41-1.051,0.515-1.441c0.106-0.391,0.16-0.715,0.16-0.972
			c0-0.062-0.004-0.157-0.015-0.282c-0.008-0.123-0.02-0.258-0.033-0.398c-0.011-0.141-0.024-0.279-0.038-0.413
			c-0.012-0.135-0.021-0.246-0.028-0.335c0.112-0.125,0.22-0.254,0.319-0.389c0.101-0.135,0.193-0.282,0.278-0.441
			c0.084-0.16,0.158-0.337,0.221-0.527c0.063-0.189,0.113-0.408,0.151-0.652c-0.263-0.024-0.501-0.105-0.709-0.239
			c-0.21-0.135-0.387-0.303-0.532-0.502c-0.142-0.2-0.255-0.426-0.337-0.676c-0.082-0.25-0.125-0.507-0.131-0.77l-0.019-0.01
			l-1.305,1.428c0.074,0.601,0.162,1.183,0.257,1.746c0.098,0.563,0.193,1.1,0.283,1.606c0.09,0.507,0.17,0.98,0.235,1.422
			c0.065,0.441,0.101,0.836,0.109,1.181c-0.214,0.094-0.46,0.17-0.738,0.229c-0.279,0.06-0.566,0.105-0.861,0.136
			c-0.256,0.809-0.433,1.441-0.534,1.898c0.338,0.068,0.663,0.14,0.977,0.215c0.313,0.075,0.607,0.148,0.882,0.222
			c0.275,0.072,0.529,0.142,0.758,0.212c0.227,0.067,0.425,0.134,0.594,0.197v0.11c-0.256,0.243-0.542,0.471-0.858,0.676
			c-0.318,0.206-0.651,0.386-1.004,0.537c-0.354,0.149-0.723,0.267-1.104,0.353c-0.381,0.083-0.767,0.127-1.154,0.127
			c-0.326,0-0.629-0.051-0.911-0.152c-0.281-0.1-0.526-0.242-0.737-0.43c-0.208-0.188-0.375-0.416-0.497-0.682
			c-0.122-0.266-0.184-0.565-0.184-0.896c0-0.389,0.056-0.813,0.166-1.275c0.109-0.459,0.245-0.903,0.408-1.327
			c0.056-0.158,0.09-0.265,0.104-0.323c0.012-0.061,0.017-0.109,0.017-0.146c0-0.07-0.027-0.104-0.084-0.104
			c-0.069,0-0.184,0.146-0.347,0.441c-0.157,0.275-0.299,0.565-0.428,0.868c-0.127,0.304-0.237,0.618-0.328,0.939
			c-0.091,0.323-0.161,0.649-0.211,0.981c-0.05,0.331-0.075,0.661-0.075,0.987c0,0.448,0.068,0.871,0.208,1.261
			c0.137,0.393,0.333,0.735,0.592,1.026c0.255,0.29,0.568,0.519,0.938,0.684c0.37,0.167,0.786,0.25,1.249,0.25
			c0.481,0,0.969-0.071,1.46-0.212c0.492-0.14,0.963-0.333,1.414-0.577s0.868-0.529,1.254-0.858
			c0.385-0.328,0.715-0.682,0.991-1.057c0.481-0.67,0.722-1.44,0.722-2.311C47.281,28.494,47.257,28.361,47.202,28.247z"/>
		<path d="M79.872,25.896c0.488,0,0.874-0.032,1.158-0.094c0.286-0.063,0.497-0.151,0.633-0.263
			c0.083-0.062,0.168-0.152,0.259-0.268c0.091-0.117,0.175-0.242,0.255-0.377c0.077-0.135,0.141-0.268,0.196-0.398
			c0.053-0.132,0.081-0.244,0.081-0.339c0-0.067-0.015-0.124-0.044-0.165c-0.028-0.04-0.079-0.074-0.154-0.098
			c-0.076-0.025-0.177-0.041-0.301-0.047c-0.126-0.007-0.286-0.01-0.48-0.01c-0.231,0-0.348-0.06-0.348-0.179
			c0-0.107,0.05-0.257,0.146-0.452c0.097-0.193,0.224-0.399,0.382-0.619c0.055-0.082,0.083-0.139,0.083-0.168
			c0-0.076-0.035-0.114-0.104-0.114c-0.107,0-0.312,0.151-0.619,0.45c-0.283,0.276-0.501,0.55-0.658,0.822
			c-0.157,0.272-0.234,0.516-0.234,0.729c0,0.182,0.079,0.309,0.239,0.385c0.16,0.074,0.421,0.112,0.785,0.112h0.131
			c0.056,0,0.12-0.004,0.196-0.011v0.066l-1.933,0.986v0.028c0.057,0.006,0.111,0.011,0.168,0.013
			C79.766,25.893,79.819,25.896,79.872,25.896z"/>
		<path d="M89.271,22.124c0.095-0.134,0.187-0.274,0.277-0.418c0.09-0.144,0.177-0.285,0.258-0.422
			c0.082-0.138,0.15-0.26,0.207-0.366c-0.14-0.094-0.294-0.198-0.469-0.31c-0.176-0.112-0.354-0.228-0.536-0.348
			c-0.183-0.119-0.361-0.231-0.541-0.338c-0.177-0.106-0.337-0.2-0.473-0.281c-0.064,0.088-0.138,0.195-0.222,0.323
			c-0.084,0.128-0.174,0.267-0.268,0.415c-0.096,0.146-0.184,0.294-0.272,0.445c-0.088,0.15-0.166,0.291-0.234,0.422l2.019,1.23
			C89.091,22.377,89.178,22.258,89.271,22.124z"/>
		<path d="M115.614,20.978c0.119-0.202,0.237-0.409,0.357-0.615c0.112,0.076,0.239,0.16,0.38,0.249
			c0.142,0.092,0.288,0.184,0.441,0.278c0.152,0.093,0.31,0.189,0.465,0.287c0.157,0.097,0.307,0.187,0.45,0.268
			c0.156-0.226,0.304-0.458,0.441-0.695c0.139-0.238,0.28-0.481,0.424-0.732c-0.239-0.163-0.518-0.341-0.842-0.536
			c-0.322-0.193-0.672-0.392-1.047-0.592l-0.677,1.155c-0.299-0.201-0.602-0.394-0.905-0.582c-0.305-0.188-0.612-0.363-0.926-0.526
			c-0.069,0.095-0.14,0.2-0.211,0.319c-0.071,0.118-0.144,0.243-0.216,0.37c-0.072,0.129-0.145,0.259-0.217,0.39
			c-0.072,0.132-0.14,0.257-0.201,0.375l1.924,1.165C115.377,21.374,115.496,21.181,115.614,20.978z"/>
		<path d="M151.31,32.824c-0.182-0.117-0.359-0.231-0.539-0.337c-0.179-0.107-0.337-0.2-0.475-0.282
			c-0.062,0.089-0.137,0.196-0.22,0.324c-0.085,0.129-0.174,0.268-0.269,0.414c-0.093,0.147-0.187,0.295-0.272,0.446
			c-0.088,0.15-0.166,0.292-0.233,0.421l2.018,1.229c0.074-0.099,0.162-0.217,0.254-0.351c0.095-0.135,0.186-0.274,0.277-0.417
			c0.09-0.146,0.176-0.286,0.259-0.422c0.08-0.139,0.15-0.261,0.207-0.368c-0.141-0.093-0.295-0.197-0.47-0.31
			C151.67,33.06,151.493,32.943,151.31,32.824z"/>
		<path d="M106.045,25.473c-0.024-0.508-0.055-1.049-0.09-1.625c-0.033-0.577-0.07-1.145-0.107-1.705
			c-0.037-0.561-0.076-1.093-0.112-1.598c-0.04-0.503-0.072-0.936-0.104-1.301c-0.512,0.47-1.061,1.1-1.643,1.888
			c0,0.294,0.011,0.664,0.031,1.108c0.023,0.445,0.053,0.929,0.091,1.452c0.036,0.522,0.076,1.062,0.121,1.619
			c0.044,0.559,0.086,1.093,0.128,1.61c0.039,0.517,0.072,0.995,0.098,1.433c0.025,0.439,0.037,0.798,0.037,1.08
			c0,0.163-0.006,0.335-0.014,0.517c-0.01,0.183-0.028,0.376-0.054,0.581c0.347-0.21,0.757-0.669,1.231-1.37
			c0.314-0.457,0.471-0.931,0.471-1.418c0-0.206-0.007-0.511-0.022-0.91C106.09,26.433,106.068,25.979,106.045,25.473z"/>
		<path d="M127.855,28.97c0.053-0.129,0.114-0.291,0.188-0.489c0.074-0.196,0.15-0.423,0.234-0.68
			c0.083-0.256,0.171-0.525,0.259-0.808c-0.276,0.056-0.561,0.11-0.854,0.164c-0.294,0.053-0.577,0.104-0.847,0.146
			c-0.27,0.044-0.52,0.08-0.749,0.108c-0.232,0.027-0.428,0.043-0.585,0.043c-0.237,0-0.446-0.024-0.629-0.071
			c-0.182-0.047-0.342-0.11-0.479-0.187c-0.138-0.079-0.262-0.169-0.371-0.269c-0.109-0.101-0.214-0.207-0.315-0.32
			c-0.198-0.226-0.346-0.439-0.441-0.644c-0.092-0.202-0.139-0.374-0.139-0.511c0-0.102,0.057-0.194,0.174-0.282
			c0.114-0.088,0.262-0.163,0.44-0.23c0.177-0.065,0.369-0.115,0.576-0.149c0.208-0.035,0.405-0.053,0.593-0.053
			c0.199,0,0.395,0.027,0.581,0.08c0.188,0.053,0.369,0.122,0.54,0.207c0.172,0.085,0.338,0.177,0.499,0.277
			c0.158,0.1,0.313,0.197,0.465,0.29c0.049-0.048,0.083-0.105,0.103-0.168c0.019-0.062,0.028-0.132,0.028-0.208
			c0-0.199-0.064-0.438-0.193-0.717c-0.128-0.279-0.311-0.543-0.548-0.794c-0.238-0.251-0.524-0.464-0.86-0.639
			c-0.335-0.175-0.709-0.263-1.123-0.263c-0.413,0-0.812,0.107-1.197,0.322c-0.384,0.217-0.723,0.492-1.014,0.822
			c-0.291,0.333-0.524,0.695-0.699,1.09c-0.176,0.395-0.263,0.773-0.263,1.137c0,0.257,0.071,0.521,0.212,0.794
			c0.139,0.271,0.32,0.537,0.539,0.792l-0.01,0.027h-3.296c-0.355,0-0.639-0.082-0.846-0.248c-0.206-0.164-0.345-0.409-0.413-0.728
			c-0.043-0.212-0.079-0.457-0.102-0.731c-0.027-0.275-0.049-0.566-0.068-0.874c-0.018-0.307-0.033-0.624-0.043-0.948
			c-0.01-0.326-0.016-0.642-0.023-0.943c-0.006-0.305-0.014-0.594-0.018-0.865c-0.006-0.273-0.014-0.512-0.02-0.718l-0.038-0.019
			c-0.261,0.15-0.511,0.312-0.745,0.488s-0.465,0.359-0.69,0.555l0.026,0.555c-0.468,0.225-0.871,0.426-1.206,0.604
			c-0.335,0.18-0.624,0.354-0.868,0.526c-0.246,0.173-0.453,0.349-0.625,0.526c-0.172,0.179-0.334,0.375-0.482,0.586
			c-0.146,0.208-0.274,0.429-0.391,0.661c-0.115,0.235-0.216,0.458-0.297,0.667c-0.08,0.211-0.143,0.397-0.188,0.564
			c-0.042,0.166-0.063,0.287-0.063,0.362c0,0.187,0.045,0.372,0.137,0.559c0.091,0.185,0.233,0.351,0.432,0.498
			s0.451,0.264,0.765,0.352c0.313,0.089,0.691,0.132,1.136,0.132c0.133,0,0.277-0.006,0.438-0.014
			c0.16-0.009,0.311-0.024,0.449-0.044c0.143-0.018,0.264-0.036,0.366-0.057c0.106-0.018,0.166-0.036,0.186-0.056l0.685-0.909
			c0.057,0.351,0.152,0.64,0.292,0.868c0.138,0.229,0.307,0.41,0.507,0.544c0.201,0.135,0.427,0.23,0.68,0.282
			c0.203,0.042,0.425,0.056,0.652,0.064c0.02,0.002,0.038,0.003,0.058,0.005c0.041,0.001,0.073,0.012,0.113,0.012h0.206
			c0.399,0,0.842-0.012,1.319-0.034c0.479-0.021,0.979-0.051,1.501-0.09c0.524-0.038,1.062-0.081,1.613-0.136
			c0.551-0.053,1.095-0.11,1.633-0.172c0.539-0.063,1.062-0.132,1.57-0.202c0.506-0.072,0.981-0.146,1.425-0.221
			C127.763,29.172,127.802,29.099,127.855,28.97z M115.806,27.083c-0.096,0.016-0.204,0.031-0.322,0.046
			c-0.121,0.017-0.236,0.028-0.354,0.037c-0.116,0.011-0.207,0.015-0.275,0.015c-0.364,0-0.653-0.019-0.866-0.06
			c-0.213-0.04-0.373-0.091-0.481-0.15c-0.11-0.059-0.181-0.121-0.213-0.183c-0.032-0.063-0.046-0.115-0.046-0.161
			c0-0.118,0.043-0.239,0.131-0.361c0.088-0.121,0.232-0.251,0.433-0.389c0.199-0.138,0.466-0.285,0.792-0.441
			c0.328-0.157,0.736-0.325,1.217-0.508c0.014,0.319,0.039,0.665,0.076,1.037c0.038,0.374,0.072,0.728,0.104,1.067
			C115.968,27.049,115.901,27.066,115.806,27.083z"/>
		<path d="M166.105,27.937c-0.046-0.322-0.119-0.659-0.221-1.013c-0.1-0.354-0.226-0.706-0.379-1.059
			c-0.153-0.35-0.334-0.664-0.543-0.942c-0.204-0.278-0.439-0.506-0.702-0.681c-0.262-0.176-0.558-0.262-0.883-0.262
			c-0.299,0-0.57,0.061-0.808,0.184c-0.236,0.121-0.455,0.285-0.652,0.492c-0.197,0.205-0.38,0.449-0.55,0.727
			c-0.169,0.279-0.33,0.574-0.487,0.889c-0.182,0.355-0.354,0.635-0.517,0.835c-0.165,0.2-0.362,0.354-0.598,0.456
			c-0.232,0.104-0.523,0.168-0.868,0.192s-0.786,0.037-1.333,0.037h-0.63c-0.004,0-0.007,0.002-0.01,0.002v-0.002
			c-0.356-0.019-0.66-0.076-0.906-0.172c-0.247-0.098-0.493-0.237-0.737-0.421c-0.244-0.188-0.51-0.422-0.8-0.701
			c-0.287-0.282-0.646-0.624-1.078-1.023c-0.295-0.27-0.569-0.51-0.822-0.725c-0.254-0.213-0.501-0.393-0.742-0.539
			c-0.241-0.148-0.481-0.26-0.724-0.333c-0.242-0.075-0.496-0.113-0.765-0.113c-0.627,0-1.207,0.21-1.738,0.63
			c-0.1,0.08-0.221,0.193-0.362,0.338c-0.139,0.144-0.279,0.301-0.417,0.47c-0.137,0.17-0.263,0.34-0.374,0.512
			c-0.112,0.172-0.191,0.324-0.235,0.455c-0.007,0.019-0.009,0.033-0.009,0.039c0,0.03,0.02,0.047,0.064,0.047
			c0.044,0,0.093-0.009,0.141-0.024c0.05-0.016,0.116-0.048,0.197-0.099c0.138-0.082,0.292-0.159,0.462-0.233
			c0.167-0.076,0.34-0.142,0.516-0.198c0.174-0.056,0.345-0.102,0.51-0.137c0.168-0.034,0.321-0.051,0.455-0.051
			c0.252,0,0.512,0.054,0.781,0.163c0.27,0.112,0.548,0.265,0.835,0.464c0.289,0.202,0.592,0.449,0.908,0.743
			c0.314,0.294,0.647,0.624,0.999,0.987v0.065c-0.368,0.037-0.74,0.062-1.111,0.075c-0.374,0.013-0.767,0.02-1.18,0.02
			c-0.395,0-0.8-0.007-1.213-0.02c-0.412-0.014-0.816-0.025-1.215-0.044c-0.397-0.014-0.775-0.033-1.138-0.055
			c-0.359-0.022-0.685-0.042-0.974-0.056c-0.293-0.015-0.541-0.03-0.744-0.042c-0.203-0.014-0.346-0.021-0.426-0.021
			c-0.04,0-0.067,0.004-0.104,0.005c-0.045-0.28-0.104-0.568-0.19-0.872c-0.1-0.354-0.225-0.706-0.378-1.059
			c-0.154-0.349-0.334-0.663-0.54-0.942c-0.208-0.279-0.442-0.506-0.704-0.681c-0.263-0.175-0.559-0.263-0.884-0.263
			c-0.3,0-0.57,0.061-0.808,0.184c-0.237,0.122-0.456,0.286-0.652,0.492c-0.198,0.207-0.381,0.451-0.55,0.729
			c-0.169,0.278-0.331,0.574-0.489,0.888c-0.18,0.355-0.354,0.635-0.516,0.835c-0.163,0.2-0.362,0.354-0.598,0.456
			c-0.233,0.104-0.523,0.168-0.867,0.192c-0.345,0.024-0.788,0.037-1.333,0.037h-0.631c-0.031,0-0.052,0.003-0.081,0.004
			c-0.004-0.031-0.002-0.058-0.007-0.089c-0.053-0.356-0.131-0.707-0.23-1.056c-0.102-0.347-0.224-0.676-0.366-0.986
			c-0.145-0.309-0.305-0.584-0.484-0.82c-0.178-0.237-0.374-0.426-0.587-0.564c-0.212-0.137-0.434-0.206-0.666-0.206
			c-0.282,0-0.565,0.103-0.852,0.306c-0.284,0.203-0.539,0.479-0.769,0.825c-0.229,0.349-0.415,0.748-0.558,1.202
			c-0.147,0.454-0.217,0.935-0.217,1.442c0,0.507,0.088,0.913,0.263,1.22c0.175,0.308,0.419,0.545,0.731,0.715
			c0.314,0.168,0.685,0.284,1.113,0.347c0.429,0.063,0.895,0.104,1.396,0.122c-0.176,0.426-0.41,0.81-0.706,1.155
			c-0.293,0.345-0.626,0.638-0.993,0.883c-0.37,0.244-0.764,0.431-1.185,0.562s-0.846,0.197-1.277,0.197
			c-0.163,0-0.354-0.02-0.572-0.061c-0.22-0.039-0.447-0.094-0.69-0.159c-0.24-0.064-0.484-0.144-0.728-0.236
			c-0.243-0.089-0.47-0.186-0.677-0.285c-0.094-0.045-0.162-0.064-0.206-0.064c-0.056,0-0.083,0.027-0.083,0.083
			c0,0.032,0.008,0.057,0.018,0.079c0.012,0.021,0.031,0.049,0.057,0.08c0.214,0.281,0.472,0.578,0.774,0.891
			c0.303,0.313,0.632,0.604,0.981,0.875c0.352,0.269,0.715,0.49,1.088,0.667c0.377,0.175,0.745,0.263,1.101,0.263
			c0.42,0,0.819-0.088,1.202-0.268c0.383-0.179,0.736-0.423,1.065-0.731c0.328-0.312,0.624-0.676,0.889-1.092
			c0.261-0.415,0.484-0.862,0.668-1.338c0.188-0.476,0.329-0.969,0.428-1.483c0.017-0.076,0.021-0.151,0.033-0.228
			c0.044,0,0.079,0.002,0.127,0.002h0.949c0.32,0,0.605-0.007,0.859-0.019c0.252-0.014,0.486-0.052,0.701-0.118
			c0.211-0.064,0.41-0.17,0.594-0.314c0.186-0.145,0.368-0.348,0.551-0.61c0.256,0.258,0.562,0.475,0.919,0.652
			c0.358,0.179,0.723,0.324,1.1,0.438c0.375,0.11,0.737,0.193,1.085,0.243c0.346,0.053,0.639,0.077,0.877,0.077
			c0.544,0,0.935-0.127,1.186-0.373c0.118,0.016,0.252,0.025,0.422,0.025c0.933,0.037,1.893,0.07,2.881,0.098
			c0.991,0.028,2.072,0.042,3.251,0.042c0.457,0,0.913-0.003,1.369-0.009c0.458-0.006,0.896-0.016,1.315-0.027
			c0.418-0.013,0.81-0.024,1.169-0.033c0.36-0.01,0.677-0.021,0.949-0.033c0.271-0.013,0.488-0.021,0.646-0.027
			c0.16-0.009,0.246-0.01,0.26-0.01l0,0c0.003,0,0.006,0,0.01,0h0.948c0.319,0,0.604-0.007,0.859-0.02
			c0.252-0.013,0.487-0.051,0.699-0.116c0.213-0.066,0.411-0.171,0.597-0.316c0.185-0.145,0.368-0.347,0.55-0.609
			c0.256,0.258,0.562,0.475,0.918,0.652c0.36,0.18,0.725,0.325,1.101,0.438c0.376,0.111,0.736,0.193,1.084,0.243
			c0.349,0.052,0.64,0.076,0.877,0.076c0.577,0,0.989-0.138,1.237-0.412c0.248-0.276,0.371-0.688,0.371-1.232
			C166.177,28.53,166.152,28.26,166.105,27.937z M133.551,27.895c-0.312-0.058-0.574-0.132-0.79-0.225
			c-0.212-0.096-0.373-0.202-0.481-0.325c-0.109-0.121-0.165-0.248-0.165-0.379c0-0.095,0.026-0.196,0.08-0.302
			c0.053-0.107,0.122-0.204,0.207-0.296c0.083-0.09,0.182-0.164,0.286-0.225c0.105-0.061,0.213-0.091,0.319-0.091
			c0.169,0,0.338,0.053,0.508,0.158c0.168,0.103,0.326,0.24,0.474,0.415s0.278,0.381,0.395,0.615
			c0.115,0.235,0.203,0.48,0.259,0.737C134.228,27.979,133.863,27.951,133.551,27.895z M143.733,28.196
			c-0.145,0-0.345-0.017-0.599-0.049c-0.254-0.03-0.529-0.09-0.825-0.178c-0.297-0.086-0.603-0.207-0.914-0.362
			c-0.314-0.151-0.597-0.351-0.848-0.595c0.082-0.149,0.178-0.291,0.292-0.418c0.112-0.129,0.232-0.24,0.357-0.338
			c0.124-0.096,0.252-0.172,0.38-0.227c0.129-0.052,0.252-0.079,0.372-0.079c0.213,0,0.403,0.049,0.576,0.146
			c0.172,0.097,0.328,0.22,0.465,0.37c0.139,0.149,0.256,0.315,0.357,0.494c0.1,0.177,0.182,0.348,0.247,0.51
			c0.067,0.163,0.115,0.307,0.147,0.427c0.031,0.123,0.046,0.202,0.046,0.24S143.768,28.196,143.733,28.196z M164.825,28.196
			c-0.145,0-0.343-0.017-0.597-0.049c-0.255-0.03-0.529-0.09-0.826-0.178c-0.296-0.086-0.603-0.207-0.915-0.362
			c-0.313-0.151-0.597-0.351-0.848-0.595c0.082-0.149,0.18-0.291,0.293-0.418c0.112-0.129,0.23-0.24,0.355-0.338
			c0.124-0.096,0.251-0.172,0.381-0.227c0.128-0.052,0.252-0.079,0.371-0.079c0.214,0,0.404,0.049,0.576,0.146
			c0.173,0.097,0.328,0.22,0.466,0.37c0.139,0.149,0.258,0.315,0.356,0.494c0.101,0.177,0.183,0.348,0.25,0.51
			c0.064,0.163,0.113,0.307,0.144,0.427c0.033,0.123,0.047,0.202,0.047,0.24C164.88,28.177,164.862,28.196,164.825,28.196z"/>
		<path d="M102.166,25.43c-0.024-0.549-0.056-1.104-0.09-1.668c-0.033-0.562-0.065-1.114-0.094-1.652
			c-0.027-0.538-0.055-1.051-0.08-1.541c-0.024-0.487-0.043-0.929-0.057-1.324c-0.306,0.245-0.602,0.503-0.891,0.775
			c-0.288,0.272-0.553,0.546-0.791,0.821c0.016,0.344,0.044,0.768,0.091,1.269c0.048,0.5,0.105,1.078,0.174,1.737
			c0.118,1.062,0.208,1.923,0.267,2.579c0.06,0.653,0.09,1.119,0.09,1.395c-0.192,0.024-0.387,0.041-0.578,0.046
			c-0.19,0.007-0.386,0.009-0.586,0.009c-0.238,0-0.473-0.002-0.699-0.009c-0.229-0.006-0.436-0.015-0.621-0.023
			c-0.184-0.01-0.341-0.02-0.473-0.028c-0.135-0.009-0.22-0.017-0.264-0.025c-0.019,0-0.035,0.004-0.053,0.004
			c-0.01-0.141-0.008-0.271-0.02-0.415c-0.046-0.445-0.127-0.883-0.24-1.32c-0.116-0.435-0.275-0.855-0.476-1.263
			c-0.2-0.406-0.456-0.781-0.771-1.126c-0.481,0.765-0.873,1.452-1.174,2.065c0.15,0.156,0.293,0.327,0.432,0.512
			c0.139,0.184,0.259,0.37,0.362,0.559c0.104,0.188,0.186,0.368,0.247,0.543c0.064,0.176,0.094,0.333,0.094,0.473
			c-0.204,0.031-0.426,0.053-0.666,0.064c-0.236,0.013-0.489,0.019-0.76,0.019c-0.074,0-0.186-0.003-0.333-0.009
			c-0.147-0.008-0.314-0.013-0.499-0.02c-0.184-0.006-0.375-0.015-0.576-0.026c-0.201-0.015-0.394-0.023-0.583-0.028
			c-0.187-0.008-0.356-0.012-0.511-0.02c-0.154-0.006-0.271-0.012-0.353-0.012c-0.015,0-0.028,0.004-0.043,0.004
			c-0.009-0.141-0.008-0.271-0.021-0.415c-0.045-0.445-0.124-0.883-0.241-1.32c-0.115-0.435-0.272-0.855-0.473-1.263
			c-0.201-0.406-0.458-0.781-0.771-1.126c-0.482,0.765-0.873,1.452-1.174,2.065c0.151,0.156,0.294,0.327,0.433,0.512
			c0.138,0.184,0.258,0.37,0.361,0.559c0.103,0.188,0.187,0.368,0.249,0.543c0.063,0.176,0.094,0.333,0.094,0.473
			c-0.207,0.031-0.43,0.053-0.667,0.064c-0.237,0.013-0.492,0.019-0.761,0.019c-0.075,0-0.186-0.003-0.332-0.009
			c-0.147-0.008-0.314-0.013-0.5-0.02c-0.185-0.006-0.376-0.015-0.576-0.026c-0.201-0.015-0.396-0.023-0.583-0.028
			c-0.188-0.008-0.358-0.012-0.512-0.02c-0.153-0.006-0.271-0.012-0.354-0.012c-0.009,0-0.014,0.003-0.022,0.003
			c0-0.014,0-0.024-0.001-0.038c-0.013-0.539-0.033-1.104-0.054-1.696c-0.021-0.591-0.047-1.194-0.076-1.812
			c-0.027-0.616-0.056-1.216-0.09-1.802c-0.03-0.587-0.062-1.142-0.092-1.668c-0.033-0.525-0.057-0.995-0.076-1.409
			c-0.118,0.076-0.255,0.168-0.41,0.278c-0.152,0.11-0.311,0.226-0.474,0.347c-0.164,0.123-0.323,0.246-0.479,0.371
			c-0.156,0.125-0.299,0.245-0.432,0.357c0.019,0.238,0.048,0.545,0.09,0.92c0.041,0.376,0.088,0.784,0.144,1.224
			c0.057,0.443,0.114,0.898,0.173,1.364c0.061,0.466,0.115,0.911,0.166,1.333c0.049,0.423,0.092,0.805,0.123,1.146
			c0.032,0.341,0.047,0.604,0.047,0.794c0,0.111-0.061,0.203-0.179,0.275c-0.118,0.074-0.274,0.135-0.465,0.185
			c-0.192,0.048-0.408,0.086-0.649,0.11c-0.24,0.027-0.482,0.044-0.726,0.058c-0.244,0.012-0.478,0.02-0.7,0.022
			c-0.221,0.003-0.413,0.006-0.569,0.006c-0.148,0-0.33-0.003-0.543-0.006c-0.212-0.003-0.433-0.016-0.663-0.041
			c-0.229-0.026-0.456-0.064-0.681-0.114c-0.225-0.049-0.426-0.12-0.607-0.211c-0.175-0.09-0.321-0.206-0.431-0.347
			c-0.11-0.142-0.164-0.315-0.164-0.522c0-0.28,0.071-0.715,0.217-1.305c0.011-0.062,0.023-0.121,0.038-0.178
			c0.012-0.057,0.018-0.107,0.018-0.15c0-0.102-0.037-0.15-0.114-0.15c-0.125,0-0.313,0.216-0.562,0.649
			c-0.451,0.763-0.678,1.522-0.678,2.28c0,0.581,0.129,1.033,0.385,1.353c0.258,0.319,0.607,0.55,1.049,0.695
			c0.44,0.143,0.959,0.227,1.554,0.252c0.595,0.026,1.234,0.038,1.917,0.038c1.058,0,1.888-0.053,2.487-0.158
			c0.403-0.072,0.718-0.155,0.958-0.251c0.042,0.011,0.093,0.018,0.151,0.024c0.119,0.014,0.26,0.021,0.421,0.028
			c0.145,0,0.377,0.006,0.693,0.023c0.321,0.015,0.681,0.03,1.082,0.046c0.402,0.016,0.819,0.029,1.255,0.043
			c0.434,0.014,0.84,0.018,1.217,0.018c0.312,0,0.574-0.021,0.784-0.064c0.119-0.025,0.219-0.064,0.311-0.11
			c0.033,0.006,0.066,0.013,0.107,0.017c0.119,0.013,0.259,0.021,0.421,0.027c0.144,0,0.377,0.006,0.696,0.022
			c0.32,0.017,0.68,0.03,1.08,0.047s0.818,0.03,1.254,0.044c0.436,0.013,0.84,0.017,1.216,0.017c0.313,0,0.575-0.021,0.785-0.063
			c0.122-0.027,0.225-0.069,0.319-0.117c0.028,0.004,0.043,0.013,0.078,0.017c0.107,0.011,0.259,0.022,0.451,0.034
			c0.095,0.004,0.27,0.016,0.521,0.027c0.255,0.012,0.534,0.024,0.837,0.033s0.601,0.016,0.888,0.022
			c0.288,0.008,0.513,0.011,0.677,0.011c0.155,0,0.318-0.003,0.488-0.011c0.17-0.007,0.326-0.017,0.475-0.037
			c0.146-0.019,0.275-0.046,0.385-0.085c0.109-0.038,0.186-0.086,0.229-0.149c0.125-0.175,0.189-0.66,0.189-1.456
			c0-0.418-0.009-0.882-0.023-1.39C102.21,26.506,102.191,25.978,102.166,25.43z"/>
		<path d="M71.38,25.473c-0.026-0.508-0.054-1.049-0.088-1.625c-0.034-0.577-0.07-1.145-0.108-1.705
			c-0.038-0.561-0.077-1.093-0.113-1.598c-0.037-0.503-0.072-0.936-0.103-1.301c-0.513,0.47-1.062,1.1-1.644,1.888
			c0,0.294,0.011,0.664,0.033,1.108c0.022,0.445,0.051,0.929,0.089,1.452c0.038,0.522,0.079,1.062,0.121,1.619
			c0.045,0.559,0.087,1.093,0.127,1.61c0.042,0.517,0.075,0.995,0.1,1.433c0.024,0.439,0.039,0.798,0.039,1.08
			c0,0.163-0.005,0.335-0.015,0.517c-0.01,0.183-0.027,0.376-0.052,0.581c0.346-0.21,0.755-0.669,1.231-1.37
			c0.313-0.457,0.468-0.931,0.468-1.418c0-0.206-0.007-0.511-0.022-0.91C71.425,26.433,71.406,25.979,71.38,25.473z"/>
		<path d="M95.338,32.759c-0.182-0.119-0.361-0.232-0.539-0.337c-0.178-0.106-0.338-0.201-0.475-0.281
			c-0.063,0.086-0.135,0.194-0.223,0.322c-0.082,0.129-0.172,0.267-0.266,0.414c-0.095,0.147-0.186,0.296-0.273,0.446
			s-0.165,0.292-0.232,0.423l2.017,1.229c0.077-0.102,0.159-0.217,0.257-0.352c0.092-0.135,0.186-0.276,0.275-0.418
			c0.09-0.144,0.176-0.284,0.259-0.422c0.081-0.139,0.149-0.261,0.205-0.367c-0.138-0.094-0.294-0.198-0.471-0.311
			C95.698,32.994,95.519,32.877,95.338,32.759z"/>
		<path d="M67.502,25.43c-0.026-0.549-0.056-1.104-0.09-1.668c-0.034-0.562-0.066-1.114-0.093-1.652
			c-0.029-0.538-0.056-1.051-0.082-1.541c-0.023-0.487-0.043-0.929-0.054-1.324c-0.307,0.245-0.604,0.503-0.893,0.775
			c-0.287,0.272-0.551,0.546-0.788,0.821c0.011,0.344,0.042,0.768,0.089,1.269c0.045,0.5,0.104,1.078,0.173,1.737
			c0.118,1.062,0.208,1.923,0.266,2.579c0.06,0.653,0.089,1.119,0.089,1.395c-0.195,0.024-0.384,0.041-0.577,0.046
			c-0.19,0.007-0.387,0.009-0.586,0.009c-0.237,0-0.472-0.002-0.699-0.009c-0.23-0.006-0.438-0.015-0.621-0.023
			c-0.186-0.01-0.342-0.02-0.475-0.028c-0.131-0.009-0.219-0.017-0.262-0.025c-0.016,0-0.025,0.004-0.039,0.004
			c-0.127-1.913-0.677-3.592-1.652-5.035c-0.445,0.688-0.799,1.367-1.062,2.037c0.876,1.122,1.34,2.21,1.392,3.268
			c-0.125,0.051-0.305,0.104-0.538,0.161c-0.231,0.056-0.474,0.106-0.728,0.15c-0.252,0.044-0.499,0.081-0.735,0.106
			c-0.238,0.028-0.421,0.044-0.555,0.044c-0.2,0-0.37-0.016-0.506-0.052c-0.14-0.034-0.254-0.081-0.348-0.145
			c-0.093-0.063-0.169-0.138-0.225-0.222c-0.057-0.083-0.098-0.174-0.123-0.268c-0.019-0.067-0.036-0.165-0.047-0.286
			c-0.015-0.123-0.026-0.241-0.042-0.355c-0.017-0.116-0.039-0.219-0.065-0.307c-0.029-0.088-0.067-0.132-0.12-0.132
			c-0.086,0-0.181,0.273-0.281,0.817c-0.1,0.52-0.15,1.017-0.15,1.493c0,1.146,0.476,1.719,1.429,1.719
			c0.137,0,0.332-0.016,0.586-0.038c0.254-0.024,0.531-0.059,0.833-0.099c0.301-0.04,0.609-0.089,0.923-0.145
			c0.318-0.058,0.608-0.115,0.874-0.174c0.267-0.061,0.494-0.121,0.681-0.188c0.112-0.038,0.189-0.077,0.25-0.113
			c0.073,0.004,0.154,0.01,0.248,0.015c0.095,0.005,0.267,0.017,0.522,0.028c0.254,0.012,0.531,0.023,0.836,0.033
			c0.302,0.009,0.598,0.016,0.886,0.023c0.289,0.007,0.514,0.01,0.677,0.01c0.156,0,0.319-0.003,0.487-0.01
			c0.169-0.008,0.327-0.019,0.475-0.038c0.146-0.019,0.276-0.047,0.385-0.086c0.109-0.036,0.187-0.086,0.231-0.149
			c0.125-0.174,0.187-0.66,0.187-1.456c0-0.417-0.008-0.881-0.023-1.389C67.547,26.506,67.528,25.978,67.502,25.43z"/>
	</g>
	<g>
		<g>
			<defs>
				<path id="SVGID_1_" d="M191.646,36.239c2.298-0.027,4.479-0.362,6.409-1.013c0.486-0.163,0.949-0.344,1.389-0.541
					c-0.536,1.312-1.326,2.406-2.354,3.22c-2.029,1.493-4.423,2.519-7.022,2.91C190.719,39.69,191.244,38.104,191.646,36.239
					 M180.831,39.427c-0.049-0.04-0.101-0.076-0.158-0.104c-0.904-0.44-1.27-2.455-0.799-5.538c1.737,0.781,3.63,1.4,5.618,1.824
					c1.507,0.322,3.008,0.521,4.476,0.598c-0.72,3.129-1.643,4.772-2.253,4.772c-0.039,0-0.076,0.005-0.114,0.012
					C185.177,40.974,182.882,40.417,180.831,39.427 M172.437,29.463c-0.139-0.528-0.227-1.067-0.262-1.615
					c0.544,0.773,1.207,1.529,1.994,2.259c1.191,1.1,2.605,2.084,4.181,2.929c-0.322,1.801-0.412,3.431-0.208,4.746
					C175.427,35.727,173.394,32.82,172.437,29.463 M192.671,25.092c0-0.637-0.01-1.275-0.027-1.91
					c2.024-0.135,3.899-0.66,5.435-1.543c1.421,2.811,2.184,5.779,2.178,8.579c-0.003,0.812-0.071,1.583-0.2,2.312
					c-0.731,0.447-1.572,0.836-2.52,1.154c-1.681,0.565-3.575,0.875-5.581,0.927C192.438,31.716,192.671,28.357,192.671,25.092
					 M185.832,34.019c-2.017-0.432-3.922-1.072-5.646-1.883c0.566-2.549,1.62-5.636,3.293-9.063c0.242-0.497,0.49-0.984,0.744-1.464
					c1.169,0.524,2.441,0.94,3.773,1.226c1.014,0.218,2.027,0.336,3.02,0.369c0.018,0.61,0.026,1.24,0.026,1.89
					c0,3.833-0.306,7.016-0.748,9.501C188.84,34.528,187.339,34.341,185.832,34.019 M175.275,28.912
					c-1.383-1.278-2.332-2.633-2.816-3.976c0.384-1.505,1.126-3.017,2.22-4.464c1.037-1.373,2.326-2.609,3.806-3.672
					c0.427,0.772,1.025,1.523,1.785,2.238c0.724,0.677,1.567,1.292,2.504,1.829c-0.26,0.489-0.512,0.985-0.757,1.489
					c-1.443,2.959-2.622,6.135-3.315,9.016C177.418,30.647,176.261,29.821,175.275,28.912 M191.565,13.786
					c1.851,1.376,3.548,3.154,4.966,5.233c0.269,0.394,0.523,0.795,0.764,1.199c-1.301,0.751-2.944,1.201-4.72,1.327
					C192.426,18.736,192.093,16.034,191.565,13.786 M188.338,21.241c-1.178-0.251-2.297-0.612-3.328-1.065
					c1.519-2.658,3.18-4.967,4.818-6.684c0.512,2.014,0.941,4.723,1.123,8.08C190.087,21.537,189.21,21.429,188.338,21.241
					 M181.383,17.85c-0.673-0.63-1.186-1.288-1.529-1.948c1.525-0.917,3.214-1.666,5.011-2.205c1.069-0.322,2.152-0.56,3.231-0.726
					c-1.558,1.746-3.115,3.965-4.541,6.471C182.741,18.971,182.01,18.438,181.383,17.85 M177.882,12.664
					c-0.021,0.082-0.046,0.167-0.063,0.251c-0.166,0.768-0.146,1.555,0.048,2.335c-1.752,1.208-3.274,2.637-4.487,4.242
					c-0.369,0.488-0.7,0.988-1,1.49C173.281,17.647,175.242,14.748,177.882,12.664 M179.409,13.255
					c0.181-0.845,0.688-1.599,1.474-2.224c1.899-0.568,4.11-0.43,6.434,0.419c-0.978,0.17-1.955,0.396-2.92,0.688
					c-1.796,0.539-3.489,1.275-5.041,2.171C179.32,13.953,179.336,13.599,179.409,13.255 M192.614,11.11
					c0.559-0.362,1.072-0.611,1.503-0.713c0.816,0.327,1.626,0.745,2.393,1.273C195.279,11.364,193.969,11.177,192.614,11.11
					 M189.872,9.367c0.662,0.074,1.365,0.188,2.089,0.356c-0.453,0.244-0.923,0.548-1.401,0.913
					C190.347,10.156,190.118,9.732,189.872,9.367 M188.108,10.006c-0.736-0.281-1.464-0.499-2.181-0.657
					c0.575-0.063,1.157-0.1,1.75-0.101c0.276,0.004,0.617,0.336,0.973,0.981C188.471,10.152,188.291,10.076,188.108,10.006
					 M170.2,25.12c0,1.664,0.239,3.272,0.675,4.798c0.025,0.103,0.051,0.205,0.081,0.308c0.006,0.02,0.014,0.036,0.021,0.057
					c2.207,7.138,8.868,12.338,16.723,12.338c3.633,0,7.01-1.114,9.81-3.016c0.027-0.015,0.056-0.03,0.082-0.048
					c0.166-0.112,0.327-0.231,0.482-0.356c3.221-2.378,5.599-5.832,6.6-9.829c0.056-0.185,0.105-0.371,0.146-0.56
					c0.009-0.045,0.012-0.09,0.015-0.133c0.237-1.149,0.364-2.34,0.364-3.559c0-2.36-0.464-4.653-1.376-6.811
					c-0.174-0.415-0.652-0.608-1.065-0.432c-0.415,0.173-0.607,0.652-0.434,1.065c0.827,1.955,1.247,4.034,1.247,6.177
					c0,1.313-0.163,2.59-0.466,3.812c-0.239,0.771-0.662,1.483-1.246,2.13c0.014-0.275,0.022-0.556,0.023-0.841
					c0.007-3.121-0.856-6.419-2.459-9.52c1.175-1.007,1.924-2.253,2.181-3.648c0.082-0.442-0.21-0.866-0.652-0.947
					c-0.441-0.083-0.867,0.209-0.948,0.653c-0.17,0.921-0.648,1.766-1.397,2.485c-0.233-0.385-0.476-0.767-0.731-1.143
					c-1.428-2.095-3.125-3.906-4.983-5.352c2.451,0.162,4.719,0.756,6.544,1.775c0.286,0.163,0.666,0.159,0.934-0.065
					c0.347-0.288,0.392-0.801,0.104-1.148C197.85,9.642,193.315,7.62,187.7,7.62C178.051,7.621,170.2,15.471,170.2,25.12"/>
			</defs>
			<clipPath id="SVGID_2_">
				<use xlink:href="#SVGID_1_"  overflow="visible"/>
			</clipPath>
			
				<radialGradient id="SVGID_3_" cx="-142.3787" cy="-310.5283" r="0.477" gradientTransform="matrix(60.7425 0 0 60.7427 8852.0771 18876.4883)" gradientUnits="userSpaceOnUse">
				<stop  offset="0" style="stop-color:#FFFFFF"/>
				<stop  offset="0.0816" style="stop-color:#EBEBEC"/>
				<stop  offset="0.2493" style="stop-color:#BFC1C3"/>
				<stop  offset="0.4867" style="stop-color:#7D7F82"/>
				<stop  offset="0.544" style="stop-color:#6D6E71"/>
				<stop  offset="1" style="stop-color:#000000"/>
			</radialGradient>
			<rect x="170.2" y="7.621" clip-path="url(#SVGID_2_)" fill="url(#SVGID_3_)" width="35" height="35"/>
		</g>
	</g>
</g>
</svg>
