<?xml version="1.0" encoding="utf-8"?>
<!-- Generator: Adobe Illustrator 16.0.0, SVG Export Plug-In . SVG Version: 6.00 Build 0)  -->
<!DOCTYPE svg PUBLIC "-//W3C//DTD SVG 1.1//EN" "http://www.w3.org/Graphics/SVG/1.1/DTD/svg11.dtd">
<svg version="1.1" id="Layer_1" xmlns="http://www.w3.org/2000/svg" xmlns:xlink="http://www.w3.org/1999/xlink" x="0px" y="0px"
	 width="200px" height="34px" viewBox="0 0 200 34" enable-background="new 0 0 200 34" xml:space="preserve">
<g>
	<g>
		<g>
			<g>
				<defs>
					<path id="SVGID_1_" d="M20.741,27.496c2.172-0.027,4.229-0.346,6.051-0.957c0.459-0.156,0.897-0.326,1.312-0.512
						c-0.507,1.238-1.253,2.271-2.222,3.041c-1.915,1.408-4.176,2.377-6.628,2.744C19.869,30.754,20.364,29.256,20.741,27.496
						 M10.535,30.502c-0.045-0.035-0.095-0.07-0.15-0.096c-0.854-0.416-1.199-2.32-0.753-5.229c1.638,0.736,3.426,1.322,5.301,1.723
						c1.423,0.303,2.841,0.494,4.225,0.564c-0.68,2.953-1.55,4.504-2.126,4.504c-0.038,0-0.072,0.006-0.108,0.012
						C14.638,31.963,12.471,31.438,10.535,30.502 M2.612,21.1c-0.13-0.502-0.213-1.008-0.247-1.525
						c0.514,0.729,1.138,1.443,1.884,2.131c1.123,1.041,2.458,1.969,3.945,2.766c-0.302,1.699-0.389,3.238-0.196,4.482
						C5.434,27.01,3.515,24.268,2.612,21.1 M21.711,16.974c0-0.601-0.01-1.202-0.027-1.804c1.91-0.128,3.681-0.623,5.13-1.458
						c1.342,2.654,2.062,5.455,2.056,8.1c-0.001,0.764-0.068,1.492-0.189,2.18c-0.69,0.424-1.485,0.789-2.378,1.09
						c-1.587,0.533-3.374,0.826-5.269,0.875C21.492,23.225,21.711,20.055,21.711,16.974 M15.254,25.398
						c-1.903-0.408-3.7-1.012-5.329-1.777c0.535-2.406,1.529-5.322,3.108-8.556c0.228-0.468,0.462-0.929,0.702-1.381
						c1.103,0.496,2.304,0.888,3.563,1.158c0.956,0.205,1.913,0.316,2.851,0.349c0.017,0.576,0.024,1.17,0.024,1.784
						c0,3.618-0.289,6.62-0.708,8.967C18.094,25.881,16.678,25.703,15.254,25.398 M5.292,20.576c-1.306-1.203-2.203-2.482-2.66-3.75
						c0.362-1.421,1.062-2.848,2.096-4.215c0.979-1.296,2.196-2.462,3.593-3.464c0.401,0.728,0.967,1.438,1.684,2.112
						c0.683,0.64,1.479,1.22,2.363,1.727c-0.245,0.461-0.482,0.93-0.713,1.406c-1.363,2.793-2.477,5.791-3.129,8.511
						C7.312,22.215,6.222,21.436,5.292,20.576 M20.668,6.3c1.746,1.299,3.348,2.978,4.687,4.94c0.254,0.374,0.493,0.751,0.72,1.133
						c-1.228,0.709-2.779,1.132-4.454,1.252C21.479,10.973,21.165,8.423,20.668,6.3 M17.621,13.339
						c-1.113-0.238-2.17-0.579-3.143-1.005c1.434-2.508,3.003-4.689,4.548-6.312c0.483,1.903,0.889,4.458,1.062,7.628
						C19.273,13.618,18.445,13.516,17.621,13.339 M11.057,10.136c-0.637-0.595-1.12-1.215-1.445-1.837
						c1.44-0.867,3.034-1.572,4.731-2.083c1.007-0.304,2.031-0.529,3.049-0.684c-1.471,1.647-2.939,3.743-4.285,6.107
						C12.338,11.196,11.647,10.692,11.057,10.136 M7.75,5.242C7.73,5.32,7.708,5.399,7.69,5.479
						C7.535,6.205,7.553,6.946,7.736,7.683c-1.653,1.14-3.091,2.489-4.235,4.003c-0.349,0.461-0.661,0.931-0.944,1.407
						C3.408,9.947,5.26,7.208,7.75,5.242 M9.192,5.799c0.171-0.797,0.65-1.51,1.392-2.099c1.792-0.536,3.879-0.407,6.072,0.396
						c-0.922,0.16-1.845,0.374-2.756,0.648c-1.694,0.509-3.294,1.204-4.758,2.049C9.108,6.458,9.123,6.125,9.192,5.799
						 M21.656,3.776c0.529-0.34,1.014-0.576,1.419-0.672c0.771,0.31,1.534,0.704,2.258,1.202
						C24.172,4.016,22.937,3.838,21.656,3.776 M19.069,2.131c0.624,0.069,1.289,0.177,1.972,0.336
						c-0.428,0.229-0.873,0.518-1.322,0.862C19.518,2.876,19.301,2.475,19.069,2.131 M17.404,2.733
						c-0.695-0.265-1.382-0.471-2.059-0.619c0.543-0.06,1.093-0.095,1.652-0.096c0.261,0.003,0.583,0.317,0.92,0.925
						C17.747,2.873,17.575,2.8,17.404,2.733 M0.5,17c0,1.569,0.226,3.088,0.637,4.528c0.025,0.1,0.047,0.193,0.076,0.293
						c0.007,0.016,0.015,0.033,0.021,0.053c2.084,6.736,8.372,11.645,15.786,11.645c3.429,0,6.618-1.049,9.261-2.848
						c0.025-0.012,0.053-0.027,0.077-0.043c0.156-0.107,0.309-0.219,0.456-0.334c3.039-2.248,5.284-5.508,6.229-9.279
						c0.053-0.176,0.099-0.352,0.137-0.531c0.01-0.041,0.011-0.082,0.016-0.123c0.223-1.086,0.341-2.211,0.341-3.359
						c0-2.229-0.436-4.392-1.297-6.429c-0.165-0.392-0.615-0.575-1.005-0.41c-0.392,0.165-0.574,0.616-0.409,1.007
						c0.782,1.845,1.177,3.807,1.177,5.83c0,1.24-0.155,2.445-0.44,3.597c-0.227,0.727-0.626,1.398-1.178,2.012
						c0.015-0.262,0.022-0.527,0.023-0.795c0.006-2.947-0.809-6.059-2.321-8.986c1.108-0.952,1.814-2.126,2.059-3.444
						c0.077-0.417-0.199-0.817-0.616-0.894c-0.417-0.079-0.819,0.198-0.895,0.616c-0.16,0.871-0.612,1.668-1.318,2.346
						c-0.22-0.363-0.449-0.724-0.69-1.079c-1.349-1.978-2.951-3.688-4.705-5.052c2.315,0.152,4.456,0.712,6.176,1.675
						c0.271,0.154,0.63,0.149,0.882-0.061c0.327-0.272,0.37-0.757,0.098-1.083C26.6,2.39,22.32,0.482,17.019,0.482
						C7.911,0.482,0.5,7.893,0.5,17"/>
				</defs>
				<clipPath id="SVGID_2_">
					<use xlink:href="#SVGID_1_"  overflow="visible"/>
				</clipPath>
				
					<radialGradient id="SVGID_3_" cx="-94.4863" cy="361.0273" r="0.4512" gradientTransform="matrix(60.7425 0 0 -60.7427 5771.4062 21936.4375)" gradientUnits="userSpaceOnUse">
					<stop  offset="0" style="stop-color:#FFFFFF"/>
					<stop  offset="0.0598" style="stop-color:#E8F6FE"/>
					<stop  offset="0.1829" style="stop-color:#B1E3FA"/>
					<stop  offset="0.3589" style="stop-color:#3EC7F3"/>
					<stop  offset="0.544" style="stop-color:#2BACE2"/>
					<stop  offset="1" style="stop-color:#113154"/>
				</radialGradient>
				<rect x="0.5" y="0.482" clip-path="url(#SVGID_2_)" fill="url(#SVGID_3_)" width="33.035" height="33.036"/>
			</g>
		</g>
	</g>
	<g>
		<g>
			<path fill="#2BACE2" d="M38.986,27.074v-5.617h2.127c1.147,0,1.813,0.434,1.813,1.484c0,0.996-0.595,1.164-0.875,1.164v0.016
				c0.378,0,1.253,0.332,1.253,1.381c0,1.172-0.924,1.57-1.959,1.57h-2.359L38.986,27.074L38.986,27.074z M40.983,23.801
				c0.603,0,0.803-0.295,0.803-0.73c0-0.449-0.297-0.713-0.955-0.713h-0.738v1.443H40.983z M41.104,26.176
				c0.553,0,0.97-0.176,0.97-0.793c0-0.578-0.424-0.803-0.995-0.803h-0.988v1.596H41.104L41.104,26.176z"/>
			<path fill="#2BACE2" d="M43.959,27.074v-5.617h1.106v5.617H43.959z"/>
			<path fill="#2BACE2" d="M50.755,27.061c0,0-0.209,0.053-0.578,0.053c-1.701,0-1.238-2.139-2.423-2.139h-0.595v2.1h-1.108v-5.617
				h1.975c1.379,0,2.117,0.506,2.117,1.766c0,0.828-0.538,1.268-0.972,1.43c0.578,0.473,0.611,1.564,1.35,1.564h0.233v0.844H50.755
				L50.755,27.061z M47.898,24.139c0.667,0,1.155-0.305,1.155-0.885c0-0.561-0.394-0.898-1.067-0.898h-0.827v1.783H47.898z"/>
			<path fill="#2BACE2" d="M51.24,27.074v-5.617h1.646c1.477,0,2.793,0.795,2.793,2.906c0,1.998-1.188,2.711-2.552,2.711H51.24z
				 M53.12,26.176c0.859,0,1.461-0.625,1.461-1.828c0-1.244-0.53-1.988-1.71-1.988H52.35v3.818h0.771V26.176z"/>
			<path fill="#2BACE2" d="M58.967,25.791c-0.578,0-1.034-0.465-1.034-1.043s0.456-1.043,1.034-1.043
				c0.579,0,1.043,0.465,1.043,1.043S59.546,25.791,58.967,25.791z"/>
			<path fill="#2BACE2" d="M62.521,27.074v-5.617h1.108v5.617H62.521z"/>
			<path fill="#2BACE2" d="M64.613,27.074v-5.617h1.646c1.477,0,2.792,0.795,2.792,2.906c0,1.998-1.187,2.711-2.553,2.711H64.613z
				 M66.493,26.176c0.858,0,1.46-0.625,1.46-1.828c0-1.244-0.53-1.988-1.71-1.988h-0.521v3.818h0.772V26.176z"/>
			<path fill="#2BACE2" d="M72.709,25.672h-1.99l-0.474,1.402H69.09l2.062-5.617h1.131l2.062,5.617h-1.147L72.709,25.672z
				 M71.017,24.828h1.411l-0.713-2.037L71.017,24.828z"/>
		</g>
	</g>
	<g>
		<path fill="#113154" d="M38.986,7.865h2.249v8.525h4.412v1.749h-6.66V7.865L38.986,7.865z"/>
		<path fill="#113154" d="M52.18,7.851l3.572,10.288h-2.221l-0.741-2.22h-4.068l-0.769,2.22h-2.106L49.56,7.851H52.18L52.18,7.851z
			 M52.238,14.254l-1.424-4.383l-1.523,4.383H52.238z"/>
		<path fill="#113154" d="M60.693,7.865h3.843c0.597,0,1.751,0,2.533,0.484c0.94,0.596,1.153,1.594,1.153,2.191
			c0,0.385-0.072,1.052-0.598,1.536c-0.071,0.086-0.568,0.541-1.167,0.698v0.028c1.566,0.286,2.178,1.425,2.178,2.504
			c0,1.208-0.711,2.022-1.508,2.421c-0.798,0.41-2.191,0.41-2.59,0.41h-3.843L60.693,7.865L60.693,7.865z M62.801,12.048h1.536
			c0.627,0,1.764,0,1.764-1.323c0-1.281-1.082-1.281-1.809-1.281h-1.492v2.604H62.801z M62.801,16.489h1.493
			c1.011,0,2.15,0,2.15-1.381c0-1.468-1.323-1.468-2.378-1.468h-1.265V16.489z"/>
		<path fill="#113154" d="M75.482,7.851l3.573,10.288h-2.22l-0.74-2.22h-4.07l-0.768,2.22h-2.106l3.714-10.288H75.482z
			 M75.539,14.254l-1.423-4.383l-1.523,4.383H75.539z"/>
		<path fill="#113154" d="M80.238,7.851h3.188l3.854,8.097V7.851h2.05v10.288h-3.032l-3.984-8.537v8.537h-2.08V7.851H80.238z"/>
		<path fill="#113154" d="M100.978,18.166c-0.641-0.012-1.868-0.027-2.535-0.027c-0.255,0-0.969,0.043-1.666,0.072
			c-0.698,0.041-1.381,0.086-1.623,0.086c-3.84,0-4.525-3.572-4.525-5.224c0-2.803,1.468-5.421,4.954-5.421
			c2.66,0,4.638,1.808,4.638,5.18c0,2.335-1.065,3.373-1.55,3.827c0.469-0.085,1.423-0.141,2.305-0.099v1.605H100.978z
			 M95.424,16.702c2.165,0,2.563-2.248,2.563-3.898c0-1.467-0.328-2.164-0.641-2.633c-0.255-0.399-0.854-0.954-1.849-0.954
			c-1.934,0-2.591,1.85-2.591,3.729C92.906,14.396,93.334,16.702,95.424,16.702z"/>
		<path fill="#113154" d="M104.31,7.878v6.264c0,1.123,0.085,2.531,2.235,2.531c0.354,0,1.422-0.014,1.99-0.896
			c0.215-0.312,0.327-0.711,0.327-1.75V7.879h2.149v6.417c0,3.062-2.433,4.043-4.512,4.043c-1.024,0-2.9-0.229-3.871-1.78
			c-0.497-0.783-0.524-1.579-0.524-2.534V7.879h2.203V7.878H104.31z"/>
		<path fill="#113154" d="M113.067,7.851h6.887v1.68h-4.683v2.447h4.384v1.679h-4.384v2.776h4.839v1.707h-7.044L113.067,7.851
			L113.067,7.851z"/>
		<path fill="#113154" d="M125.236,7.851h3.598l2.181,7.485l2.346-7.485h3.503v10.288h-2.192V9.315l-2.804,8.824h-1.821
			l-2.745-8.824v8.824h-2.067V7.851H125.236z"/>
		<path fill="#113154" d="M143.215,7.637c1.093,0,2.604,0.257,3.613,1.395c1.095,1.252,1.31,2.861,1.31,3.871
			c0,1.494-0.452,3.087-1.295,4.027c-1.138,1.282-2.804,1.465-3.658,1.465c-1.352,0-2.704-0.425-3.641-1.406
			c-1.123-1.196-1.268-2.904-1.268-3.843C138.276,10.412,139.513,7.637,143.215,7.637z M141.352,15.948
			c0.313,0.427,0.839,0.825,1.864,0.825c0.896,0,1.508-0.312,1.921-0.954c0.341-0.511,0.696-1.308,0.696-2.945
			c0-0.497-0.042-1.208-0.258-1.835c-0.428-1.268-1.294-1.821-2.348-1.821c-0.823,0-1.479,0.341-1.892,0.868
			c-0.583,0.713-0.755,1.822-0.755,2.988C140.581,14.055,140.738,15.152,141.352,15.948z"/>
		<path fill="#113154" d="M149.635,7.851h3.188l3.856,8.097V7.851h2.049v10.288h-3.031l-3.982-8.537v8.537h-2.08V7.851
			L149.635,7.851z"/>
		<path fill="#113154" d="M160.47,7.878l3.4,0.015c0.568,0,2.304,0.014,3.543,0.925c1.293,0.952,1.749,2.575,1.749,4.042
			c0,3.158-1.691,4.809-3.64,5.163c-0.387,0.072-0.813,0.115-1.854,0.115h-3.199V7.878L160.47,7.878z M162.703,16.445
			c0.241,0.016,0.612,0.029,0.867,0.029c0.941,0,1.75-0.071,2.392-0.714c0.868-0.866,0.925-2.403,0.925-2.9
			c0-1.453-0.499-2.79-1.879-3.174c-0.453-0.128-1.038-0.198-2.305-0.142V16.445L162.703,16.445z"/>
		<path fill="#113154" d="M170.532,7.822h2.206v10.316h-2.206V7.822z"/>
		<path fill="#113154" d="M179.896,7.851l3.573,10.288h-2.222l-0.741-2.22h-4.069l-0.769,2.22h-2.106l3.717-10.288H179.896z
			 M179.956,14.254l-1.425-4.383l-1.521,4.383H179.956z"/>
		<path fill="#113154" d="M184.613,7.865h2.247v8.525h4.411v1.749h-6.658V7.865z"/>
		<path fill="#113154" d="M192.454,7.851h6.89v1.68h-4.683v2.447h4.384v1.679h-4.384v2.776h4.839v1.707h-7.046V7.851L192.454,7.851z
			"/>
	</g>
</g>
</svg>
