<?xml version="1.0" encoding="utf-8"?>
<!-- Generator: Adobe Illustrator 16.0.0, SVG Export Plug-In . SVG Version: 6.00 Build 0)  -->
<!DOCTYPE svg PUBLIC "-//W3C//DTD SVG 1.1//EN" "http://www.w3.org/Graphics/SVG/1.1/DTD/svg11.dtd">
<svg version="1.1" id="Layer_1" xmlns="http://www.w3.org/2000/svg" xmlns:xlink="http://www.w3.org/1999/xlink" x="0px" y="0px"
	 width="25px" height="25px" viewBox="0 0 25 25" style="enable-background:new 0 0 25 25;" xml:space="preserve">
<style type="text/css">
<![CDATA[
	.st0{fill:#E33129;}
	.st1{fill:#FFFFFF;}
]]>
</style>
<g id="youtube">
	<circle class="st0" cx="12.5" cy="12.5" r="12.5"/>
	<g>
		<path class="st1" d="M19.4,11.4c0,0.3,0,0.7,0,1.2c0,0.5,0,0.9,0,1.2c0,0.3,0,0.6-0.1,1c0,0.4-0.1,0.8-0.2,1.1
			c-0.1,0.4-0.3,0.7-0.5,0.9c-0.3,0.3-0.6,0.4-1,0.4c-1.1,0.1-2.9,0.2-5.1,0.2s-4-0.1-5.1-0.2c-0.4,0-0.7-0.2-1-0.4
			c-0.3-0.3-0.5-0.6-0.5-0.9c-0.1-0.3-0.1-0.7-0.2-1.1c0-0.4-0.1-0.8-0.1-1c0-0.3,0-0.7,0-1.2c0-0.5,0-0.9,0-1.2c0-0.3,0-0.6,0.1-1
			c0-0.4,0.1-0.8,0.2-1.1C6,8.9,6.1,8.6,6.4,8.3s0.6-0.4,1-0.4c1.1-0.1,2.9-0.2,5.1-0.2c2.3,0,4,0.1,5.1,0.2c0.4,0,0.7,0.2,1,0.4
			c0.3,0.3,0.5,0.6,0.5,0.9c0.1,0.3,0.1,0.7,0.2,1.1C19.3,10.8,19.4,11.1,19.4,11.4z M15.4,12.6c0-0.2-0.1-0.3-0.2-0.4l-3.9-2.5
			c-0.2-0.1-0.3-0.1-0.5,0c-0.2,0.1-0.3,0.2-0.3,0.4V15c0,0.2,0.1,0.3,0.3,0.4c0.1,0,0.2,0.1,0.2,0.1c0.1,0,0.2,0,0.3-0.1l3.9-2.5
			C15.4,12.9,15.4,12.8,15.4,12.6z"/>
	</g>
</g>
<g>
</g>
<g>
</g>
<g>
</g>
<g>
</g>
<g>
</g>
<g>
</g>
</svg>
