<?xml version="1.0" encoding="utf-8"?>
<!-- Generator: Adobe Illustrator 16.0.0, SVG Export Plug-In . SVG Version: 6.00 Build 0)  -->
<!DOCTYPE svg PUBLIC "-//W3C//DTD SVG 1.1//EN" "http://www.w3.org/Graphics/SVG/1.1/DTD/svg11.dtd">
<svg version="1.1" id="Layer_1" xmlns="http://www.w3.org/2000/svg" xmlns:xlink="http://www.w3.org/1999/xlink" x="0px" y="0px"
	 width="25px" height="25px" viewBox="0 0 25 25" style="enable-background:new 0 0 25 25;" xml:space="preserve">
<style type="text/css">
<![CDATA[
	.st0{fill:#FFFFFF;}
	.st1{fill:#0A7BBA;}
]]>
</style>
<g id="linkedin">
	<circle class="st1" cx="12.5" cy="12.5" r="12.5"/>
	<g>
		<path class="st0" d="M8.6,7c0,0.5-0.2,0.9-0.5,1.2S7.3,8.6,6.8,8.6h0c-0.5,0-1-0.2-1.3-0.5C5.2,7.8,5,7.4,5,7
			c0-0.5,0.2-0.9,0.5-1.2c0.3-0.3,0.8-0.5,1.3-0.5s1,0.2,1.3,0.5C8.4,6.1,8.6,6.5,8.6,7z M8.4,9.9v9.7H5.2V9.9H8.4z M20,14.1v5.5
			h-3.2v-5.2c0-0.7-0.1-1.2-0.4-1.6c-0.3-0.4-0.7-0.6-1.2-0.6c-0.4,0-0.8,0.1-1,0.3c-0.3,0.2-0.5,0.5-0.6,0.8
			c-0.1,0.2-0.1,0.5-0.1,0.8v5.4h-3.2c0-2.6,0-4.7,0-6.3c0-1.6,0-2.6,0-2.9l0-0.5h3.2v1.4h0c0.1-0.2,0.3-0.4,0.4-0.5
			c0.1-0.2,0.3-0.3,0.6-0.5c0.2-0.2,0.5-0.3,0.8-0.4c0.3-0.1,0.7-0.2,1.1-0.2c1.1,0,2,0.4,2.7,1.1C19.7,11.6,20,12.6,20,14.1z"/>
	</g>
</g>
<g>
</g>
<g>
</g>
<g>
</g>
<g>
</g>
<g>
</g>
<g>
</g>
</svg>
