<?xml version="1.0" encoding="utf-8"?>
<!-- Generator: Adobe Illustrator 16.0.0, SVG Export Plug-In . SVG Version: 6.00 Build 0)  -->
<!DOCTYPE svg PUBLIC "-//W3C//DTD SVG 1.1//EN" "http://www.w3.org/Graphics/SVG/1.1/DTD/svg11.dtd">
<svg version="1.1" xmlns="http://www.w3.org/2000/svg" xmlns:xlink="http://www.w3.org/1999/xlink" x="0px" y="0px" width="25px"
	 height="25px" viewBox="0 0 25 25" enable-background="new 0 0 25 25" xml:space="preserve">
<g id="stumbleupon" display="none">
	<circle display="inline" fill="#E64F25" cx="12.5" cy="12.5" r="12.5"/>
	<g display="inline">
		<path fill="#FFFFFF" d="M13.306,11.117v-0.933c0-0.222-0.08-0.411-0.238-0.569S12.72,9.377,12.5,9.377s-0.412,0.079-0.57,0.237
			c-0.156,0.158-0.236,0.348-0.236,0.569v4.838c0,0.922-0.332,1.71-0.996,2.364c-0.664,0.653-1.462,0.98-2.395,0.98
			c-0.938,0-1.738-0.331-2.399-0.992c-0.662-0.662-0.992-1.461-0.992-2.399v-2.103h2.593v2.071c0,0.227,0.079,0.418,0.237,0.573
			c0.158,0.156,0.348,0.233,0.569,0.233c0.221,0,0.411-0.078,0.569-0.233c0.158-0.155,0.237-0.346,0.237-0.573v-4.901
			c0-0.901,0.333-1.67,1-2.308c0.667-0.638,1.461-0.957,2.383-0.957c0.928,0,1.723,0.321,2.387,0.964s0.996,1.418,0.996,2.324v1.075
			l-1.541,0.458L13.306,11.117z M17.496,12.872h2.594v2.103c0,0.938-0.332,1.738-0.992,2.399c-0.662,0.661-1.463,0.992-2.4,0.992
			c-0.932,0-1.73-0.328-2.395-0.984s-0.996-1.448-0.996-2.375v-2.119l1.035,0.482l1.541-0.458v2.135c0,0.221,0.08,0.41,0.238,0.565
			c0.158,0.156,0.348,0.233,0.568,0.233s0.412-0.078,0.57-0.233c0.156-0.155,0.236-0.344,0.236-0.565V12.872z"/>
	</g>
</g>
<g id="QQ" display="none">
	<circle display="inline" cx="12.5" cy="12.5" r="12.5"/>
	<g display="inline">
		<path fill="#FFFFFF" d="M7.551,11.86c-0.042-0.1-0.063-0.237-0.063-0.411c0-0.105,0.029-0.234,0.087-0.387
			s0.121-0.271,0.189-0.356c-0.005-0.116,0.015-0.255,0.06-0.419c0.044-0.163,0.104-0.276,0.178-0.34
			c0-0.732,0.244-1.493,0.731-2.281c0.487-0.788,1.061-1.34,1.719-1.656c0.733-0.348,1.586-0.521,2.561-0.521
			c0.701,0,1.402,0.145,2.104,0.435c0.258,0.111,0.496,0.237,0.711,0.379c0.217,0.143,0.404,0.29,0.562,0.443
			s0.303,0.332,0.434,0.538c0.133,0.206,0.242,0.4,0.332,0.585s0.176,0.407,0.258,0.668s0.148,0.497,0.201,0.708
			c0.053,0.211,0.111,0.469,0.174,0.775l0.008,0.04c0.291,0.438,0.436,0.833,0.436,1.186c0,0.074-0.023,0.179-0.072,0.316
			c-0.047,0.137-0.07,0.237-0.07,0.3c0,0.005,0.004,0.015,0.012,0.028s0.018,0.026,0.027,0.04c0.012,0.013,0.016,0.022,0.016,0.027
			c0.406,0.601,0.725,1.166,0.953,1.696s0.344,1.079,0.344,1.648c0,0.227-0.051,0.49-0.154,0.791
			c-0.102,0.3-0.248,0.451-0.438,0.451c-0.049,0-0.1-0.02-0.154-0.06c-0.057-0.04-0.105-0.085-0.15-0.138s-0.096-0.121-0.15-0.206
			c-0.057-0.084-0.098-0.154-0.127-0.209s-0.064-0.124-0.107-0.206c-0.041-0.082-0.064-0.128-0.07-0.138
			c-0.006-0.005-0.014-0.008-0.023-0.008l-0.039,0.031c-0.312,0.812-0.66,1.399-1.045,1.763c0.105,0.105,0.268,0.207,0.486,0.304
			s0.4,0.207,0.547,0.328c0.145,0.121,0.238,0.292,0.279,0.514c-0.01,0.021-0.021,0.063-0.031,0.126
			c-0.01,0.063-0.029,0.111-0.055,0.143c-0.338,0.511-1.135,0.767-2.389,0.767c-0.279,0-0.57-0.023-0.873-0.071
			c-0.303-0.048-0.561-0.101-0.775-0.158c-0.213-0.058-0.488-0.137-0.826-0.237c-0.078-0.026-0.139-0.045-0.182-0.055
			c-0.072-0.021-0.195-0.033-0.363-0.036c-0.168-0.003-0.273-0.007-0.316-0.012c-0.215,0.237-0.551,0.408-1.008,0.514
			c-0.455,0.105-0.9,0.158-1.332,0.158c-0.185,0-0.367-0.004-0.545-0.012c-0.179-0.008-0.424-0.031-0.735-0.071
			s-0.577-0.094-0.798-0.162c-0.222-0.069-0.418-0.174-0.589-0.316c-0.171-0.142-0.257-0.311-0.257-0.506
			c0-0.211,0.026-0.368,0.079-0.47c0.053-0.103,0.161-0.231,0.324-0.384c0.058-0.01,0.165-0.044,0.32-0.103
			c0.155-0.058,0.286-0.089,0.391-0.095c0.021,0,0.058-0.005,0.111-0.016c0.01-0.01,0.016-0.021,0.016-0.031l-0.016-0.024
			c-0.253-0.058-0.538-0.336-0.854-0.834c-0.316-0.498-0.508-0.91-0.577-1.237l-0.04-0.023c-0.021,0-0.053,0.053-0.095,0.158
			c-0.095,0.216-0.238,0.413-0.431,0.589c-0.192,0.176-0.396,0.275-0.613,0.296H5.828c-0.021,0-0.037-0.012-0.047-0.036
			c-0.011-0.024-0.024-0.038-0.04-0.043c-0.122-0.285-0.182-0.548-0.182-0.791C5.559,14.095,6.223,12.867,7.551,11.86z"/>
	</g>
</g>
<g id="weibo" display="none">
	<circle display="inline" fill="#E41E27" cx="12.5" cy="12.5" r="12.5"/>
	<g display="inline">
		<path fill="#FFFFFF" d="M18.544,14.558c0,0.411-0.111,0.833-0.334,1.265c-0.225,0.432-0.555,0.846-0.988,1.242
			c-0.436,0.396-0.945,0.751-1.529,1.065c-0.582,0.314-1.266,0.565-2.049,0.752c-0.783,0.188-1.6,0.281-2.453,0.281
			c-0.852,0-1.683-0.101-2.493-0.304s-1.537-0.483-2.181-0.843c-0.644-0.36-1.162-0.816-1.555-1.369
			c-0.393-0.553-0.589-1.156-0.589-1.809c0-0.695,0.21-1.436,0.63-2.222c0.42-0.786,1.017-1.566,1.791-2.34
			c1.022-1.021,2.054-1.735,3.097-2.14c1.043-0.405,1.787-0.384,2.234,0.063c0.393,0.387,0.453,1.019,0.182,1.895
			c-0.023,0.084-0.027,0.145-0.008,0.181c0.018,0.037,0.047,0.058,0.09,0.063c0.043,0.006,0.086,0.005,0.131-0.004
			s0.086-0.02,0.123-0.032l0.055-0.018c0.84-0.356,1.584-0.535,2.23-0.535s1.109,0.185,1.387,0.553c0.273,0.381,0.273,0.919,0,1.614
			c-0.012,0.079-0.025,0.139-0.041,0.181c-0.014,0.042,0,0.08,0.041,0.113c0.043,0.033,0.078,0.056,0.109,0.068
			c0.029,0.012,0.082,0.03,0.154,0.054c0.344,0.109,0.656,0.251,0.934,0.426s0.52,0.421,0.727,0.739
			C18.443,13.819,18.544,14.171,18.544,14.558z M15.751,14.522c-0.053-0.581-0.322-1.094-0.807-1.542
			c-0.482-0.448-1.113-0.777-1.891-0.989c-0.777-0.211-1.605-0.275-2.488-0.19c-1.348,0.139-2.465,0.567-3.351,1.283
			s-1.286,1.516-1.202,2.398c0.055,0.581,0.324,1.094,0.807,1.542c0.484,0.448,1.114,0.777,1.891,0.989
			c0.777,0.211,1.606,0.275,2.489,0.19c1.348-0.139,2.465-0.567,3.35-1.283C15.437,16.204,15.837,15.404,15.751,14.522z
			 M12.923,15.973c-0.271,0.617-0.75,1.07-1.434,1.36c-0.682,0.29-1.359,0.326-2.03,0.109c-0.647-0.206-1.092-0.588-1.337-1.147
			c-0.245-0.559-0.225-1.125,0.059-1.7c0.284-0.562,0.742-0.982,1.374-1.26s1.268-0.335,1.908-0.172
			c0.672,0.175,1.15,0.537,1.438,1.083C13.187,14.792,13.195,15.368,12.923,15.973z M10.493,16.1c0.127-0.206,0.16-0.414,0.1-0.625
			c-0.061-0.212-0.197-0.363-0.408-0.454c-0.206-0.084-0.426-0.087-0.662-0.009c-0.235,0.079-0.417,0.217-0.544,0.417
			c-0.133,0.206-0.172,0.413-0.118,0.621c0.054,0.208,0.184,0.361,0.39,0.458s0.431,0.104,0.676,0.022
			C10.171,16.449,10.36,16.305,10.493,16.1z M11.345,15.002c0.049-0.079,0.059-0.159,0.031-0.24s-0.08-0.138-0.158-0.168
			c-0.084-0.03-0.17-0.028-0.258,0.005s-0.153,0.089-0.195,0.167c-0.103,0.188-0.063,0.324,0.118,0.408
			c0.084,0.03,0.173,0.029,0.263-0.004S11.302,15.081,11.345,15.002z M19.515,7.421c0.525,0.581,0.867,1.253,1.02,2.018
			c0.154,0.765,0.115,1.495-0.121,2.19c-0.055,0.164-0.158,0.285-0.309,0.363c-0.15,0.079-0.309,0.091-0.471,0.037
			c-0.164-0.055-0.285-0.157-0.363-0.309c-0.078-0.151-0.094-0.308-0.045-0.472c0.168-0.496,0.199-1.016,0.09-1.56
			s-0.352-1.021-0.725-1.433c-0.375-0.417-0.822-0.706-1.344-0.866c-0.52-0.16-1.041-0.186-1.568-0.077
			c-0.168,0.036-0.326,0.007-0.471-0.086s-0.236-0.225-0.271-0.395c-0.037-0.169-0.008-0.325,0.086-0.467s0.225-0.231,0.395-0.268
			c0.742-0.157,1.48-0.123,2.211,0.104C18.361,6.429,18.99,6.835,19.515,7.421z M16.958,8.306c0.357,0.112,0.662,0.31,0.916,0.594
			s0.418,0.612,0.494,0.983c0.076,0.372,0.055,0.727-0.059,1.066c-0.049,0.139-0.139,0.242-0.268,0.308
			c-0.131,0.066-0.266,0.079-0.404,0.036c-0.139-0.048-0.242-0.137-0.309-0.268c-0.066-0.13-0.078-0.264-0.035-0.403
			c0.121-0.381,0.047-0.716-0.219-1.006c-0.266-0.291-0.59-0.396-0.971-0.317c-0.145,0.03-0.279,0.006-0.406-0.073
			s-0.203-0.19-0.229-0.335c-0.029-0.145-0.006-0.28,0.074-0.403c0.078-0.124,0.189-0.201,0.334-0.231
			C16.242,8.177,16.601,8.194,16.958,8.306z"/>
	</g>
</g>
<g id="VK">
	<circle fill="#45668F" cx="12.5" cy="12.5" r="12.5"/>
	<g>
		<path fill="#FFFFFF" d="M21.181,9.172c0.141,0.387-0.314,1.275-1.359,2.666c-0.145,0.193-0.342,0.45-0.59,0.771
			c-0.471,0.604-0.742,1-0.816,1.188c-0.102,0.248-0.061,0.493,0.127,0.734c0.104,0.127,0.348,0.375,0.734,0.744h0.01l0.01,0.009
			l0.008,0.009l0.02,0.018c0.852,0.792,1.43,1.46,1.73,2.004c0.02,0.03,0.039,0.068,0.061,0.113c0.02,0.045,0.041,0.125,0.062,0.24
			s0.02,0.218-0.004,0.308c-0.025,0.091-0.1,0.174-0.227,0.25s-0.307,0.113-0.535,0.113l-2.322,0.036
			c-0.145,0.03-0.314,0.015-0.508-0.045c-0.193-0.061-0.35-0.127-0.471-0.2l-0.182-0.109c-0.182-0.127-0.393-0.32-0.635-0.58
			c-0.242-0.26-0.449-0.495-0.621-0.703s-0.357-0.384-0.553-0.526c-0.197-0.142-0.367-0.189-0.514-0.141
			c-0.018,0.006-0.041,0.017-0.072,0.032c-0.029,0.015-0.082,0.059-0.154,0.132c-0.072,0.072-0.137,0.162-0.193,0.267
			c-0.059,0.106-0.109,0.263-0.154,0.472c-0.047,0.208-0.066,0.443-0.061,0.703c0,0.091-0.01,0.174-0.031,0.25
			s-0.043,0.131-0.068,0.168l-0.035,0.045c-0.109,0.115-0.27,0.181-0.48,0.199h-1.043c-0.43,0.024-0.871-0.025-1.324-0.149
			c-0.454-0.124-0.851-0.284-1.192-0.481c-0.342-0.196-0.653-0.396-0.934-0.598s-0.494-0.376-0.639-0.521l-0.227-0.218
			c-0.061-0.06-0.144-0.151-0.249-0.272c-0.106-0.121-0.322-0.396-0.648-0.825c-0.327-0.429-0.647-0.886-0.961-1.369
			c-0.314-0.484-0.685-1.122-1.111-1.914c-0.426-0.792-0.82-1.614-1.183-2.466C3.808,9.429,3.79,9.347,3.79,9.281
			c0-0.067,0.009-0.115,0.027-0.146l0.036-0.054C3.944,8.966,4.116,8.909,4.37,8.909l2.484-0.018
			C6.927,8.903,6.997,8.922,7.063,8.95C7.13,8.977,7.178,9.002,7.208,9.027l0.045,0.027c0.096,0.067,0.169,0.164,0.217,0.29
			c0.121,0.303,0.26,0.615,0.417,0.939c0.157,0.323,0.281,0.57,0.372,0.739l0.145,0.263c0.175,0.363,0.345,0.677,0.508,0.943
			s0.31,0.473,0.44,0.621c0.13,0.148,0.255,0.265,0.376,0.349c0.121,0.085,0.224,0.127,0.309,0.127c0.084,0,0.166-0.015,0.245-0.045
			c0.012-0.006,0.027-0.021,0.045-0.045c0.018-0.024,0.055-0.091,0.109-0.2s0.095-0.251,0.123-0.426
			c0.027-0.175,0.056-0.42,0.086-0.734s0.03-0.692,0-1.134c-0.012-0.242-0.04-0.462-0.082-0.662c-0.042-0.2-0.085-0.338-0.127-0.417
			l-0.054-0.108c-0.151-0.206-0.408-0.335-0.771-0.39C9.533,9.15,9.548,9.078,9.657,8.945C9.759,8.83,9.875,8.74,10.001,8.673
			c0.32-0.157,1.043-0.229,2.168-0.217c0.494,0.006,0.902,0.045,1.223,0.118c0.121,0.03,0.223,0.071,0.305,0.123
			s0.143,0.124,0.186,0.217c0.043,0.094,0.074,0.19,0.096,0.291c0.021,0.1,0.031,0.237,0.031,0.413S14.005,9.958,14,10.115
			s-0.014,0.371-0.021,0.639c-0.01,0.269-0.014,0.519-0.014,0.748c0,0.067-0.004,0.194-0.01,0.381
			c-0.006,0.188-0.008,0.333-0.004,0.436c0.002,0.103,0.014,0.225,0.031,0.367s0.053,0.26,0.104,0.354
			c0.053,0.094,0.121,0.168,0.205,0.222c0.049,0.012,0.1,0.024,0.154,0.037s0.133-0.021,0.236-0.1
			c0.102-0.078,0.217-0.183,0.344-0.312c0.127-0.13,0.283-0.333,0.471-0.608c0.188-0.275,0.395-0.6,0.617-0.975
			c0.363-0.629,0.686-1.309,0.971-2.041c0.023-0.06,0.055-0.113,0.09-0.159c0.037-0.045,0.07-0.077,0.1-0.095l0.037-0.027
			c0.012-0.006,0.027-0.014,0.045-0.023c0.018-0.009,0.059-0.018,0.119-0.027c0.059-0.009,0.119-0.011,0.18-0.005l2.613-0.018
			c0.234-0.03,0.428-0.022,0.58,0.023c0.15,0.045,0.244,0.095,0.281,0.149L21.181,9.172z"/>
	</g>
</g>
<g id="apps" display="none">
	<circle display="inline" fill="#6E2B8A" cx="12.5" cy="12.5" r="12.5"/>
	<g display="inline">
		<path fill="#FFFFFF" d="M17.857,5.725v13.793c0,0.467-0.178,0.871-0.531,1.212s-0.771,0.512-1.254,0.512H8.928
			c-0.484,0-0.902-0.17-1.255-0.512c-0.354-0.341-0.53-0.746-0.53-1.212V5.725c0-0.467,0.177-0.871,0.53-1.212
			C8.026,4.171,8.444,4,8.928,4h7.144c0.482,0,0.9,0.171,1.254,0.512C17.679,4.854,17.857,5.258,17.857,5.725z M16.517,17.363V7.88
			c0-0.117-0.045-0.218-0.133-0.303c-0.088-0.085-0.193-0.128-0.312-0.128H8.928c-0.121,0-0.226,0.043-0.314,0.128
			C8.526,7.662,8.482,7.763,8.482,7.88v9.483c0,0.117,0.044,0.218,0.132,0.303s0.193,0.128,0.314,0.128h7.144
			c0.119,0,0.225-0.042,0.312-0.128S16.517,17.479,16.517,17.363z M13.839,5.94c0-0.143-0.074-0.215-0.225-0.215h-2.23
			c-0.15,0-0.225,0.072-0.225,0.215c0,0.144,0.074,0.216,0.225,0.216h2.23C13.765,6.156,13.839,6.084,13.839,5.94z M13.289,20.279
			c0.217-0.211,0.326-0.465,0.326-0.761s-0.109-0.55-0.326-0.761c-0.219-0.211-0.482-0.316-0.789-0.316s-0.57,0.105-0.789,0.316
			c-0.217,0.211-0.326,0.465-0.326,0.761s0.109,0.55,0.326,0.761c0.219,0.211,0.482,0.316,0.789,0.316S13.07,20.49,13.289,20.279z"
			/>
	</g>
</g>
<g id="whatsup" display="none">
	<circle display="inline" fill="#45B649" cx="12.5" cy="12.5" r="12.5"/>
	<g display="inline">
		<path fill="#FFFFFF" d="M9.586,5.124c0.973-0.418,1.994-0.628,3.06-0.628s2.088,0.209,3.061,0.628s1.811,0.98,2.516,1.685
			s1.266,1.543,1.686,2.517c0.418,0.973,0.627,1.993,0.627,3.06c0,1.067-0.209,2.087-0.627,3.061
			c-0.42,0.973-0.98,1.812-1.686,2.517s-1.543,1.266-2.516,1.685c-0.973,0.418-1.994,0.627-3.061,0.627
			c-1.359,0-2.633-0.328-3.818-0.983l-4.363,1.402l1.423-4.237c-0.753-1.242-1.13-2.598-1.13-4.07c0-1.067,0.209-2.087,0.628-3.06
			c0.418-0.973,0.98-1.812,1.685-2.517C7.774,6.104,8.613,5.542,9.586,5.124z M12.646,18.956c0.885,0,1.734-0.174,2.547-0.523
			s1.512-0.816,2.098-1.402s1.055-1.285,1.402-2.098c0.35-0.812,0.523-1.662,0.523-2.548c0-0.886-0.174-1.735-0.523-2.547
			c-0.348-0.813-0.816-1.512-1.402-2.098s-1.285-1.053-2.098-1.402s-1.662-0.523-2.547-0.523c-0.887,0-1.735,0.175-2.547,0.523
			S8.587,7.153,8.001,7.739S6.948,9.024,6.599,9.837c-0.349,0.812-0.523,1.662-0.523,2.547c0,1.416,0.418,2.7,1.255,3.851
			l-0.827,2.438l2.532-0.806C10.139,18.593,11.341,18.956,12.646,18.956z M14.226,13.918c0.271-0.338,0.453-0.508,0.543-0.508
			c0.092,0,0.432,0.154,1.021,0.46c0.588,0.307,0.9,0.492,0.936,0.555c0.014,0.035,0.021,0.087,0.021,0.157
			c0,0.23-0.059,0.496-0.178,0.795c-0.111,0.272-0.359,0.5-0.744,0.685c-0.383,0.185-0.738,0.277-1.066,0.277
			c-0.396,0-1.061-0.216-1.988-0.648c-0.684-0.314-1.275-0.726-1.778-1.235c-0.502-0.509-1.019-1.154-1.548-1.936
			c-0.502-0.747-0.75-1.423-0.743-2.03v-0.084c0.021-0.634,0.279-1.186,0.774-1.653c0.167-0.153,0.349-0.23,0.544-0.23
			c0.042,0,0.105,0.005,0.188,0.016c0.083,0.011,0.15,0.016,0.199,0.016c0.132,0,0.225,0.022,0.277,0.068s0.106,0.141,0.162,0.288
			c0.056,0.14,0.17,0.446,0.344,0.921c0.176,0.474,0.262,0.736,0.262,0.785c0,0.146-0.119,0.347-0.359,0.602
			c-0.241,0.255-0.362,0.417-0.362,0.486c0,0.049,0.018,0.102,0.053,0.157c0.237,0.509,0.592,0.987,1.067,1.434
			c0.391,0.37,0.916,0.722,1.58,1.057c0.084,0.049,0.16,0.073,0.23,0.073C13.765,14.425,13.955,14.256,14.226,13.918z"/>
	</g>
</g>
<g id="slideshare" display="none">
	<circle display="inline" cx="12.5" cy="12.5" r="12.5"/>
	<g display="inline">
		<path fill="#FFFFFF" d="M19.757,12.734c-0.676,0.832-1.713,1.535-3.113,2.109c0.469,1.59,0.404,2.888-0.193,3.893
			c-0.369,0.63-0.879,1.043-1.531,1.239c-0.58,0.178-1.088,0.137-1.523-0.125c-0.48-0.285-0.709-0.742-0.688-1.373l-0.008-2.729
			v-0.008c-0.045-0.011-0.113-0.028-0.205-0.05s-0.158-0.036-0.197-0.042l-0.008,2.829c0.021,0.636-0.209,1.094-0.695,1.373
			c-0.439,0.262-0.951,0.304-1.531,0.125c-0.653-0.201-1.161-0.62-1.523-1.256c-0.586-1.004-0.647-2.296-0.184-3.875
			c-1.401-0.575-2.438-1.278-3.114-2.109c-0.14-0.206-0.15-0.382-0.033-0.527c0.117-0.145,0.284-0.142,0.502,0.009
			c0.017,0.011,0.047,0.031,0.092,0.059c0.044,0.028,0.075,0.05,0.092,0.067V6.532c0-0.402,0.131-0.745,0.394-1.03
			s0.58-0.427,0.954-0.427h10.522c0.373,0,0.691,0.142,0.953,0.427c0.264,0.285,0.395,0.628,0.395,1.03v5.809l0.176-0.125
			c0.217-0.151,0.385-0.154,0.502-0.009C19.908,12.352,19.896,12.528,19.757,12.734z M18.392,12.776V7.193
			c0-0.485-0.088-0.83-0.268-1.034c-0.178-0.204-0.488-0.306-0.93-0.306H7.888c-0.463,0-0.777,0.095-0.941,0.285
			C6.781,6.328,6.699,6.68,6.699,7.193v5.633c0.24,0.128,0.487,0.24,0.741,0.335c0.254,0.095,0.48,0.173,0.678,0.234
			c0.198,0.062,0.424,0.113,0.678,0.155s0.452,0.072,0.594,0.092c0.143,0.02,0.338,0.031,0.586,0.034
			c0.249,0.003,0.412,0.004,0.49,0.004s0.236-0.006,0.473-0.017c0.236-0.011,0.361-0.017,0.373-0.017
			c0.379-0.005,0.645,0.07,0.795,0.226c0.033,0.033,0.061,0.059,0.084,0.075c0.145,0.14,0.314,0.282,0.51,0.427
			c0.039-0.507,0.369-0.75,0.988-0.728c0.027,0,0.129,0.004,0.305,0.013s0.297,0.014,0.359,0.017
			c0.064,0.003,0.191,0.005,0.381,0.008c0.191,0.003,0.338,0,0.445-0.008c0.105-0.008,0.258-0.021,0.455-0.038
			c0.199-0.017,0.369-0.041,0.512-0.071c0.141-0.031,0.314-0.068,0.518-0.113c0.205-0.045,0.391-0.099,0.561-0.164
			c0.172-0.064,0.359-0.139,0.566-0.226C17.996,12.978,18.197,12.882,18.392,12.776z M12.308,11.269
			c0,0.463-0.178,0.861-0.533,1.193c-0.354,0.332-0.779,0.498-1.275,0.498c-0.497,0-0.922-0.166-1.277-0.498
			c-0.354-0.332-0.531-0.729-0.531-1.193c0-0.469,0.177-0.867,0.531-1.197c0.354-0.329,0.78-0.494,1.277-0.494
			c0.497,0,0.922,0.165,1.275,0.494C12.13,10.402,12.308,10.8,12.308,11.269z M16.509,11.269c0,0.463-0.176,0.861-0.527,1.193
			s-0.779,0.498-1.281,0.498c-0.496,0-0.922-0.166-1.275-0.498c-0.355-0.332-0.531-0.729-0.531-1.193
			c0-0.469,0.176-0.867,0.531-1.197c0.354-0.329,0.779-0.494,1.275-0.494c0.502,0,0.93,0.165,1.281,0.494
			C16.333,10.402,16.509,10.8,16.509,11.269z"/>
	</g>
</g>
<g id="tumblr" display="none">
	<circle display="inline" fill="#36465C" cx="12.5" cy="12.5" r="12.5"/>
	<g display="inline">
		<path fill="#FFFFFF" d="M16.718,16.816l0.781,2.314c-0.15,0.228-0.512,0.443-1.084,0.645s-1.148,0.306-1.729,0.312
			c-0.678,0.013-1.297-0.072-1.859-0.254c-0.564-0.182-1.027-0.423-1.393-0.723c-0.364-0.299-0.673-0.645-0.927-1.035
			s-0.435-0.781-0.542-1.172s-0.161-0.774-0.161-1.152v-5.312H8.164v-2.1c0.469-0.169,0.889-0.396,1.26-0.679
			s0.667-0.576,0.889-0.879c0.221-0.303,0.41-0.635,0.566-0.996c0.156-0.361,0.267-0.684,0.332-0.967
			c0.065-0.283,0.114-0.571,0.146-0.864c0.007-0.032,0.021-0.06,0.045-0.083c0.021-0.022,0.047-0.034,0.072-0.034h2.383v4.141h3.252
			v2.461h-3.262v5.059c0,0.195,0.021,0.378,0.064,0.547c0.041,0.169,0.115,0.34,0.219,0.513s0.266,0.308,0.484,0.405
			c0.217,0.098,0.482,0.143,0.795,0.137C15.917,17.086,16.353,16.992,16.718,16.816z"/>
	</g>
</g>
<g id="soundcloud" display="none">
	<circle display="inline" fill="#F6881F" cx="12.5" cy="12.5" r="12.5"/>
	<g display="inline">
		<path fill="#FFFFFF" d="M3.929,13.39l0.153,0.982l-0.153,0.967c-0.01,0.046-0.033,0.069-0.069,0.069
			c-0.036,0-0.059-0.023-0.069-0.069l-0.13-0.967l0.13-0.982c0.01-0.046,0.033-0.069,0.069-0.069
			C3.896,13.321,3.919,13.344,3.929,13.39z M4.589,12.784l0.2,1.588l-0.2,1.558c-0.01,0.046-0.036,0.069-0.077,0.069
			c-0.046,0-0.069-0.025-0.069-0.077l-0.177-1.55l0.177-1.588c0-0.046,0.023-0.069,0.069-0.069
			C4.553,12.715,4.579,12.738,4.589,12.784z M5.295,12.492l0.192,1.88L5.295,16.19c0,0.056-0.028,0.084-0.084,0.084
			c-0.051,0-0.082-0.028-0.092-0.084l-0.161-1.818l0.161-1.88C5.129,12.431,5.159,12.4,5.21,12.4
			C5.267,12.4,5.295,12.431,5.295,12.492z M6.016,12.438l0.177,1.934l-0.177,1.872c-0.01,0.066-0.046,0.1-0.107,0.1
			c-0.066,0-0.1-0.033-0.1-0.1l-0.161-1.872l0.161-1.934c0-0.066,0.033-0.1,0.1-0.1C5.97,12.339,6.006,12.372,6.016,12.438z
			 M6.737,12.577l0.161,1.795l-0.161,1.887c-0.01,0.082-0.051,0.123-0.123,0.123c-0.031,0-0.058-0.012-0.081-0.035
			S6.5,16.295,6.5,16.259l-0.153-1.887L6.5,12.577c0-0.031,0.012-0.058,0.035-0.081s0.05-0.035,0.081-0.035
			C6.686,12.461,6.727,12.5,6.737,12.577z M7.458,11.456l0.161,2.916l-0.161,1.887c0,0.036-0.013,0.068-0.038,0.096
			c-0.026,0.028-0.057,0.042-0.092,0.042c-0.082,0-0.128-0.046-0.138-0.138l-0.138-1.887l0.138-2.916
			c0.01-0.092,0.057-0.138,0.138-0.138c0.036,0,0.066,0.014,0.092,0.042C7.446,11.389,7.458,11.42,7.458,11.456z M8.18,10.796
			l0.146,3.591L8.18,16.259c0,0.041-0.014,0.076-0.042,0.104c-0.028,0.028-0.062,0.042-0.104,0.042
			c-0.092,0-0.143-0.048-0.153-0.146l-0.123-1.872l0.123-3.591c0.01-0.097,0.061-0.146,0.153-0.146c0.041,0,0.075,0.014,0.104,0.042
			S8.18,10.755,8.18,10.796z M8.932,10.489l0.138,3.883l-0.138,1.857c-0.011,0.107-0.067,0.161-0.169,0.161
			c-0.097,0-0.151-0.054-0.161-0.161l-0.123-1.857l0.123-3.883c0-0.046,0.017-0.085,0.05-0.119s0.07-0.05,0.111-0.05
			c0.046,0,0.084,0.017,0.115,0.05C8.909,10.404,8.927,10.443,8.932,10.489z M9.676,16.221l0.123-1.849l-0.123-4.013
			c-0.005-0.051-0.024-0.094-0.058-0.13c-0.033-0.036-0.076-0.054-0.126-0.054c-0.046,0-0.087,0.018-0.123,0.054
			c-0.036,0.036-0.054,0.08-0.054,0.13l-0.107,4.013l0.107,1.849c0.005,0.051,0.024,0.093,0.058,0.126s0.073,0.05,0.119,0.05
			C9.604,16.397,9.666,16.339,9.676,16.221z M10.42,10.459l0.115,3.913l-0.115,1.833c0,0.051-0.019,0.096-0.058,0.134
			c-0.038,0.039-0.083,0.058-0.134,0.058s-0.095-0.018-0.13-0.054c-0.036-0.036-0.056-0.082-0.062-0.138l-0.107-1.833l0.107-3.913
			c0-0.057,0.02-0.103,0.058-0.138c0.039-0.036,0.083-0.054,0.134-0.054s0.096,0.018,0.134,0.054
			C10.401,10.356,10.42,10.402,10.42,10.459z M11.179,10.604l0.107,3.775l-0.107,1.811c0,0.056-0.02,0.105-0.061,0.146
			s-0.09,0.061-0.146,0.061s-0.104-0.02-0.146-0.061s-0.064-0.09-0.069-0.146l-0.092-1.811l0.092-3.775
			c0.005-0.062,0.028-0.112,0.069-0.153s0.089-0.062,0.146-0.062s0.103,0.021,0.142,0.062S11.175,10.543,11.179,10.604z
			 M11.947,15.999l0.084-1.619l-0.092-4.497c0-0.082-0.033-0.143-0.1-0.184c-0.041-0.025-0.082-0.039-0.123-0.039
			s-0.082,0.013-0.123,0.039c-0.066,0.041-0.1,0.103-0.1,0.184l-0.008,0.046l-0.076,4.443c0,0.005,0.029,0.609,0.084,1.811v0.008
			c0,0.051,0.016,0.095,0.047,0.13c0.047,0.057,0.105,0.084,0.176,0.084c0.057,0,0.107-0.023,0.154-0.069
			c0.045-0.036,0.068-0.087,0.068-0.154L11.947,15.999z M12.806,14.38l-0.107,1.772c0,0.067-0.023,0.123-0.068,0.169
			c-0.047,0.046-0.104,0.069-0.17,0.069s-0.123-0.023-0.168-0.069c-0.047-0.046-0.072-0.102-0.076-0.169l-0.047-0.875l-0.047-0.897
			l0.094-4.88V9.477c0.01-0.077,0.039-0.138,0.092-0.184c0.045-0.036,0.096-0.054,0.152-0.054c0.041,0,0.08,0.013,0.115,0.039
			c0.072,0.041,0.113,0.107,0.123,0.199L12.806,14.38z M21.337,14.234c0,0.599-0.211,1.109-0.637,1.531
			c-0.424,0.422-0.936,0.633-1.533,0.633h-6.031c-0.066-0.01-0.123-0.038-0.168-0.084c-0.047-0.046-0.07-0.102-0.07-0.168V9.247
			c0-0.118,0.072-0.202,0.215-0.253c0.436-0.174,0.898-0.261,1.389-0.261c0.998,0,1.861,0.336,2.594,1.009
			c0.732,0.673,1.141,1.5,1.229,2.482c0.27-0.112,0.551-0.169,0.844-0.169c0.598,0,1.109,0.212,1.533,0.637
			C21.126,13.116,21.337,13.63,21.337,14.234z"/>
	</g>
</g>
<g id="instagram" display="none">
	<circle display="inline" cx="12.5" cy="12.5" r="12.5"/>
	<g display="inline">
		<path fill="#FFFFFF" d="M18.392,8.188v8.763c0,0.414-0.148,0.77-0.445,1.066c-0.297,0.296-0.652,0.445-1.066,0.445H8.119
			c-0.415,0-0.77-0.148-1.067-0.445c-0.296-0.297-0.445-0.652-0.445-1.066V8.188c0-0.414,0.148-0.77,0.445-1.066
			c0.297-0.296,0.652-0.445,1.067-0.445h8.762c0.414,0,0.77,0.148,1.066,0.445C18.244,7.418,18.392,7.773,18.392,8.188z
			 M17.056,16.635v-4.972h-1.035c0.102,0.322,0.154,0.657,0.154,1.005c0,0.645-0.164,1.239-0.492,1.784
			c-0.326,0.544-0.771,0.976-1.334,1.293c-0.564,0.317-1.178,0.476-1.842,0.476c-1.008,0-1.87-0.347-2.586-1.04
			c-0.716-0.693-1.074-1.531-1.074-2.513c0-0.348,0.051-0.683,0.154-1.005H7.919v4.972c0,0.133,0.045,0.245,0.134,0.334
			s0.201,0.134,0.334,0.134h8.202c0.127,0,0.238-0.045,0.33-0.134S17.056,16.769,17.056,16.635z M14.183,14.168
			c0.463-0.447,0.695-0.988,0.695-1.623s-0.232-1.175-0.695-1.623c-0.463-0.447-1.021-0.671-1.676-0.671
			c-0.65,0-1.207,0.224-1.669,0.671c-0.463,0.448-0.694,0.989-0.694,1.623s0.231,1.175,0.694,1.623
			c0.462,0.448,1.019,0.671,1.669,0.671C13.162,14.84,13.72,14.616,14.183,14.168z M17.056,9.784V8.518
			c0-0.143-0.051-0.267-0.152-0.372c-0.104-0.105-0.229-0.157-0.377-0.157h-1.334c-0.148,0-0.273,0.052-0.377,0.157
			c-0.102,0.105-0.152,0.229-0.152,0.372v1.266c0,0.148,0.051,0.273,0.152,0.376c0.104,0.102,0.229,0.153,0.377,0.153h1.334
			c0.148,0,0.273-0.051,0.377-0.153C17.005,10.057,17.056,9.932,17.056,9.784z"/>
	</g>
</g>
<g id="linkedin" display="none">
	<circle display="inline" fill="#057AB9" cx="12.5" cy="12.5" r="12.5"/>
	<g display="inline">
		<path fill="#FFFFFF" d="M8.613,6.953C8.62,7.429,8.455,7.826,8.12,8.145C7.785,8.464,7.344,8.623,6.797,8.623h-0.02
			c-0.534,0-0.963-0.159-1.289-0.479C5.163,7.826,5,7.429,5,6.953c0-0.481,0.167-0.88,0.503-1.196
			c0.335-0.315,0.773-0.474,1.313-0.474c0.54,0,0.973,0.158,1.299,0.474C8.44,6.073,8.606,6.472,8.613,6.953z M8.408,9.941v9.678
			H5.186V9.941H8.408z M20,14.072v5.547h-3.213v-5.176c0-0.684-0.131-1.219-0.395-1.606c-0.264-0.387-0.676-0.581-1.236-0.581
			c-0.41,0-0.754,0.112-1.029,0.337c-0.277,0.225-0.484,0.503-0.621,0.835c-0.072,0.195-0.107,0.459-0.107,0.791v5.4h-3.212
			c0.013-2.598,0.02-4.704,0.02-6.318c0-1.614-0.003-2.578-0.01-2.891l-0.01-0.469h3.212v1.406h-0.02
			c0.131-0.208,0.264-0.391,0.4-0.547s0.32-0.325,0.553-0.508c0.23-0.182,0.514-0.324,0.85-0.425
			c0.334-0.101,0.707-0.151,1.117-0.151c1.113,0,2.008,0.37,2.686,1.108C19.662,11.564,20,12.646,20,14.072z"/>
	</g>
</g>
<g id="youtube" display="none">
	<circle display="inline" fill="#E42E28" cx="12.5" cy="12.5" r="12.5"/>
	<g display="inline">
		<path fill="#FFFFFF" d="M19.367,11.418c0.006,0.276,0.008,0.66,0.008,1.151s-0.002,0.875-0.008,1.151
			c-0.004,0.276-0.027,0.625-0.064,1.047c-0.039,0.422-0.096,0.799-0.174,1.132c-0.082,0.374-0.258,0.688-0.529,0.944
			s-0.588,0.404-0.951,0.445c-1.135,0.128-2.852,0.192-5.148,0.192c-2.296,0-4.013-0.064-5.148-0.192
			c-0.363-0.041-0.682-0.189-0.956-0.445c-0.273-0.256-0.451-0.57-0.533-0.944c-0.072-0.333-0.126-0.71-0.165-1.132
			c-0.038-0.422-0.06-0.771-0.065-1.047c-0.005-0.276-0.008-0.66-0.008-1.151s0.002-0.875,0.008-1.151
			c0.005-0.276,0.027-0.625,0.065-1.047c0.039-0.422,0.096-0.799,0.173-1.132C5.952,8.865,6.129,8.551,6.4,8.295
			S6.988,7.891,7.352,7.85c1.135-0.128,2.852-0.192,5.148-0.192c2.297,0,4.014,0.064,5.148,0.192
			c0.363,0.041,0.682,0.189,0.955,0.445s0.451,0.57,0.533,0.944c0.072,0.333,0.127,0.71,0.166,1.132
			C19.339,10.792,19.363,11.142,19.367,11.418z M15.447,12.569c0-0.189-0.078-0.327-0.23-0.415l-3.929-2.455
			c-0.159-0.103-0.325-0.107-0.499-0.016c-0.169,0.092-0.253,0.235-0.253,0.43v4.911c0,0.195,0.084,0.338,0.253,0.43
			c0.082,0.041,0.161,0.062,0.238,0.062c0.102,0,0.189-0.025,0.261-0.077l3.929-2.455C15.369,12.896,15.447,12.758,15.447,12.569z"
			/>
	</g>
</g>
<g id="fb" display="none">
	<circle display="inline" fill="#2E4787" cx="12.5" cy="12.5" r="12.5"/>
	<g display="inline">
		<path fill="#FFFFFF" d="M16.552,4.565v2.394h-1.424c-0.52,0-0.869,0.109-1.051,0.327s-0.273,0.544-0.273,0.979v1.713h2.658
			l-0.354,2.685h-2.305v6.882h-2.773v-6.882H8.718V9.979h2.312V8.002c0-1.125,0.314-1.997,0.943-2.616
			c0.627-0.62,1.465-0.929,2.512-0.929C15.375,4.457,16.062,4.493,16.552,4.565z"/>
	</g>
</g>
<g id="g_x2B_" display="none">
	<circle display="inline" fill="#DD4B38" cx="12.5" cy="12.5" r="12.5"/>
	<g display="inline">
		<path fill="#FFFFFF" d="M11.621,11.674c0,0.218,0.096,0.431,0.289,0.64c0.193,0.208,0.428,0.414,0.703,0.616
			c0.275,0.203,0.549,0.425,0.82,0.667c0.273,0.242,0.506,0.557,0.699,0.943s0.289,0.816,0.289,1.288
			c0,0.544-0.145,1.067-0.436,1.569c-0.434,0.737-1.072,1.28-1.912,1.627s-1.741,0.521-2.702,0.521
			c-0.798,0-1.543-0.125-2.235-0.376c-0.692-0.25-1.21-0.667-1.555-1.247c-0.224-0.363-0.335-0.759-0.335-1.188
			c0-0.49,0.135-0.943,0.404-1.36c0.269-0.417,0.627-0.765,1.074-1.042c0.792-0.496,2.013-0.798,3.664-0.907
			c-0.193-0.254-0.337-0.478-0.431-0.671c-0.094-0.193-0.141-0.414-0.141-0.662c0-0.218,0.063-0.475,0.19-0.771
			c-0.278,0.024-0.484,0.036-0.617,0.036c-0.895,0-1.649-0.292-2.262-0.875c-0.614-0.583-0.92-1.322-0.92-2.217
			c0-0.496,0.109-0.977,0.326-1.442C6.751,6.357,7.05,5.961,7.431,5.635C7.896,5.236,8.448,4.94,9.086,4.747s1.295-0.29,1.972-0.29
			h3.791l-1.252,0.798H12.41c0.447,0.381,0.785,0.783,1.016,1.206c0.229,0.423,0.344,0.907,0.344,1.451
			c0,0.436-0.074,0.827-0.223,1.174s-0.326,0.629-0.535,0.843c-0.207,0.215-0.418,0.411-0.629,0.589
			c-0.213,0.179-0.393,0.365-0.539,0.558C11.695,11.27,11.621,11.469,11.621,11.674z M10.314,18.72c0.351,0,0.687-0.04,1.011-0.118
			c0.322-0.079,0.623-0.197,0.896-0.354c0.275-0.157,0.496-0.377,0.662-0.662s0.25-0.614,0.25-0.989
			c0-0.151-0.021-0.299-0.062-0.444c-0.043-0.145-0.088-0.272-0.133-0.381c-0.045-0.108-0.127-0.234-0.244-0.376
			c-0.119-0.142-0.207-0.248-0.268-0.317s-0.178-0.174-0.35-0.313s-0.281-0.227-0.33-0.263c-0.049-0.037-0.174-0.127-0.377-0.272
			c-0.203-0.145-0.312-0.224-0.33-0.235c-0.097-0.012-0.242-0.019-0.436-0.019c-0.321,0-0.638,0.021-0.952,0.063
			c-0.314,0.042-0.639,0.118-0.975,0.227c-0.335,0.109-0.628,0.248-0.879,0.417S7.34,15.08,7.177,15.361
			c-0.163,0.281-0.245,0.6-0.245,0.957c0,0.423,0.106,0.796,0.317,1.12c0.212,0.324,0.488,0.575,0.83,0.753
			c0.341,0.178,0.701,0.311,1.079,0.399C9.536,18.676,9.922,18.72,10.314,18.72z M10.296,10.804c0.23,0,0.466-0.05,0.707-0.149
			c0.242-0.1,0.441-0.231,0.6-0.395c0.32-0.345,0.479-0.825,0.479-1.442c0-0.351-0.051-0.728-0.152-1.133
			c-0.104-0.405-0.25-0.796-0.441-1.174c-0.189-0.378-0.445-0.69-0.765-0.938C10.402,5.324,10.049,5.2,9.662,5.2
			c-0.254,0-0.503,0.059-0.748,0.177C8.669,5.495,8.471,5.653,8.32,5.853c-0.284,0.356-0.426,0.84-0.426,1.451
			c0,0.278,0.03,0.573,0.091,0.884C8.044,8.499,8.14,8.811,8.27,9.122C8.4,9.433,8.557,9.713,8.741,9.96
			c0.185,0.248,0.411,0.451,0.68,0.608S9.982,10.804,10.296,10.804z M17.66,10.777h1.932v0.979H17.66v1.986h-0.953v-1.986h-1.922
			v-0.979h1.922V8.809h0.953V10.777z"/>
	</g>
</g>
<g id="rss" display="none">
	<circle display="inline" fill="#F36D21" cx="12.5" cy="12.5" r="12.5"/>
	<g display="inline">
		<path fill="#FFFFFF" d="M18.882,17.777c0.012,0.163-0.041,0.305-0.162,0.426c-0.109,0.121-0.248,0.181-0.418,0.181h-1.297
			c-0.156,0-0.291-0.053-0.402-0.159c-0.113-0.105-0.172-0.234-0.178-0.385c-0.072-1.3-0.377-2.535-0.916-3.705
			c-0.537-1.169-1.238-2.185-2.1-3.047c-0.861-0.861-1.877-1.561-3.046-2.099c-1.17-0.538-2.405-0.846-3.705-0.925
			C6.508,8.06,6.379,8,6.274,7.889C6.168,7.777,6.115,7.646,6.115,7.494V6.197c0-0.169,0.061-0.308,0.181-0.417
			c0.109-0.109,0.242-0.163,0.399-0.163h0.027c1.584,0.079,3.1,0.441,4.548,1.088c1.447,0.647,2.732,1.536,3.857,2.666
			c1.131,1.125,2.02,2.411,2.666,3.858C18.441,14.678,18.804,16.193,18.882,17.777z M14.24,17.759
			c0.012,0.169-0.039,0.314-0.154,0.435c-0.107,0.127-0.25,0.19-0.426,0.19h-1.225c-0.15,0-0.281-0.05-0.389-0.149
			c-0.109-0.1-0.17-0.226-0.182-0.376c-0.133-1.384-0.691-2.568-1.673-3.55c-0.982-0.982-2.166-1.54-3.55-1.673
			c-0.151-0.012-0.276-0.073-0.376-0.182c-0.1-0.108-0.149-0.239-0.149-0.39V10.84c0-0.175,0.063-0.317,0.19-0.426
			c0.103-0.103,0.232-0.154,0.39-0.154h0.045c0.967,0.079,1.892,0.322,2.775,0.73s1.666,0.957,2.349,1.646
			c0.689,0.683,1.238,1.466,1.645,2.349C13.917,15.867,14.162,16.792,14.24,17.759z M9.089,15.411
			c0.339,0.338,0.508,0.75,0.508,1.233c0,0.484-0.169,0.895-0.508,1.233c-0.338,0.339-0.75,0.508-1.233,0.508
			c-0.484,0-0.895-0.169-1.233-0.508c-0.339-0.338-0.508-0.75-0.508-1.233c0-0.483,0.169-0.895,0.508-1.233
			c0.338-0.339,0.75-0.508,1.233-0.508C8.34,14.903,8.751,15.072,9.089,15.411z"/>
	</g>
</g>
<g id="twitter" display="none">
	<circle display="inline" fill="#5FA9DD" cx="12.5" cy="12.5" r="12.5"/>
	<g display="inline">
		<path fill="#FFFFFF" d="M20.745,7.488c-0.467,0.684-1.031,1.266-1.695,1.747c0.008,0.098,0.012,0.245,0.012,0.439
			c0,0.907-0.133,1.812-0.398,2.715s-0.668,1.77-1.209,2.6c-0.539,0.83-1.184,1.564-1.93,2.203
			c-0.746,0.638-1.646,1.147-2.699,1.527c-1.054,0.38-2.18,0.57-3.38,0.57c-1.89,0-3.62-0.506-5.189-1.517
			c0.244,0.028,0.516,0.042,0.816,0.042c1.569,0,2.968-0.481,4.196-1.444c-0.732-0.014-1.388-0.239-1.967-0.675
			c-0.579-0.436-0.977-0.992-1.192-1.668c0.23,0.035,0.443,0.052,0.638,0.052c0.3,0,0.596-0.039,0.889-0.115
			c-0.781-0.16-1.428-0.549-1.941-1.167c-0.513-0.618-0.769-1.334-0.769-2.15v-0.042c0.475,0.266,0.983,0.408,1.528,0.429
			c-0.46-0.307-0.827-0.708-1.099-1.203S4.946,8.8,4.946,8.221c0-0.614,0.153-1.183,0.46-1.706c0.844,1.04,1.871,1.871,3.082,2.496
			c1.21,0.624,2.506,0.971,3.888,1.041c-0.057-0.265-0.084-0.523-0.084-0.774c0-0.935,0.328-1.731,0.988-2.391
			c0.658-0.659,1.455-0.989,2.391-0.989c0.977,0,1.799,0.355,2.469,1.067c0.76-0.146,1.477-0.418,2.145-0.816
			c-0.258,0.802-0.752,1.423-1.484,1.862C19.448,7.942,20.096,7.767,20.745,7.488z"/>
	</g>
</g>
<g id="newsletter" display="none">
	<circle display="inline" fill="#FDB913" cx="12.5" cy="12.5" r="12.5"/>
	<g display="inline">
		<path fill="#FFFFFF" d="M20,8.557c0,0.441-0.137,0.862-0.41,1.264s-0.615,0.745-1.021,1.029c-2.098,1.457-3.404,2.364-3.918,2.721
			c-0.055,0.039-0.174,0.124-0.355,0.255c-0.182,0.131-0.332,0.237-0.451,0.318c-0.121,0.081-0.266,0.171-0.436,0.272
			s-0.332,0.176-0.482,0.226s-0.289,0.075-0.418,0.075H12.5h-0.01c-0.127,0-0.268-0.025-0.418-0.075s-0.311-0.125-0.48-0.226
			c-0.171-0.101-0.316-0.191-0.436-0.272c-0.12-0.081-0.271-0.187-0.452-0.318c-0.182-0.131-0.3-0.216-0.356-0.255
			c-0.508-0.357-1.239-0.866-2.193-1.528c-0.954-0.661-1.526-1.059-1.716-1.193c-0.346-0.234-0.673-0.556-0.979-0.966
			C5.153,9.474,5,9.093,5,8.742c0-0.436,0.116-0.798,0.347-1.088c0.232-0.29,0.562-0.435,0.992-0.435h12.321
			c0.363,0,0.676,0.131,0.941,0.393C19.868,7.874,20,8.189,20,8.557z M20,11.018v6.646c0,0.369-0.131,0.684-0.395,0.946
			c-0.262,0.262-0.576,0.393-0.945,0.393H6.339c-0.368,0-0.684-0.131-0.946-0.393C5.131,18.348,5,18.033,5,17.664v-6.646
			c0.246,0.273,0.527,0.517,0.845,0.729c2.02,1.373,3.407,2.335,4.16,2.888c0.318,0.234,0.576,0.417,0.774,0.548
			c0.198,0.131,0.462,0.265,0.791,0.402s0.637,0.205,0.92,0.205h0.01h0.008c0.285,0,0.592-0.068,0.92-0.205
			c0.33-0.137,0.594-0.271,0.791-0.402c0.199-0.131,0.457-0.314,0.775-0.548c0.949-0.687,2.338-1.649,4.168-2.888
			C19.481,11.529,19.76,11.286,20,11.018z"/>
	</g>
</g>
<g id="blog" display="none">
	<circle display="inline" fill="#6E4FA0" cx="12.5" cy="12.5" r="12.5"/>
	<g display="inline">
		<path fill="#FFFFFF" d="M16.29,9.09c0.568,0.713,0.854,1.49,0.854,2.33c0,0.84-0.285,1.618-0.854,2.331
			c-0.568,0.713-1.344,1.277-2.324,1.691c-0.982,0.414-2.053,0.621-3.207,0.621c-0.52,0-1.052-0.048-1.596-0.145
			c-0.75,0.532-1.59,0.919-2.521,1.161c-0.218,0.054-0.478,0.103-0.78,0.145H5.835c-0.066,0-0.128-0.024-0.186-0.073
			c-0.058-0.048-0.092-0.112-0.104-0.19c-0.006-0.018-0.009-0.038-0.009-0.059c0-0.021,0.001-0.041,0.004-0.059
			c0.003-0.018,0.009-0.036,0.019-0.054c0.009-0.019,0.017-0.033,0.022-0.045s0.017-0.029,0.032-0.05
			c0.015-0.021,0.027-0.037,0.036-0.045c0.009-0.009,0.023-0.024,0.041-0.045s0.03-0.035,0.036-0.041
			c0.03-0.036,0.1-0.112,0.208-0.227s0.188-0.204,0.236-0.268s0.116-0.151,0.204-0.263c0.087-0.112,0.163-0.229,0.227-0.349
			c0.063-0.121,0.125-0.254,0.186-0.399c-0.75-0.435-1.339-0.97-1.768-1.605c-0.43-0.635-0.644-1.312-0.644-2.031
			c0-0.84,0.284-1.617,0.853-2.33c0.568-0.713,1.343-1.277,2.326-1.691s2.051-0.621,3.206-0.621c1.154,0,2.224,0.207,3.207,0.621
			C14.946,7.813,15.721,8.377,16.29,9.09z M20.625,13.742c0,0.725-0.215,1.404-0.645,2.036s-1.02,1.165-1.768,1.601
			c0.061,0.145,0.121,0.278,0.186,0.399c0.062,0.121,0.139,0.237,0.227,0.349s0.156,0.199,0.203,0.263
			c0.049,0.063,0.127,0.153,0.236,0.268s0.178,0.19,0.209,0.227c0.006,0.006,0.018,0.02,0.035,0.041
			c0.02,0.021,0.033,0.036,0.041,0.045c0.01,0.009,0.021,0.024,0.037,0.045c0.016,0.021,0.025,0.038,0.031,0.05
			c0.006,0.012,0.014,0.027,0.023,0.045c0.008,0.018,0.016,0.036,0.018,0.054c0.004,0.018,0.004,0.038,0.004,0.059
			c0,0.021-0.002,0.041-0.008,0.059c-0.02,0.084-0.059,0.151-0.119,0.199s-0.127,0.069-0.199,0.063
			c-0.303-0.042-0.562-0.091-0.779-0.145c-0.932-0.242-1.771-0.629-2.521-1.161c-0.543,0.097-1.076,0.145-1.596,0.145
			c-1.639,0-3.064-0.399-4.28-1.197c0.351,0.024,0.617,0.036,0.798,0.036c0.974,0,1.908-0.136,2.802-0.408s1.693-0.662,2.395-1.169
			c0.756-0.556,1.336-1.197,1.74-1.922c0.404-0.726,0.607-1.493,0.607-2.304c0-0.465-0.068-0.925-0.209-1.378
			c0.781,0.429,1.396,0.967,1.85,1.614C20.399,12.303,20.625,12.999,20.625,13.742z"/>
	</g>
</g>
<g id="flickr" display="none">
	<circle display="inline" fill="#DFDEDE" stroke="#BCBCBC" stroke-miterlimit="10" cx="12.5" cy="12.5" r="12"/>
	<g display="inline">
		<circle fill="#3C62AE" cx="7.478" cy="12.771" r="3.67"/>
		<circle fill="#ED1C84" cx="17.204" cy="12.771" r="3.671"/>
	</g>
</g>
<g id="issuu" display="none">
	<circle display="inline" fill="#EE6023" cx="12.5" cy="12.5" r="12.5"/>
	<g display="inline">
		<path fill="#FFFFFF" d="M12.582,9.006c-1.916-0.019-3.484,1.521-3.502,3.436c-0.018,1.916,1.521,3.484,3.436,3.503
			c1.918,0.018,3.484-1.521,3.504-3.437C16.035,10.592,14.498,9.024,12.582,9.006z M12.533,14.232
			c-0.971-0.009-1.75-0.803-1.74-1.773c0.009-0.97,0.802-1.749,1.773-1.74c0.971,0.01,1.75,0.804,1.74,1.773
			C14.296,13.462,13.501,14.241,12.533,14.232z"/>
		<path fill="#FFFFFF" d="M12.5,5.68c-0.012,0-0.021,0-0.031,0l0,0H5.679v6.82c0,3.767,3.053,6.819,6.82,6.819
			c3.766,0,6.82-3.053,6.82-6.819S16.265,5.68,12.5,5.68z M12.503,17.185c-2.614-0.024-4.714-2.164-4.689-4.778
			c0.025-2.616,2.165-4.716,4.779-4.69c2.615,0.023,4.717,2.164,4.691,4.779C17.259,15.11,15.119,17.21,12.503,17.185z"/>
	</g>
</g>
<g id="prezi" display="none">
	<circle display="inline" fill="#3567B1" cx="12.5" cy="12.5" r="12.5"/>
	<g display="inline">
		<path fill="#FFFFFF" d="M12.494,7.829c-1.289,0-2.39,0.461-3.292,1.373c-0.922,0.912-1.373,2.013-1.373,3.303
			c0,1.279,0.45,2.379,1.373,3.281c0.902,0.912,2.003,1.374,3.292,1.374c1.28,0,2.381-0.462,3.293-1.374
			c0.913-0.902,1.362-2.001,1.361-3.281c0-1.29-0.45-2.391-1.361-3.303C14.875,8.29,13.774,7.829,12.494,7.829z M15.471,15.471
			c-0.828,0.818-1.824,1.227-2.978,1.227c-1.163,0-2.159-0.409-2.966-1.227c-0.829-0.817-1.238-1.813-1.238-2.967
			c0-1.174,0.409-2.16,1.238-2.978c0.808-0.828,1.803-1.237,2.966-1.237c1.153,0,2.149,0.409,2.978,1.237
			c0.818,0.818,1.216,1.804,1.216,2.978C16.687,13.658,16.29,14.654,15.471,15.471z M12.494,8.761c-1.026,0-1.918,0.356-2.652,1.091
			c-0.733,0.734-1.09,1.615-1.09,2.652c0,1.028,0.356,1.909,1.09,2.642c0.734,0.735,1.626,1.101,2.652,1.101
			c1.039,0,1.908-0.366,2.642-1.1c0.735-0.733,1.102-1.614,1.102-2.642c0-1.038-0.366-1.918-1.102-2.652
			C14.402,9.118,13.533,8.761,12.494,8.761z M15.764,12.662c-0.03,0.912-0.397,1.667-1.067,2.275
			c-0.683,0.608-1.47,0.89-2.371,0.838c-0.912-0.051-1.666-0.409-2.274-1.068c-0.598-0.683-0.88-1.468-0.839-2.381
			c0.052-0.901,0.409-1.656,1.091-2.263c0.66-0.609,1.458-0.881,2.368-0.84c0.892,0.043,1.647,0.41,2.255,1.081
			C15.536,10.974,15.818,11.76,15.764,12.662z M17.631,10.334c-0.273-0.682-0.681-1.269-1.186-1.782
			c-0.524-0.514-1.111-0.912-1.782-1.196c-0.681-0.293-1.416-0.439-2.17-0.439c-0.766,0-1.478,0.146-2.182,0.439
			C9.653,7.64,9.055,8.039,8.542,8.552c-0.513,0.513-0.902,1.1-1.185,1.782c-0.304,0.682-0.44,1.405-0.44,2.17
			c0,0.755,0.136,1.478,0.44,2.17c0.283,0.66,0.671,1.257,1.185,1.772c0.514,0.513,1.112,0.912,1.771,1.194
			c0.704,0.294,1.417,0.441,2.182,0.441c0.754,0,1.489-0.147,2.17-0.44c0.671-0.283,1.258-0.682,1.782-1.195
			c0.505-0.515,0.912-1.112,1.186-1.772c0.303-0.692,0.451-1.416,0.451-2.17C18.083,11.74,17.934,11.016,17.631,10.334z
			 M17.211,14.497c-0.261,0.607-0.629,1.153-1.102,1.625c-0.47,0.471-1.005,0.838-1.624,1.1c-0.629,0.264-1.289,0.399-1.992,0.399
			c-0.691,0-1.362-0.137-1.992-0.399c-0.619-0.262-1.153-0.628-1.635-1.1c-0.461-0.472-0.838-1.018-1.091-1.625
			c-0.273-0.64-0.398-1.3-0.398-1.993c0-0.702,0.125-1.363,0.398-2.003c0.252-0.607,0.629-1.153,1.091-1.624
			c0.482-0.473,1.017-0.839,1.635-1.101c0.629-0.273,1.3-0.399,1.992-0.399c0.703,0,1.363,0.126,1.992,0.399
			c0.619,0.262,1.154,0.628,1.624,1.101c0.473,0.472,0.841,1.017,1.102,1.624c0.272,0.64,0.408,1.301,0.408,2.003
			C17.62,13.197,17.484,13.857,17.211,14.497z"/>
		<path fill="#FFFFFF" d="M10.093,13.785c0.079,0.146,0.167,0.284,0.273,0.413v-3.406c-0.395,0.491-0.595,1.058-0.595,1.703
			C9.771,12.973,9.874,13.41,10.093,13.785z M10.974,14.761c0.004,0.004,0.011,0.006,0.013,0.01
			c0.184,0.122,0.391,0.225,0.596,0.298V9.922c-0.214,0.075-0.419,0.178-0.608,0.308V14.761z M12.201,9.786v5.421
			c0.001,0,0.002,0,0.003,0c0.094,0.021,0.197,0.021,0.301,0.021c0.104,0,0.209,0,0.303-0.021c0,0,0.001,0,0.001,0v-5.42
			c-0.099-0.01-0.2-0.016-0.304-0.016S12.3,9.776,12.201,9.786z M13.427,15.07c0.215-0.073,0.41-0.176,0.595-0.298
			c0.006-0.004,0.009-0.007,0.014-0.01v-4.525c-0.191-0.13-0.395-0.235-0.608-0.311V15.07z M14.645,10.801v3.396
			c0.104-0.129,0.192-0.266,0.271-0.404c0.209-0.384,0.312-0.821,0.312-1.289C15.228,11.856,15.038,11.29,14.645,10.801z"/>
		<path fill="#FFFFFF" d="M11.26,4.723c-0.273,0.043-0.542,0.101-0.804,0.17l0.438,1.618c0.208-0.056,0.42-0.101,0.638-0.136
			L11.26,4.723z M7.3,9.124L5.892,8.215c-0.15,0.23-0.288,0.469-0.414,0.716l1.493,0.76C7.071,9.497,7.181,9.308,7.3,9.124
			 M9.68,5.145C9.422,5.244,9.171,5.356,8.927,5.48l0.764,1.491c0.191-0.097,0.388-0.184,0.588-0.261L9.68,5.145z M9.123,7.3
			L8.21,5.894C7.979,6.045,7.755,6.207,7.542,6.381l1.057,1.301C8.766,7.546,8.941,7.418,9.123,7.3 M8.116,8.115L6.923,6.94
			C6.731,7.132,6.55,7.334,6.379,7.546l1.306,1.049C7.821,8.427,7.964,8.268,8.116,8.115 M16.401,7.681l1.063-1.294
			c-0.218-0.176-0.445-0.342-0.683-0.495l-0.906,1.409C16.057,7.419,16.232,7.546,16.401,7.681 M16.075,5.482
			c-0.242-0.124-0.492-0.235-0.747-0.333l-0.605,1.562c0.205,0.079,0.406,0.168,0.599,0.268L16.075,5.482z M17.322,8.604
			l1.296-1.061c-0.172-0.212-0.355-0.417-0.549-0.609l-1.189,1.179C17.035,8.269,17.182,8.433,17.322,8.604 M18.024,9.686
			l1.491-0.765c-0.124-0.244-0.262-0.48-0.41-0.708l-1.402,0.916C17.819,9.308,17.926,9.495,18.024,9.686 M18.488,10.891
			l1.618-0.429c-0.072-0.27-0.157-0.532-0.256-0.79l-1.563,0.605C18.364,10.477,18.43,10.682,18.488,10.891 M14.536,4.891
			c-0.267-0.071-0.537-0.128-0.81-0.17l-0.254,1.656c0.218,0.034,0.431,0.08,0.641,0.136L14.536,4.891z M12.909,4.635
			c-0.27-0.014-0.545-0.014-0.822,0l0.088,1.673c0.218-0.011,0.435-0.011,0.647,0L12.909,4.635z M6.512,14.111l-1.62,0.427
			c0.071,0.265,0.154,0.524,0.25,0.777l1.569-0.592C6.635,14.524,6.569,14.32,6.512,14.111 M18.622,13.475l1.656,0.257
			c0.044-0.271,0.072-0.548,0.086-0.828l-1.674-0.087C18.679,13.04,18.657,13.259,18.622,13.475 M18.289,14.721l1.564,0.601
			c0.099-0.257,0.185-0.522,0.257-0.791l-1.622-0.425C18.431,14.315,18.364,14.521,18.289,14.721 M20.277,11.266l-1.655,0.26
			c0.033,0.213,0.058,0.43,0.068,0.649v0.005l1.674-0.088v-0.005C20.347,11.809,20.32,11.535,20.277,11.266 M17.697,15.877
			l1.406,0.914c0.15-0.231,0.289-0.471,0.414-0.717l-1.495-0.757C17.924,15.509,17.815,15.697,17.697,15.877 M16.882,16.884
			l1.183,1.186c0.195-0.196,0.381-0.402,0.554-0.616l-1.306-1.049C17.178,16.573,17.035,16.732,16.882,16.884 M15.884,17.695
			l0.904,1.41c0.231-0.15,0.454-0.312,0.669-0.485l-1.062-1.298C16.233,17.454,16.06,17.579,15.884,17.695 M6.709,10.279
			L5.145,9.682c-0.097,0.253-0.182,0.512-0.252,0.777l1.619,0.435C6.567,10.685,6.634,10.479,6.709,10.279 M7.676,16.395l-1.3,1.057
			c0.174,0.215,0.358,0.419,0.553,0.615l1.19-1.179C7.964,16.731,7.816,16.567,7.676,16.395 M6.974,15.313l-1.491,0.766
			c0.125,0.242,0.26,0.477,0.407,0.704l1.411-0.905C7.183,15.696,7.073,15.509,6.974,15.313 M6.309,12.829l-1.673,0.088
			c0.015,0.273,0.042,0.543,0.084,0.807l1.655-0.261C6.343,13.255,6.32,13.044,6.309,12.829 M8.599,17.318L7.54,18.617
			c0.214,0.174,0.438,0.336,0.669,0.487l0.919-1.402C8.945,17.584,8.768,17.455,8.599,17.318 M6.377,11.524l-1.656-0.257
			c-0.042,0.269-0.071,0.541-0.085,0.818l1.673,0.086C6.32,11.953,6.343,11.737,6.377,11.524 M14.729,18.285l0.592,1.568
			c0.261-0.1,0.514-0.213,0.76-0.339l-0.761-1.492C15.128,18.12,14.93,18.208,14.729,18.285 M8.924,19.517
			c0.245,0.124,0.497,0.238,0.755,0.336l0.594-1.566c-0.202-0.077-0.398-0.166-0.589-0.263L8.924,19.517z M12.079,20.363
			c0.275,0.015,0.552,0.016,0.832,0l-0.087-1.672c-0.218,0.011-0.434,0.012-0.646,0L12.079,20.363z M13.467,18.623l0.261,1.655
			c0.273-0.042,0.541-0.1,0.804-0.169l-0.427-1.62C13.896,18.544,13.683,18.59,13.467,18.623 M10.461,20.108
			c0.263,0.07,0.529,0.127,0.802,0.169l0.266-1.654c-0.216-0.034-0.426-0.079-0.633-0.134L10.461,20.108z"/>
	</g>
</g>
<g id="scribd" display="none">
	<circle display="inline" cx="12.5" cy="12.5" r="12.5"/>
	<g display="inline">
		<path fill="#FFFFFF" d="M14.692,17.551c0-1.125,0.523-2.119,1.325-2.788c-0.012-0.033-0.016-0.07-0.027-0.102
			c-0.187-0.527-0.467-1.027-0.847-1.502c-0.38-0.474-0.865-0.909-1.454-1.301c-0.591-0.393-1.416-0.816-2.476-1.271
			S9.403,9.714,8.963,9.33c-0.439-0.382-0.66-0.822-0.66-1.323c0-0.578,0.252-1.046,0.756-1.414c0.503-0.366,1.16-0.55,1.972-0.55
			c0.648,0,1.155,0.102,1.536,0.291c-0.107,0.238-0.172,0.499-0.172,0.776c0,1.047,0.851,1.895,1.895,1.895
			c1.048,0,1.896-0.848,1.896-1.895c0-0.566-0.254-1.07-0.649-1.417c-0.553-0.604-1.205-1.077-1.975-1.397
			c-0.923-0.39-1.832-0.583-2.732-0.583c-1.355,0-2.507,0.415-3.457,1.248s-1.426,1.84-1.426,3.022c0,0.491,0.085,0.953,0.253,1.385
			c0.171,0.43,0.437,0.865,0.8,1.301c0.364,0.435,0.795,0.809,1.295,1.125c0.497,0.315,1.208,0.661,2.132,1.039
			c0.924,0.379,1.598,0.715,2.02,1.008c0.425,0.293,0.778,0.665,1.062,1.118c0.286,0.453,0.429,0.9,0.429,1.349
			c0,0.749-0.271,1.368-0.815,1.858c-0.543,0.492-1.225,0.737-2.046,0.737c-1.157,0-2.105-0.444-2.853-1.311
			c0.356-0.346,0.583-0.828,0.583-1.363c0-1.047-0.848-1.895-1.895-1.895s-1.895,0.848-1.895,1.895c0,0.179,0.033,0.35,0.079,0.512
			l-0.043,0.013c0.57,1.511,1.385,2.643,2.441,3.399c1.058,0.756,2.279,1.133,3.659,1.133c1.417,0,2.623-0.482,3.619-1.449
			c0.155-0.149,0.293-0.308,0.424-0.467C14.883,18.834,14.692,18.217,14.692,17.551z"/>
		
			<radialGradient id="SVGID_1_" cx="17.6812" cy="16.4448" r="2.3452" gradientTransform="matrix(1.0065 0 0 1.0064 -0.0816 -0.0801)" gradientUnits="userSpaceOnUse">
			<stop  offset="0.1636" style="stop-color:#64CADD"/>
			<stop  offset="0.8606" style="stop-color:#1886A7"/>
		</radialGradient>
		<circle fill="url(#SVGID_1_)" cx="17.804" cy="17.605" r="2.18"/>
	</g>
</g>
<g id="live" display="none">
	<circle display="inline" fill="#DE352C" cx="12.5" cy="12.5" r="12.5"/>
	<path display="inline" fill="#FFFFFF" d="M20.615,11.96c0-2.529-2.543-4.579-5.679-4.579c-2.562,0-4.729,1.369-5.435,3.251
		c-0.335-0.072-0.685-0.11-1.048-0.11c-2.248,0-4.069,1.47-4.069,3.282c0,0.725,0.29,1.393,0.782,1.936L4.41,17.619l3.205-0.644
		c0.335,0.009,0.708,0.089,1.086,0.1c0.042,0.001,0.085,0.002,0.127,0.002c1.221,0,2.23-0.468,2.886-1.192
		c0.765,0.406,1.68,0.64,2.7,0.64c0.059,0,0.118-0.001,0.177-0.004c0.525-0.013,1.049-0.126,1.515-0.138l4.471,0.898l-1.052-2.623
		C20.208,13.903,20.615,12.971,20.615,11.96z M8.828,16.187c-0.035,0-0.069,0-0.104-0.001C8.573,16.181,8.41,16.16,8.236,16.14
		c-0.194-0.024-0.393-0.05-0.597-0.054l-0.1-0.002l-0.1,0.02l-1.588,0.318l0.141-0.35L6.2,15.554l-0.374-0.412
		c-0.251-0.278-0.552-0.736-0.552-1.338c0-1.318,1.427-2.393,3.18-2.393c0.288,0,0.57,0.03,0.834,0.085
		c-0.02,0.151-0.029,0.306-0.029,0.463c0,1.354,0.63,2.589,1.695,3.432C10.447,15.885,9.696,16.187,8.828,16.187z M11.58,14.294
		c-0.671-0.587-1.074-1.397-1.078-2.319c0.692,0.439,1.131,1.097,1.131,1.829C11.632,13.974,11.615,14.137,11.58,14.294z
		 M18.602,13.825l-0.524,0.576l0.293,0.723l0.195,0.487l-2.216-0.446l-0.136-0.026l-0.142,0.004
		c-0.288,0.008-0.566,0.042-0.834,0.075c-0.24,0.03-0.473,0.059-0.681,0.064c-0.05,0-0.097,0.001-0.145,0.001
		c-0.767,0-1.472-0.168-2.063-0.468c0.115-0.319,0.174-0.659,0.174-1.011c0-1.154-0.74-2.168-1.856-2.753
		c0.53-1.4,2.242-2.428,4.269-2.428c2.445,0,4.436,1.497,4.436,3.337C19.372,12.799,18.951,13.437,18.602,13.825z"/>
</g>
</svg>
