<?xml version="1.0" encoding="utf-8"?>
<!-- Generator: Adobe Illustrator 16.0.0, SVG Export Plug-In . SVG Version: 6.00 Build 0)  -->
<!DOCTYPE svg PUBLIC "-//W3C//DTD SVG 1.1//EN" "http://www.w3.org/Graphics/SVG/1.1/DTD/svg11.dtd">
<svg version="1.1" id="Layer_1" xmlns="http://www.w3.org/2000/svg" xmlns:xlink="http://www.w3.org/1999/xlink" x="0px" y="0px"
	 width="25px" height="25px" viewBox="0 0 25 25" style="enable-background:new 0 0 25 25;" xml:space="preserve">
<style type="text/css">
<![CDATA[
	.st0{fill:#61A9DD;}
	.st1{fill:#FFFFFF;}
]]>
</style>
<g id="twitter">
	<circle class="st0" cx="12.5" cy="12.5" r="12.5"/>
	<g>
		<path class="st1" d="M20.7,7.5c-0.5,0.7-1,1.3-1.7,1.7c0,0.1,0,0.2,0,0.4c0,0.9-0.1,1.8-0.4,2.7c-0.3,0.9-0.7,1.8-1.2,2.6
			c-0.5,0.8-1.2,1.6-1.9,2.2s-1.6,1.1-2.7,1.5c-1.1,0.4-2.2,0.6-3.4,0.6c-1.9,0-3.6-0.5-5.2-1.5c0.2,0,0.5,0,0.8,0
			c1.6,0,3-0.5,4.2-1.4c-0.7,0-1.4-0.2-2-0.7c-0.6-0.4-1-1-1.2-1.7c0.2,0,0.4,0.1,0.6,0.1c0.3,0,0.6,0,0.9-0.1
			c-0.8-0.2-1.4-0.5-1.9-1.2c-0.5-0.6-0.8-1.3-0.8-2.1v0c0.5,0.3,1,0.4,1.5,0.4C6,10.7,5.6,10.3,5.4,9.8s-0.4-1-0.4-1.6
			c0-0.6,0.2-1.2,0.5-1.7c0.8,1,1.9,1.9,3.1,2.5c1.2,0.6,2.5,1,3.9,1c-0.1-0.3-0.1-0.5-0.1-0.8c0-0.9,0.3-1.7,1-2.4
			c0.7-0.7,1.5-1,2.4-1c1,0,1.8,0.4,2.5,1.1c0.8-0.1,1.5-0.4,2.1-0.8C20,7,19.5,7.6,18.8,8C19.4,7.9,20.1,7.8,20.7,7.5z"/>
	</g>
</g>
<g>
</g>
<g>
</g>
<g>
</g>
<g>
</g>
<g>
</g>
<g>
</g>
</svg>
