<?xml version="1.0" encoding="utf-8"?>
<!-- Generator: Adobe Illustrator 16.0.0, SVG Export Plug-In . SVG Version: 6.00 Build 0)  -->
<!DOCTYPE svg PUBLIC "-//W3C//DTD SVG 1.1//EN" "http://www.w3.org/Graphics/SVG/1.1/DTD/svg11.dtd">
<svg version="1.1" id="Layer_1" xmlns="http://www.w3.org/2000/svg" xmlns:xlink="http://www.w3.org/1999/xlink" x="0px" y="0px"
	 width="25px" height="25px" viewBox="0 0 25 25" style="enable-background:new 0 0 25 25;" xml:space="preserve">
<style type="text/css">
<![CDATA[
	.st0{fill:#FFFFFF;}
	.st1{fill:#010101;}
]]>
</style>
<g id="instagram">
	<circle class="st1" cx="12.5" cy="12.5" r="12.5"/>
	<g>
		<path class="st0" d="M18.4,8.2V17c0,0.4-0.1,0.8-0.4,1.1c-0.3,0.3-0.7,0.4-1.1,0.4H8.1c-0.4,0-0.8-0.1-1.1-0.4
			c-0.3-0.3-0.4-0.7-0.4-1.1V8.2c0-0.4,0.1-0.8,0.4-1.1c0.3-0.3,0.7-0.4,1.1-0.4h8.8c0.4,0,0.8,0.1,1.1,0.4
			C18.2,7.4,18.4,7.8,18.4,8.2z M17.1,16.6v-5h-1c0.1,0.3,0.2,0.7,0.2,1c0,0.6-0.2,1.2-0.5,1.8c-0.3,0.5-0.8,1-1.3,1.3
			c-0.6,0.3-1.2,0.5-1.8,0.5c-1,0-1.9-0.3-2.6-1c-0.7-0.7-1.1-1.5-1.1-2.5c0-0.3,0.1-0.7,0.2-1H7.9v5c0,0.1,0,0.2,0.1,0.3
			c0.1,0.1,0.2,0.1,0.3,0.1h8.2c0.1,0,0.2,0,0.3-0.1C17,16.9,17.1,16.8,17.1,16.6z M14.2,14.2c0.5-0.4,0.7-1,0.7-1.6
			s-0.2-1.2-0.7-1.6c-0.5-0.4-1-0.7-1.7-0.7c-0.6,0-1.2,0.2-1.7,0.7c-0.5,0.4-0.7,1-0.7,1.6c0,0.6,0.2,1.2,0.7,1.6
			c0.5,0.4,1,0.7,1.7,0.7C13.2,14.8,13.7,14.6,14.2,14.2z M17.1,9.8V8.5c0-0.1-0.1-0.3-0.2-0.4C16.8,8,16.7,8,16.5,8h-1.3
			C15,8,14.9,8,14.8,8.1c-0.1,0.1-0.2,0.2-0.2,0.4v1.3c0,0.1,0.1,0.3,0.2,0.4c0.1,0.1,0.2,0.2,0.4,0.2h1.3c0.1,0,0.3-0.1,0.4-0.2
			C17,10.1,17.1,9.9,17.1,9.8z"/>
	</g>
</g>
<g>
</g>
<g>
</g>
<g>
</g>
<g>
</g>
<g>
</g>
<g>
</g>
</svg>
