<?xml version="1.0" encoding="utf-8"?>
<!-- Generator: Adobe Illustrator 14.0.0, SVG Export Plug-In . SVG Version: 6.00 Build 43363)  -->
<!DOCTYPE svg PUBLIC "-//W3C//DTD SVG 1.1//EN" "http://www.w3.org/Graphics/SVG/1.1/DTD/svg11.dtd">
<svg version="1.1" id="Layer_1" xmlns="http://www.w3.org/2000/svg" xmlns:xlink="http://www.w3.org/1999/xlink" x="0px" y="0px"
	 width="39.454px" height="38.485px" viewBox="0 0 39.454 38.485" enable-background="new 0 0 39.454 38.485" xml:space="preserve">
<g>
	<rect y="-0.97" fill="none" width="39.453" height="39.455"/>
	<path fill="#FFFFFF" d="M39.454,18.757c0,10.896-8.832,19.728-19.727,19.728C8.832,38.485,0,29.653,0,18.757
		C0,7.862,8.832-0.97,19.727-0.97C30.622-0.97,39.454,7.862,39.454,18.757"/>
	<path fill="#CC0542" d="M30.246,6.092C30.197,6.04,30.132,6.01,30.059,6.01H9.392c-0.072,0-0.138,0.029-0.186,0.082
		C9.161,6.149,9.143,6.222,9.154,6.288l3.472,21.001c0.019,0.116,0.121,0.202,0.238,0.202h4.262l0.291,3.42l-1.793,0.002
		l4.173,4.173l4.183-4.183l-1.793,0.002l0.291-3.414h4.336c0.12,0,0.221-0.086,0.238-0.206L30.3,6.288
		C30.311,6.215,30.291,6.146,30.246,6.092 M22.258,22.905c0,0-0.938,0.965-2.466,0.859c-1.531,0.105-2.469-0.859-2.469-0.859
		c-1.548-1.547-0.996-3.472-0.457-4.466c0.333-0.623,2.712-4.195,2.916-4.499v-0.024c0,0,0.004,0.004,0.01,0.011l0.008-0.011v0.024
		c0.199,0.304,2.582,3.876,2.915,4.499C23.254,19.433,23.805,21.358,22.258,22.905 M28.814,10.51
		c-0.56-0.247-1.27-0.158-1.951,0.118c-2.564,1.04-4.311,1.414-7.008,0.569c-1.698-0.532-3.287-1.645-5.166-0.967
		c-1.247,0.448-2.408,0.876-3.818,0.865l-0.814-4.173H29.4L28.814,10.51z"/>
</g>
</svg>
